<?xml version="1.0" encoding="UTF-8"?>
<!DOCTYPE svg PUBLIC "-//W3C//DTD SVG 1.1//EN" "http://www.w3.org/Graphics/SVG/1.1/DTD/svg11.dtd">
<svg version="1.1" id="Layer_1" xmlns="http://www.w3.org/2000/svg" xmlns:xlink="http://www.w3.org/1999/xlink" x="0px" y="0px" width="16px" height="16px" viewBox="0 0 16 16" enable-background="new 0 0 16 16" xml:space="preserve">
  <g id="main">
    <g id="icon">
      <path d="M1.5,13.5L6.165,13.5L6.145,13.45L5.956,12.83L5.84,12.18L5.8,11.5L5.829,10.92L5.916,10.35L6.057,9.807L6.169,9.5L6,9.5L5.611,9.421L5.293,9.207L5.079,8.889L5,8.5L5.079,8.111L5.293,7.793L5.611,7.579L6,7.5L7.445,7.5L7.471,7.471L7.876,7.103L8.315,6.775L8.785,6.489L9.283,6.249L9.807,6.057L10.35,5.916L10.92,5.829L11.5,5.8L12.18,5.84L12.83,5.956L13.45,6.145L13.5,6.165L13.5,4.5L1.5,4.5zz" fill="#FFFFFF"/>
      <path d="M1,4.5L1,13.5L1,14L1.5,14L6.382,14L6.145,13.45L6.008,13L2,13L2,5L13,5L13,6.008L13.45,6.145L14,6.382L14,4.5L14,4L13.5,4L1.5,4L1,4zM5.901,7.01L5.512,7.088L5.414,7.108L5.331,7.164L5.013,7.379L4.933,7.433L4.879,7.513L4.664,7.831L4.608,7.914L4.588,8.012L4.51,8.401L4.49,8.5L4.51,8.599L4.588,8.988L4.608,9.086L4.664,9.169L4.879,9.487L4.933,9.567L5.013,9.621L5.331,9.836L5.414,9.892L5.512,9.912L5.901,9.99L5.95,10L6,10L6.007,10L6.057,9.807L6.249,9.283L6.385,9L6.05,9L5.808,8.951L5.653,8.847L5.549,8.692L5.51,8.5L5.549,8.308L5.653,8.153L5.808,8.049L6.05,8L7.011,8L7.103,7.876L7.471,7.471L7.876,7.103L8.014,7L6,7L5.95,7zz" fill="#383838"/>
      <path d="M0.5,4.5L14.5,4.5L14.5,0.5L0.5,0.5zz" fill="#ACD8B1"/>
      <path d="M0,0.5L0,4.5L0,5L0.5,5L14.5,5L15,5L15,4.5L15,0.5L15,0L14.5,0L0.5,0L0,0zM14,1L14,4L1,4L1,1zz" fill="#0BA04A"/>
    </g>
    <g id="overlay">
      <path d="M11.5,7.5c-2.209,0,-4,1.791,-4,4c0,2.209,1.791,4,4,4s4,-1.791,4,-4C15.5,9.291,13.709,7.5,11.5,7.5zM14,12h-2v2h-1v-2H9v-1h2V9h1v2h2V12z" fill="#B2DBB4"/>
      <path d="M11.5,7.5c-2.209,0,-4,1.791,-4,4c0,2.209,1.791,4,4,4s4,-1.791,4,-4C15.5,9.291,13.709,7.5,11.5,7.5zM14,12h-2v2h-1v-2H9v-1h2V9h1v2h2V12z" fill="#009949" opacity="0.2"/>
      <path d="M11.5,16c-2.481,0,-4.5,-2.019,-4.5,-4.5s2.019,-4.5,4.5,-4.5s4.5,2.019,4.5,4.5S13.981,16,11.5,16zM11.5,8c-1.93,0,-3.5,1.57,-3.5,3.5s1.57,3.5,3.5,3.5s3.5,-1.57,3.5,-3.5S13.43,8,11.5,8z" fill="#009949"/>
      <polygon points="12,14 11,14 11,12 9,12 9,11 11,11 11,9 12,9 12,11 14,11 14,12 12,12" fill="#FFFFFF" stroke-linejoin="miter"/>
    </g>
  </g>
</svg>
