<?xml version="1.0" encoding="UTF-8"?>
<!DOCTYPE svg PUBLIC "-//W3C//DTD SVG 1.1//EN" "http://www.w3.org/Graphics/SVG/1.1/DTD/svg11.dtd">
<svg version="1.1" id="Layer_1" xmlns="http://www.w3.org/2000/svg" xmlns:xlink="http://www.w3.org/1999/xlink" x="0px" y="0px" width="16px" height="16px" viewBox="0 0 16 16" enable-background="new 0 0 16 16" xml:space="preserve">
  <g id="main">
    <g id="icon">
      <path d="M1.5,13.5L4.841,13.5L5.079,12.93L5.494,12.06L5.748,11.64L5.917,11.44L7.85,9.5L6,9.5L5.611,9.421L5.293,9.207L5.079,8.889L5,8.5L5.079,8.111L5.293,7.793L5.611,7.579L6,7.5L9,7.5L9.389,7.579L9.612,7.729L12.82,4.5L1.5,4.5zM11.2,13.5L13.5,13.5L13.5,11.19zz" fill="#FFFFFF"/>
      <path d="M1,4.5L1,13.5L1,14L1.5,14L4.631,14L5.052,13L2,13L2,5L12.33,5L12.92,4.403L13.21,4.166L13.52,4L13.5,4L1.5,4L1,4zM5.901,7.01L5.512,7.088L5.414,7.108L5.331,7.164L5.013,7.379L4.933,7.433L4.879,7.513L4.664,7.831L4.608,7.914L4.588,8.012L4.51,8.401L4.49,8.5L4.51,8.599L4.588,8.988L4.608,9.086L4.664,9.169L4.879,9.487L4.933,9.567L5.013,9.621L5.331,9.836L5.414,9.892L5.512,9.912L5.901,9.99L5.95,10L6,10L7.353,10L8.347,9L6.05,9L5.808,8.951L5.653,8.847L5.549,8.692L5.51,8.5L5.549,8.308L5.653,8.153L5.808,8.049L6.05,8L8.95,8L9.192,8.049L9.253,8.09L9.971,7.368L9.669,7.164L9.586,7.108L9.488,7.088L9.099,7.01L9.05,7L9,7L6,7L5.95,7zM13,11.7L13,13L11.7,13L10.71,14L13.5,14L14,14L14,13.5L14,10.69zz" fill="#383838"/>
      <path d="M0.5,4.5L12.82,4.5L12.92,4.403L13.21,4.166L13.53,3.993L13.89,3.886L14.26,3.85L14.5,3.882L14.5,0.5L0.5,0.5zz" fill="#ACD8B1"/>
      <path d="M0,0.5L0,4.5L0,5L0.5,5L12.33,5L12.92,4.403L13.21,4.166L13.52,4L1,4L1,1L14,1L14,3.875L14.26,3.85L14.81,3.924L15,4.003L15,0.5L15,0L14.5,0L0.5,0L0,0zz" fill="#0BA04A"/>
    </g>
    <g id="overlay">
      <path d="M7.084,12.61l7.005,-7.044c0.376,-0.376,1.722,0.969,1.345,1.345l-7.009,7.04C8.231,14.146,5.958,15.1,5.958,15.1S6.889,12.805,7.084,12.61zM13.07,6.592l1.307,1.293M7.131,12.591l1.344,1.344" fill="#FFFFFF" stroke="#228BCB" stroke-width="0.9" stroke-miterlimit="10"/>
    </g>
  </g>
</svg>
