<?xml version="1.0" encoding="UTF-8"?>
<!DOCTYPE svg PUBLIC "-//W3C//DTD SVG 1.1//EN" "http://www.w3.org/Graphics/SVG/1.1/DTD/svg11.dtd">
<svg version="1.1" id="Layer_1" xmlns="http://www.w3.org/2000/svg" xmlns:xlink="http://www.w3.org/1999/xlink" x="0px" y="0px" width="16px" height="16px" viewBox="0 0 16 16" enable-background="new 0 0 16 16" xml:space="preserve">
  <g id="main">
    <g id="icon">
      <path d="M1.5,13.5L7.26,13.5L7.035,13.3L6.969,13.34L6.999,13.26L6.727,12.88L6.523,12.45L6.396,11.99L6.351,11.5L6.396,11.01L6.526,10.54L6.733,10.12L7.008,9.736L6.984,9.667L7.037,9.701L7.267,9.5L6,9.5L5.611,9.421L5.293,9.207L5.079,8.889L5,8.5L5.079,8.111L5.293,7.793L5.611,7.579L6,7.5L9,7.5L9.389,7.579L9.433,7.609L9.805,7.335L10.69,6.924L11.16,6.786L11.65,6.696L12.06,6.341L12.54,6.075L13.06,5.907L13.5,5.862L13.5,4.5L1.5,4.5zz" fill="#FFFFFF"/>
      <path d="M1,4.5L1,13.5L1,14L1.5,14L8,14L8,13.99L7.477,13.7L7.035,13.3L6.969,13.34L6.999,13.26L6.817,13L2,13L2,5L13,5L13,5.927L13.06,5.907L13.63,5.849L14,5.875L14,4.5L14,4L13.5,4L1.5,4L1,4zM5.901,7.01L5.512,7.088L5.414,7.108L5.331,7.164L5.013,7.379L4.933,7.433L4.879,7.513L4.664,7.831L4.608,7.914L4.588,8.012L4.51,8.401L4.49,8.5L4.51,8.599L4.588,8.988L4.608,9.086L4.664,9.169L4.879,9.487L4.933,9.567L5.013,9.621L5.331,9.836L5.414,9.892L5.512,9.912L5.901,9.99L5.95,10L6,10L6.818,10L7.008,9.736L6.984,9.667L7.037,9.701L7.546,9.257L8.052,9L6.05,9L5.808,8.951L5.653,8.847L5.549,8.692L5.51,8.5L5.549,8.308L5.653,8.153L5.808,8.049L6.05,8L8.942,8L9.024,7.91L9.805,7.335L9.874,7.303L9.669,7.164L9.586,7.108L9.488,7.088L9.099,7.01L9.05,7L9,7L6,7L5.95,7zz" fill="#383838"/>
      <path d="M0.5,4.5L14.5,4.5L14.5,0.5L0.5,0.5zz" fill="#ACD8B1"/>
      <path d="M0,0.5L0,4.5L0,5L0.5,5L14.5,5L15,5L15,4.5L15,0.5L15,0L14.5,0L0.5,0L0,0zM14,1L14,4L1,4L1,1zz" fill="#0BA04A"/>
    </g>
    <g id="overlay">
      <path d="M9.245,12.549c0.433,1.259,1.631,2.164,3.041,2.164c0.101,0,0.202,-0.005,0.301,-0.014M14.503,13.828c0.614,-0.584,0.997,-1.407,0.997,-2.32c0,-0.916,-0.386,-1.742,-1.004,-2.326M12.583,8.317c-0.098,-0.009,-0.197,-0.014,-0.297,-0.014c-1.404,0,-2.598,0.898,-3.035,2.149" fill="none" stroke="#228BCB" stroke-width="0.9" stroke-miterlimit="10"/>
      <path d="M9.25,10.452c0.507,0.084,0.893,0.521,0.893,1.048c0,0.528,-0.389,0.966,-0.898,1.049M9.25,10.452c-0.058,-0.01,-0.118,-0.015,-0.179,-0.015C8.48,10.437,8,10.913,8,11.5c0,0.587,0.48,1.063,1.071,1.063c0.059,0,0.117,-0.005,0.173,-0.014M14.496,9.182c0.126,-0.174,0.201,-0.388,0.201,-0.619c0,-0.587,-0.48,-1.063,-1.071,-1.063c-0.507,0,-0.931,0.349,-1.042,0.817M12.583,8.317c-0.019,0.079,-0.029,0.161,-0.029,0.245c0,0.587,0.48,1.063,1.071,1.063c0.359,0,0.676,-0.175,0.871,-0.444M12.586,14.698c0.117,0.461,0.538,0.802,1.039,0.802c0.592,0,1.071,-0.476,1.071,-1.063c0,-0.227,-0.072,-0.437,-0.194,-0.609M14.503,13.828c-0.194,-0.274,-0.515,-0.454,-0.878,-0.454c-0.592,0,-1.071,0.476,-1.071,1.063c0,0.09,0.011,0.177,0.033,0.261" fill="#FFFFFF" stroke="#228BCB" stroke-width="0.9" stroke-miterlimit="10"/>
    </g>
  </g>
</svg>
