<?xml version="1.0" encoding="UTF-8"?>
<!DOCTYPE svg PUBLIC "-//W3C//DTD SVG 1.1//EN" "http://www.w3.org/Graphics/SVG/1.1/DTD/svg11.dtd">
<svg version="1.1" id="Layer_1" xmlns="http://www.w3.org/2000/svg" xmlns:xlink="http://www.w3.org/1999/xlink" x="0px" y="0px" width="16px" height="16px" viewBox="0 0 16 16" enable-background="new 0 0 16 16" xml:space="preserve">
  <g id="main">
    <g id="icon">
      <path d="M1.5,13.5L7.36,13.5L7.584,13.05L7.908,12.53L8.281,12.04L8.698,11.6L8.484,11.15L8.328,10.67L8.232,10.18L8.2,9.661L8.216,9.5L6,9.5L5.611,9.421L5.293,9.207L5.079,8.889L5,8.5L5.079,8.111L5.293,7.793L5.611,7.579L6,7.5L8.853,7.5L9.314,6.932L9.877,6.46L10.52,6.104L11.24,5.879L12,5.8L12.56,5.841L13.09,5.961L13.5,6.12L13.5,4.5L1.5,4.5zz" fill="#FFFFFF"/>
      <path d="M1,4.5L1,13.5L1,14L1.5,14L7.159,14L7.311,13.6L7.584,13.05L7.613,13L2,13L2,5L13,5L13,5.941L13.09,5.961L13.59,6.153L14,6.383L14,4.5L14,4L13.5,4L1.5,4L1,4zM5.901,7.01L5.512,7.088L5.414,7.108L5.331,7.164L5.013,7.379L4.933,7.433L4.879,7.513L4.664,7.831L4.608,7.914L4.588,8.012L4.51,8.401L4.49,8.5L4.51,8.599L4.588,8.988L4.608,9.086L4.664,9.169L4.879,9.487L4.933,9.567L5.013,9.621L5.331,9.836L5.414,9.892L5.512,9.912L5.901,9.99L5.95,10L6,10L8.221,10L8.2,9.661L8.266,9L6.05,9L5.808,8.951L5.653,8.847L5.549,8.692L5.51,8.5L5.549,8.308L5.653,8.153L5.808,8.049L6.05,8L8.585,8L8.85,7.504L9.23,7.036L9.099,7.01L9.05,7L9,7L6,7L5.95,7zz" fill="#383838"/>
      <path d="M0.5,4.5L14.5,4.5L14.5,0.5L0.5,0.5zz" fill="#ACD8B1"/>
      <path d="M0,0.5L0,4.5L0,5L0.5,5L14.5,5L15,5L15,4.5L15,0.5L15,0L14.5,0L0.5,0L0,0zM14,1L14,4L1,4L1,1zz" fill="#0BA04A"/>
    </g>
    <g id="overlay">
      <path d="M14.101,9.661c0,1.193,-0.94,2.216,-2.1,2.216s-2.1,-1.022,-2.1,-2.216S10.84,7.5,12,7.5S14.101,8.468,14.101,9.661zM15.5,16c0,-2.086,-1.607,-4.108,-3.486,-4.108S8.5,13.914,8.5,16" fill="#B8BEC7" stroke="#525A66" stroke-width="1" stroke-miterlimit="10"/>
    </g>
  </g>
</svg>
