<?xml version="1.0" encoding="UTF-8"?>
<!DOCTYPE svg PUBLIC "-//W3C//DTD SVG 1.1//EN" "http://www.w3.org/Graphics/SVG/1.1/DTD/svg11.dtd">
<svg version="1.1" id="Layer_1" xmlns="http://www.w3.org/2000/svg" xmlns:xlink="http://www.w3.org/1999/xlink" x="0px" y="0px" width="16px" height="16px" viewBox="0 0 16 16" enable-background="new 0 0 16 16" xml:space="preserve">
  <g id="main">
    <g id="icon">
      <path d="M8.604,2.8L10.2,2.8L10.2,6.2L8.604,6.2L9.432,7.028L7.028,9.433L6.2,8.604L6.2,10.2L2.8,10.2L2.8,8.604L1.972,9.432L1.5,8.96L1.5,13.49L15.5,13.49L15.5,2.5L8.904,2.5zz" fill="#FFFFFF"/>
      <path d="M8.604,2.8L10.2,2.8L10.2,3L15,3L15,12.99L2,12.99L2,9.404L1.972,9.432L1,8.46L1,13.49L1,13.99L1.5,13.99L15.5,13.99L16,13.99L16,13.49L16,2.5L16,2L15.5,2L9.405,2zz" fill="#383838"/>
      <path d="M9.378,6.974L9.432,7.028L7.954,8.507L8.191,8.693L8.5,8.936L8.809,8.693L15.81,3.193L15.19,2.407zz" fill="#383838"/>
    </g>
    <g id="overlay">
      <path d="M4.5,0v9M9,4.5H0M7.382,1.618L1.618,7.382M7.382,7.382L1.618,1.618" fill="none" stroke="#ED8730" stroke-width="1" stroke-miterlimit="10"/>
    </g>
  </g>
</svg>
