<?xml version="1.0" encoding="UTF-8"?>
<!DOCTYPE svg PUBLIC "-//W3C//DTD SVG 1.1//EN" "http://www.w3.org/Graphics/SVG/1.1/DTD/svg11.dtd">
<svg version="1.1" id="Layer_1" xmlns="http://www.w3.org/2000/svg" xmlns:xlink="http://www.w3.org/1999/xlink" x="0px" y="0px" width="32px" height="32px" viewBox="0 0 32 32" enable-background="new 0 0 32 32" xml:space="preserve">
  <g id="icon">
    <polyline points="20.977,4.5 27.5,4.5 27.5,30.5 4.5,30.5 4.5,4.5 11.023,4.5" fill="#FFFFFF" stroke="#383838" stroke-width="1" stroke-miterlimit="50" stroke-linejoin="miter"/>
    <path d="M19,4.5c0,-1.657,-1.343,-3,-3,-3s-3,1.343,-3,3H9.5v3h13V4.5H19z" fill="#FFFFFF" stroke="#383838" stroke-width="1" stroke-miterlimit="50"/>
    <path d="M14,13.5h10M14,19.5h10M14,25.5h10" fill="none" stroke="#383838" stroke-width="1" stroke-miterlimit="50"/>
    <polyline points="13,16.976 9.748,20.201 7.9,18.375" fill="none" stroke="#EE3D3B" stroke-width="1.1" stroke-miterlimit="50" stroke-linejoin="miter"/>
    <polyline points="13,22.976 9.748,26.201 7.9,24.375" fill="none" stroke="#EE3D3B" stroke-width="1.1" stroke-miterlimit="50" stroke-linejoin="miter"/>
    <polyline points="13,10.976 9.748,14.201 7.9,12.375" fill="none" stroke="#EE3D3B" stroke-width="1.1" stroke-miterlimit="50" stroke-linejoin="miter"/>
  </g>
</svg>
