<?xml version="1.0" encoding="UTF-8"?>
<!DOCTYPE svg PUBLIC "-//W3C//DTD SVG 1.1//EN" "http://www.w3.org/Graphics/SVG/1.1/DTD/svg11.dtd">
<svg version="1.1" id="Layer_1" xmlns="http://www.w3.org/2000/svg" xmlns:xlink="http://www.w3.org/1999/xlink" x="0px" y="0px" width="16px" height="16px" viewBox="0 0 16 16" enable-background="new 0 0 16 16" xml:space="preserve">
  <g id="main">
    <g id="icon">
      <path d="M10.16,3.825L10.2,4.5L10.17,5.082L10.08,5.647L9.943,6.193L9.751,6.717L9.511,7.215L9.225,7.685L8.897,8.124L8.529,8.529L8.124,8.897L7.685,9.225L7.215,9.511L6.717,9.751L6.193,9.943L5.647,10.08L5.082,10.17L4.5,10.2L3.825,10.16L3.172,10.04L2.548,9.855L2.5,9.835L2.5,15.5L13.5,15.5L13.5,3.5L10.2,3.5L10.1,3.5zz" fill="#FFFFFF"/>
      <path d="M10.2,4L13,4L13,15L3,15L3,9.992L2.548,9.855L2,9.618L2,15.5L2,16L2.5,16L13.5,16L14,16L14,15.5L14,3.5L14,3L13.5,3L10.2,3zz" fill="#383838"/>
      <path d="M10.16,3.825L10.2,4.5L10.17,5.082L10.11,5.5L11.5,5.5L11.5,3.5L10.1,3.5zz" fill="#FFFFFF"/>
      <path d="M9.28,1.401L9.599,1.956L9.855,2.548L10.04,3.172L10.16,3.825L10.17,4L11,4L11,5L10.17,5L10.17,5.082L10.08,5.647L9.993,6L11.5,6L12,6L12,5.5L12,3.5L12,3L11.5,3L10.46,3L10.45,2.952L10.33,2.58L10.32,2.533L10.29,2.489L10.11,2.153L10.09,2.111L10.06,2.073L9.812,1.78L9.781,1.743L9.744,1.713L9.449,1.471L9.412,1.441L9.37,1.418L9.243,1.35zz" fill="#383838"/>
      <path d="M7.066,11.7L5.457,10.11L5.082,10.17L4.5,10.2L3.947,10.17L6.68,12.87L7.068,13.25L7.454,12.87L12.29,8.073L11.51,7.293zz" fill="#EE3D3B"/>
    </g>
    <g id="overlay">
      <path d="M4.5,8.5c2.209,0,4,-1.791,4,-4C8.5,2.291,6.709,0.5,4.5,0.5S0.5,2.291,0.5,4.5C0.5,6.709,2.291,8.5,4.5,8.5zM4.5,1.824l2.564,2.533l-0.703,0.711L5,3.723v3.292H4V3.723L2.639,5.068l-0.703,-0.711L4.5,1.824z" fill="#C9ABD4"/>
      <path d="M4.5,8.5c2.209,0,4,-1.791,4,-4C8.5,2.291,6.709,0.5,4.5,0.5S0.5,2.291,0.5,4.5C0.5,6.709,2.291,8.5,4.5,8.5zM4.5,1.824l2.564,2.533l-0.703,0.711L5,3.723v3.292H4V3.723L2.639,5.068l-0.703,-0.711L4.5,1.824z" fill="#6A3E7A" opacity="0.2"/>
      <path d="M4.5,0c2.481,0,4.5,2.019,4.5,4.5S6.981,9,4.5,9S0,6.981,0,4.5S2.019,0,4.5,0zM4.5,8c1.93,0,3.5,-1.57,3.5,-3.5S6.43,1,4.5,1S1,2.57,1,4.5S2.57,8,4.5,8z" fill="#6A3E7A"/>
      <polygon points="4.5,1.824 7.064,4.356 6.361,5.068 5,3.723 5,7.016 4,7.016 4,3.723 2.639,5.068 1.936,4.356" fill="#FFFFFF" stroke-linejoin="miter"/>
    </g>
  </g>
</svg>
