<?xml version="1.0" encoding="UTF-8"?>
<!DOCTYPE svg PUBLIC "-//W3C//DTD SVG 1.1//EN" "http://www.w3.org/Graphics/SVG/1.1/DTD/svg11.dtd">
<svg version="1.1" id="Layer_1" xmlns="http://www.w3.org/2000/svg" xmlns:xlink="http://www.w3.org/1999/xlink" x="0px" y="0px" width="16px" height="16px" viewBox="0 0 16 16" enable-background="new 0 0 16 16" xml:space="preserve">
  <g id="icon">
    <polyline points="10.2,2.5 13.5,2.5 13.5,15.5 2.5,15.5 2.5,2.5 5.3,2.5" fill="#F7DA8E" stroke-linejoin="miter"/>
    <polyline points="10.2,2.5 13.5,2.5 13.5,15.5 2.5,15.5 2.5,2.5 5.3,2.5" fill="none" stroke="#E57428" stroke-width="1" stroke-linecap="round" stroke-miterlimit="10" stroke-linejoin="miter"/>
    <rect x="4" y="5" width="8" height="9" fill="#FFFFFF"/>
    <path d="M10.011,2.5c0,-1.094,-0.892,-1.98,-1.993,-1.98S6.025,1.406,6.025,2.5H4.5v2h7V2.5H10.011z" fill="#FFFFFF" stroke="#383838" stroke-width="1" stroke-miterlimit="10"/>
    <path d="M5,6.5h6M5,8.5h6M5,10.5h6M5,12.5h6" fill="none" stroke="#228BCB" stroke-width="1" stroke-miterlimit="10"/>
  </g>
</svg>
