<?xml version="1.0" encoding="UTF-8"?>
<!DOCTYPE svg PUBLIC "-//W3C//DTD SVG 1.1//EN" "http://www.w3.org/Graphics/SVG/1.1/DTD/svg11.dtd">
<svg version="1.1" id="Layer_1" xmlns="http://www.w3.org/2000/svg" xmlns:xlink="http://www.w3.org/1999/xlink" x="0px" y="0px" width="16px" height="16px" viewBox="0 0 16 16" enable-background="new 0 0 16 16" xml:space="preserve">
  <g id="main">
    <g id="icon">
      <path d="M1.5,14.5L5.8,14.5L5.8,11.84L5.8,10.83L5.8,10.8L5.805,10.8L5.828,10.64L6.068,9.634L6.475,8.719L7.033,7.903L7.725,7.204L8.532,6.634L9.438,6.209L10.42,5.943L11.48,5.851L12.04,5.887L12.5,5.971L12.5,2.5L9.2,2.5L4.3,2.5L1.5,2.5zz" fill="#F7DA8E"/>
      <path d="M1,2.5L1,14.5L1,15L1.5,15L5.8,15L5.8,14L2,14L2,3L4.3,3L4.617,2.887L4.79,2.598L4.741,2.265L4.492,2.038L4.3,2L1.5,2L1,2zM8.883,2.113L8.71,2.402L8.759,2.735L9.008,2.962L9.2,3L12,3L12,5.884L12.04,5.887L12.61,5.991L13,6.114L13,2.5L13,2L12.5,2L9.2,2zz" fill="#E57428"/>
      <path d="M3,13L5.8,13L5.8,11.84L5.8,10.83L5.8,10.8L5.805,10.8L5.828,10.64L6.068,9.634L6.475,8.719L7.033,7.903L7.725,7.204L8.532,6.634L9.438,6.209L10.42,5.943L11,5.893L11,5L3,5zz" fill="#FFFFFF"/>
      <path d="M6.616,0.5602L6.242,0.6756L5.904,0.858L5.609,1.1L5.365,1.393L5.182,1.729L5.065,2.101L5.025,2.5L3.5,2.5L3.5,4.5L10.5,4.5L10.5,2.5L9.011,2.5L8.971,2.101L8.854,1.729L8.671,1.393L8.427,1.1L8.132,0.858L7.794,0.6756L7.42,0.5602L7.018,0.5199zz" fill="#FFFFFF"/>
      <path d="M6.968,0.02246L6.566,0.0627L6.517,0.06758L6.469,0.08242L6.095,0.1977L6.048,0.2121L6.005,0.2354L5.666,0.418L5.624,0.4408L5.587,0.4713L5.292,0.7131L5.255,0.7434L5.224,0.7803L4.981,1.073L4.95,1.111L4.927,1.153L4.743,1.489L4.719,1.533L4.704,1.58L4.588,1.952L4.573,2L3.5,2L3,2L3,2.5L3,4.5L3,5L3.5,5L10.5,5L11,5L11,4.5L11,2.5L11,2L10.5,2L9.463,2L9.448,1.952L9.332,1.58L9.317,1.533L9.293,1.489L9.11,1.153L9.086,1.111L9.055,1.073L8.812,0.7803L8.781,0.7434L8.744,0.7131L8.449,0.4713L8.412,0.4408L8.37,0.418L8.031,0.2354L7.988,0.2121L7.941,0.1977L7.567,0.08242L7.519,0.06758L7.47,0.0627L7.068,0.02246L7.018,0.01758zM7.321,1.053L7.6,1.139L7.853,1.276L8.074,1.457L8.255,1.674L8.392,1.925L8.478,2.202L8.513,2.55L8.559,3L9.011,3L10,3L10,4L4,4L4,3L5.025,3L5.477,3L5.522,2.55L5.558,2.202L5.644,1.925L5.781,1.675L5.962,1.456L6.183,1.276L6.436,1.139L6.716,1.053L7.018,1.023zz" fill="#383838"/>
      <path d="M4,7L8.013,7L8.532,6.634L9.438,6.209L10,6.057L10,6L4,6zM4,9L6.35,9L6.475,8.719L6.967,8L4,8zM4,11L5.8,11L5.8,10.83L5.8,10.8L5.805,10.8L5.828,10.64L5.98,10L4,10zz" fill="#228BCB"/>
    </g>
    <g id="overlay">
      <path d="M15.45,7.4v3.05H15M12.3,10.45h2.7M15.061,10.233c-0.634,-1.312,-2.009,-2.631,-3.585,-2.631c-1.993,0,-3.645,1.407,-3.916,3.285" fill="none" stroke="#D43318" stroke-width="1.1" stroke-miterlimit="10"/>
      <path d="M7.55,15.6v-3.05H8M10.6,12.55H7.9M7.861,12.733c0.634,1.312,2.109,2.631,3.685,2.631c2.003,0,3.662,-1.321,3.92,-3.214" fill="none" stroke="#D43318" stroke-width="1.1" stroke-miterlimit="10"/>
    </g>
  </g>
</svg>
