<?xml version="1.0" encoding="UTF-8"?>
<!DOCTYPE svg PUBLIC "-//W3C//DTD SVG 1.1//EN" "http://www.w3.org/Graphics/SVG/1.1/DTD/svg11.dtd">
<svg version="1.1" id="Layer_1" xmlns="http://www.w3.org/2000/svg" xmlns:xlink="http://www.w3.org/1999/xlink" x="0px" y="0px" width="16px" height="16px" viewBox="0 0 16 16" enable-background="new 0 0 16 16" xml:space="preserve">
  <g id="main">
    <g id="icon">
      <path d="M10.2,6.2L8.604,6.2L9.432,7.028L7.028,9.433L6.2,8.604L6.2,10.2L2.8,10.2L2.8,8.604L2.5,8.904L2.5,15.5L13.5,15.5L13.5,3.5L10.2,3.5zz" fill="#FFFFFF"/>
      <path d="M10.2,4L13,4L13,15L3,15L3,10.2L2.8,10.2L2.8,8.604L2,9.404L2,15.5L2,16L2.5,16L13.5,16L14,16L14,15.5L14,3.5L14,3L13.5,3L10.2,3zz" fill="#383838"/>
      <path d="M8.604,2.8L9.877,2.8L9.854,2.729L9.671,2.393L9.427,2.1L9.36,2.045zM10.2,5.5L11.5,5.5L11.5,3.5L10.2,3.5zz" fill="#FFFFFF"/>
      <path d="M9.433,1.972L9.005,2.4L9.074,2.457L9.255,2.674L9.323,2.8L10.2,2.8L10.2,4L11,4L11,5L10.2,5L10.2,6L11.5,6L12,6L12,5.5L12,3.5L12,3L11.5,3L10.46,3L10.45,2.952L10.33,2.58L10.32,2.533L10.29,2.489L10.11,2.153L10.09,2.111L10.06,2.073L9.812,1.78L9.781,1.743L9.744,1.713L9.449,1.471L9.412,1.441L9.37,1.418L9.031,1.235L8.988,1.212L8.941,1.198L8.567,1.082L8.533,1.072zz" fill="#383838"/>
      <path d="M7.066,11.7L5.545,10.2L3.98,10.2L6.68,12.87L7.068,13.25L7.454,12.87L12.29,8.073L11.51,7.293zz" fill="#EE3D3B"/>
    </g>
    <g id="overlay">
      <path d="M4.5,0v9M9,4.5H0M7.382,1.618L1.618,7.382M7.382,7.382L1.618,1.618" fill="none" stroke="#ED8730" stroke-width="1" stroke-miterlimit="10"/>
    </g>
  </g>
</svg>
