<?xml version="1.0" encoding="UTF-8"?>
<!DOCTYPE svg PUBLIC "-//W3C//DTD SVG 1.1//EN" "http://www.w3.org/Graphics/SVG/1.1/DTD/svg11.dtd">
<svg version="1.1" id="Layer_1" xmlns="http://www.w3.org/2000/svg" xmlns:xlink="http://www.w3.org/1999/xlink" x="0px" y="0px" width="16px" height="16px" viewBox="0 0 16 16" enable-background="new 0 0 16 16" xml:space="preserve">
  <g id="icon">
    <path d="M0.5,8C0.5,3.858,3.858,0.5,8,0.5s7.5,3.358,7.5,7.5s-3.358,7.5,-7.5,7.5S0.5,12.142,0.5,8zM3.425,13.943M12.612,13.914" fill="#FFFFFF"/>
    <path d="M8.025,0.6v7.691c1.577,1.528,3.509,3.582,5.274,5.286C14.599,12.2,15.4,10.316,15.4,8.238C15.4,4.02,12.098,0.6,8.025,0.6z" fill="#F7BFBF" opacity="0.8"/>
    <path d="M8,16c-4.411,0,-8,-3.589,-8,-8S3.589,0,8,0s8,3.589,8,8S12.411,16,8,16zM8,1c-3.86,0,-7,3.14,-7,7s3.14,7,7,7s7,-3.14,7,-7S11.86,1,8,1z" fill="#383838"/>
    <path d="M8,2v6.359l3.69,3.72" fill="none" stroke="#228BCB" stroke-width="1" stroke-miterlimit="10" stroke-linejoin="round"/>
  </g>
</svg>
