<?xml version="1.0" encoding="UTF-8"?>
<!DOCTYPE svg PUBLIC "-//W3C//DTD SVG 1.1//EN" "http://www.w3.org/Graphics/SVG/1.1/DTD/svg11.dtd">
<svg version="1.1" id="Layer_1" xmlns="http://www.w3.org/2000/svg" xmlns:xlink="http://www.w3.org/1999/xlink" x="0px" y="0px" width="16px" height="16px" viewBox="0 0 16 16" enable-background="new 0 0 16 16" xml:space="preserve">
  <g id="icon">
    <path d="M7.342,15.555c-0.787,0,-1.476,-0.287,-2.051,-0.853c-1.166,-1.15,-2.307,-2.289,-3.391,-3.386c-0.232,-0.235,-0.359,-0.518,-0.356,-0.797c0.002,-0.252,0.107,-0.485,0.302,-0.676c0.194,-0.189,0.419,-0.289,0.652,-0.289c0.267,0,0.542,0.126,0.794,0.363c0.034,0.032,0.066,0.064,0.099,0.097c0.07,0.07,0.148,0.148,0.27,0.258l0.778,0.697l0.056,-1.042c0.007,-0.125,0.008,-1.777,0.004,-3.728L4.499,5.7H4.5l0,-2.528c0,-0.146,0.064,-0.284,0.174,-0.38c0.387,-0.337,0.821,-0.421,1.194,-0.272l0.52,0.207l0.195,-0.717c0.025,-0.092,0.075,-0.176,0.145,-0.24c0.685,-0.622,1.551,-0.263,1.736,0.417l0.147,0.54l0.52,-0.207c0.373,-0.149,0.808,-0.065,1.195,0.273c0.109,0.096,0.173,0.234,0.173,0.379l0,1.574l0.667,-0.237c0.163,-0.058,0.338,-0.072,0.513,-0.041c0.482,0.085,0.82,0.527,0.82,1.017v1.246l-0.001,0.217c-0.001,0.885,0,2.849,0.001,3.728c0,0.613,0.001,1.234,0.001,1.873c0,1.643,-1.341,2.989,-2.989,3.001c-0.109,0.001,-0.218,0.001,-0.327,0.001c-0.179,0,-0.359,-0.001,-0.538,-0.002c-0.183,-0.001,-0.364,-0.002,-0.546,-0.002c-0.267,0,-0.487,0.002,-0.694,0.006C7.385,15.555,7.363,15.555,7.342,15.555z" fill="#F5E1C0"/>
    <path d="M11.525,4.003c-0.175,0,-0.525,0.086,-0.525,0.086v-0.596c0,-0.748,-0.531,-1.413,-1.27,-1.525c-0.279,-0.042,-0.545,-0.006,-0.783,0.089C8.774,1.419,8.191,0.95,7.5,0.95s-1.274,0.469,-1.447,1.106c-0.237,-0.094,-0.504,-0.131,-0.783,-0.089C4.531,2.079,4,2.744,4,3.492L4,6.2h0.029c0,0,0.004,3.509,-0.004,3.653c-0.177,-0.159,-0.255,-0.248,-0.36,-0.347c-0.68,-0.64,-1.524,-0.667,-2.138,-0.068c-0.615,0.601,-0.606,1.52,0.048,2.182c1.124,1.138,2.255,2.268,3.394,3.391c0.682,0.673,1.504,1.015,2.474,0.997c0.699,-0.013,1.399,0.002,2.099,-0.003c1.922,-0.014,3.484,-1.587,3.484,-3.501c0,-1.557,-0.003,-4.001,-0.001,-5.503H13V5.503C13.025,4.675,12.352,4.003,11.525,4.003zM12.028,7c0.007,1.5,0.022,3.975,0.007,5.484c-0.015,1.48,-1.054,2.521,-2.54,2.523c-0.716,0.001,-1.433,-0.015,-2.149,0.005c-0.622,0.018,-1.15,-0.193,-1.585,-0.611c-1.176,-1.132,-2.336,-2.281,-3.504,-3.423c-0.258,-0.252,-0.378,-0.519,-0.083,-0.819c0.3,-0.307,0.577,-0.229,0.862,0.047c0.536,0.519,1.08,1.03,1.63,1.552c0.135,0.129,0.359,0.033,0.334,-0.154V6.2l0,0V3.503c0.025,-0.276,0.249,-0.5,0.525,-0.5s0.5,0.224,0.475,0.5v1.75V6.2h0.027c0,0,-0.002,0.386,-0.002,0.6h1c0,-0.214,-0.001,-0.381,-0.002,-0.6H7v-0.947v-1.75v-1c0.025,-0.276,0.249,-0.5,0.525,-0.5s0.475,0.5,0.475,0.5V3.55V5.3v1h0.006c-0.002,0.462,-0.004,0.828,-0.005,1H9c0,-0.168,0,-0.614,0,-1.1h0V5.133l0,-1.882c0,-0.217,0.131,-0.42,0.336,-0.49c0.345,-0.118,0.664,0.155,0.664,0.505V5.4v1.067V7h0.008c0.004,0.323,0.008,0.599,0.007,0.8H11c0,-0.296,0,-0.524,0,-0.8v-0.533v-0.533v-0.549c0,-0.217,0.131,-0.42,0.336,-0.49c0.345,-0.118,0.664,0.155,0.664,0.505v1.6H12.028z" fill="#DF9725"/>
  </g>
</svg>
