<?xml version="1.0" encoding="UTF-8"?>
<!DOCTYPE svg PUBLIC "-//W3C//DTD SVG 1.1//EN" "http://www.w3.org/Graphics/SVG/1.1/DTD/svg11.dtd">
<svg version="1.1" id="Layer_1" xmlns="http://www.w3.org/2000/svg" xmlns:xlink="http://www.w3.org/1999/xlink" x="0px" y="0px" width="16px" height="16px" viewBox="0 0 16 16" enable-background="new 0 0 16 16" xml:space="preserve">
  <g id="main">
    <g id="icon">
      <path d="M1.5,14.5L7.559,14.5L7.605,14.37L7.746,14.1L7.384,13.47L7.16,13.47L6.886,13.45L6.631,13.37L6.4,13.24L6.199,13.07L6.033,12.87L5.907,12.64L5.828,12.38L5.8,12.11L5.8,10.86L5.828,10.58L5.907,10.33L6.033,10.1L6.199,9.896L6.4,9.729L6.631,9.603L6.886,9.524L7.16,9.496L7.384,9.496L7.74,8.876L7.615,8.648L7.507,8.397L7.452,8.139L7.491,7.627L7.719,7.166L7.898,6.972L8.119,6.812L9.188,6.186L9.519,6.047L9.874,6L10.24,6.049L10.57,6.189L10.85,6.411L11.07,6.704L11.17,6.896L11.49,6.885L11.83,6.898L11.96,6.678L12.18,6.396L12.46,6.182L12.5,6.164L12.5,2.5L9.2,2.5L4.3,2.5L1.5,2.5zz" fill="#F7DA8E"/>
      <path d="M1,2.5L1,14.5L1,15L1.5,15L7.46,15L7.459,14.8L7.605,14.37L7.746,14.1L7.687,14L2,14L2,3L4.3,3L4.617,2.887L4.79,2.598L4.741,2.265L4.492,2.038L4.3,2L1.5,2L1,2zM8.883,2.113L8.71,2.402L8.759,2.735L9.008,2.962L9.2,3L12,3L12,6.625L12.18,6.396L12.46,6.182L12.78,6.047L13,6.018L13,2.5L13,2L12.5,2L9.2,2zz" fill="#E57428"/>
      <path d="M3,13L6.138,13L6.033,12.87L5.907,12.64L5.828,12.38L5.8,12.11L5.8,10.86L5.828,10.58L5.907,10.33L6.033,10.1L6.199,9.896L6.4,9.729L6.631,9.603L6.886,9.524L7.16,9.496L7.384,9.496L7.74,8.876L7.615,8.648L7.507,8.397L7.452,8.139L7.491,7.627L7.719,7.166L7.898,6.972L8.119,6.812L9.188,6.186L9.519,6.047L9.874,6L10.24,6.049L10.57,6.189L10.85,6.411L11,6.616L11,5L3,5zz" fill="#FFFFFF"/>
      <path d="M6.616,0.5602L6.242,0.6756L5.904,0.858L5.609,1.1L5.365,1.393L5.182,1.729L5.065,2.101L5.025,2.5L3.5,2.5L3.5,4.5L10.5,4.5L10.5,2.5L9.011,2.5L8.971,2.101L8.854,1.729L8.671,1.393L8.427,1.1L8.132,0.858L7.794,0.6756L7.42,0.5602L7.018,0.5199zz" fill="#FFFFFF"/>
      <path d="M6.968,0.02246L6.566,0.0627L6.517,0.06758L6.469,0.08242L6.095,0.1977L6.048,0.2121L6.005,0.2354L5.666,0.418L5.624,0.4408L5.587,0.4713L5.292,0.7131L5.255,0.7434L5.224,0.7803L4.981,1.073L4.95,1.111L4.927,1.153L4.743,1.489L4.719,1.533L4.704,1.58L4.588,1.952L4.573,2L3.5,2L3,2L3,2.5L3,4.5L3,5L3.5,5L10.5,5L11,5L11,4.5L11,2.5L11,2L10.5,2L9.463,2L9.448,1.952L9.332,1.58L9.317,1.533L9.293,1.489L9.11,1.153L9.086,1.111L9.055,1.073L8.812,0.7803L8.781,0.7434L8.744,0.7131L8.449,0.4713L8.412,0.4408L8.37,0.418L8.031,0.2354L7.988,0.2121L7.941,0.1977L7.567,0.08242L7.519,0.06758L7.47,0.0627L7.068,0.02246L7.018,0.01758zM7.321,1.053L7.6,1.139L7.853,1.276L8.074,1.457L8.255,1.674L8.392,1.925L8.478,2.202L8.513,2.55L8.559,3L9.011,3L10,3L10,4L4,4L4,3L5.025,3L5.477,3L5.522,2.55L5.558,2.202L5.644,1.925L5.781,1.675L5.962,1.456L6.183,1.276L6.436,1.139L6.716,1.053L7.018,1.023zz" fill="#383838"/>
      <path d="M4,7L7.872,7L7.898,6.972L8.119,6.812L9.188,6.186L9.519,6.047L9.874,6L4,6zM9.874,6L10,6.017L10,6L9.874,6zM4,9L7.669,9L7.74,8.876L7.615,8.648L7.507,8.397L7.452,8.139L7.462,8L4,8zM4,11L5.8,11L5.8,10.86L5.828,10.58L5.907,10.33L6.033,10.1L6.113,10L4,10zz" fill="#228BCB"/>
    </g>
    <g id="overlay">
      <path d="M12.447,14.743c-0.31,0.093,-0.632,0.141,-0.957,0.141c-0.326,0,-0.648,-0.047,-0.957,-0.141l-0.52,0.971c-0.043,0.08,-0.142,0.109,-0.22,0.063l-1.069,-0.626c-0.075,-0.044,-0.102,-0.141,-0.061,-0.219l0.524,-0.978c-0.477,-0.457,-0.807,-1.037,-0.958,-1.681H7.16c-0.088,0,-0.16,-0.073,-0.16,-0.163v-1.251c0,-0.09,0.072,-0.163,0.16,-0.163h1.069c0.151,-0.644,0.481,-1.223,0.958,-1.681l-0.521,-0.946c-0.043,-0.078,-0.016,-0.176,0.06,-0.221l1.069,-0.626c0.077,-0.045,0.176,-0.018,0.219,0.061l0.519,0.942c0.31,-0.093,0.632,-0.141,0.957,-0.141c0.326,0,0.648,0.047,0.957,0.141l0.549,-0.947c0.045,-0.077,0.142,-0.103,0.217,-0.058l1.069,0.626c0.077,0.045,0.103,0.146,0.058,0.224l-0.547,0.944c0.477,0.457,0.807,1.037,0.958,1.681h1.069c0.088,0,0.16,0.073,0.16,0.163v1.251c0,0.09,-0.072,0.163,-0.16,0.163H14.75c-0.151,0.644,-0.481,1.223,-0.958,1.681l0.55,0.977c0.044,0.078,0.018,0.177,-0.059,0.222l-1.069,0.626c-0.077,0.045,-0.175,0.018,-0.218,-0.06L12.447,14.743zM11.49,9.369c-1.145,0,-2.077,0.949,-2.077,2.115S10.344,13.6,11.49,13.6s2.077,-0.949,2.077,-2.115S12.635,9.369,11.49,9.369z" fill="#383838"/>
    </g>
  </g>
</svg>
