<?xml version="1.0" encoding="UTF-8"?>
<!DOCTYPE svg PUBLIC "-//W3C//DTD SVG 1.1//EN" "http://www.w3.org/Graphics/SVG/1.1/DTD/svg11.dtd">
<svg version="1.1" id="Layer_1" xmlns="http://www.w3.org/2000/svg" xmlns:xlink="http://www.w3.org/1999/xlink" x="0px" y="0px" width="16px" height="16px" viewBox="0 0 16 16" enable-background="new 0 0 16 16" xml:space="preserve">
  <g id="main">
    <g id="icon">
      <path d="M1.5,14.5L6.663,14.5L6.401,14.04L6.145,13.45L5.956,12.83L5.84,12.18L5.8,11.5L5.829,10.92L5.916,10.35L6.057,9.807L6.249,9.283L6.489,8.785L6.775,8.315L7.103,7.876L7.471,7.471L7.876,7.103L8.315,6.775L8.785,6.489L9.283,6.249L9.807,6.057L10.35,5.916L10.92,5.829L11.5,5.8L12.18,5.84L12.5,5.898L12.5,2.5L9.2,2.5L4.3,2.5L1.5,2.5zz" fill="#BBC1C9"/>
      <path d="M1,2.5L1,14.5L1,15L1.5,15L7.014,15L6.72,14.6L6.401,14.04L6.382,14L2,14L2,3L4.3,3L4.617,2.887L4.79,2.598L4.741,2.265L4.492,2.038L4.3,2L1.5,2L1,2zM8.883,2.113L8.71,2.402L8.759,2.735L9.008,2.962L9.2,3L12,3L12,5.829L12.18,5.84L12.83,5.956L13,6.008L13,2.5L13,2L12.5,2L9.2,2zz" fill="#788494"/>
      <path d="M3,13L6.008,13L5.956,12.83L5.84,12.18L5.8,11.5L5.829,10.92L5.916,10.35L6.057,9.807L6.249,9.283L6.489,8.785L6.775,8.315L7.103,7.876L7.471,7.471L7.876,7.103L8.315,6.775L8.785,6.489L9.283,6.249L9.807,6.057L10.35,5.916L10.92,5.829L11,5.825L11,5L3,5zz" fill="#FFFFFE"/>
      <path d="M6.616,0.5602L6.242,0.6756L5.904,0.858L5.609,1.1L5.365,1.393L5.182,1.729L5.065,2.101L5.025,2.5L3.5,2.5L3.5,4.5L10.5,4.5L10.5,2.5L9.011,2.5L8.971,2.101L8.854,1.729L8.671,1.393L8.427,1.1L8.132,0.858L7.794,0.6756L7.42,0.5602L7.018,0.5199zz" fill="#FFFFFE"/>
      <path d="M6.968,0.02246L6.566,0.0627L6.517,0.06758L6.469,0.08242L6.095,0.1977L6.048,0.2121L6.005,0.2354L5.666,0.418L5.624,0.4408L5.587,0.4713L5.292,0.7131L5.255,0.7434L5.224,0.7803L4.981,1.073L4.95,1.111L4.927,1.153L4.743,1.489L4.719,1.533L4.704,1.58L4.588,1.952L4.573,2L3.5,2L3,2L3,2.5L3,4.5L3,5L3.5,5L10.5,5L11,5L11,4.5L11,2.5L11,2L10.5,2L9.463,2L9.448,1.952L9.332,1.58L9.317,1.533L9.293,1.489L9.11,1.153L9.086,1.111L9.055,1.073L8.812,0.7803L8.781,0.7434L8.744,0.7131L8.449,0.4713L8.412,0.4408L8.37,0.418L8.031,0.2354L7.988,0.2121L7.941,0.1977L7.567,0.08242L7.519,0.06758L7.47,0.0627L7.068,0.02246L7.018,0.01758zM7.321,1.053L7.6,1.139L7.853,1.276L8.074,1.457L8.255,1.674L8.392,1.925L8.478,2.202L8.513,2.55L8.559,3L9.011,3L10,3L10,4L4,4L4,3L5.025,3L5.477,3L5.522,2.55L5.558,2.202L5.644,1.925L5.781,1.675L5.962,1.456L6.183,1.276L6.436,1.139L6.716,1.053L7.018,1.023zz" fill="#31363E"/>
      <path d="M4,7L8.014,7L8.315,6.775L8.785,6.489L9.283,6.249L9.807,6.057L10,6.007L10,6L4,6zM4,9L6.385,9L6.489,8.785L6.775,8.315L7.011,8L4,8zM4,11L5.825,11L5.829,10.92L5.916,10.35L6.007,10L4,10zz" fill="#697483"/>
    </g>
    <g id="overlay">
      <path d="M7.5,11.5c0,-2.209,1.791,-4,4,-4s4,1.791,4,4s-1.791,4,-4,4S7.5,13.709,7.5,11.5zM9.06,14.669M13.96,14.654" fill="#FFFFFE" stroke="#31363E" stroke-width="1" stroke-miterlimit="10"/>
      <path d="M11.5,9v2.534l1.737,1.926" fill="none" stroke="#697483" stroke-width="1" stroke-miterlimit="10"/>
    </g>
  </g>
</svg>
