<?xml version="1.0" encoding="UTF-8"?>
<!DOCTYPE svg PUBLIC "-//W3C//DTD SVG 1.1//EN" "http://www.w3.org/Graphics/SVG/1.1/DTD/svg11.dtd">
<svg version="1.1" id="Layer_1" xmlns="http://www.w3.org/2000/svg" xmlns:xlink="http://www.w3.org/1999/xlink" x="0px" y="0px" width="16px" height="16px" viewBox="0 0 16 16" enable-background="new 0 0 16 16" xml:space="preserve">
  <g id="main">
    <g id="icon">
      <path d="M2,13L6.008,13L5.956,12.83L5.84,12.18L5.8,11.5L5.829,10.92L5.916,10.35L6.057,9.807L6.243,9.3L4.8,9.3L4.8,7.7L7.263,7.7L7.471,7.471L7.876,7.103L8.315,6.775L8.785,6.489L9.283,6.249L9.807,6.057L10.35,5.916L10.92,5.829L11.5,5.8L12,5.829L12,4L2,4zz" fill="#FFFFFF" opacity="0.4"/>
      <path d="M1,14L6.382,14L6.145,13.45L6.008,13L2,13L2,3.5L1,3.5zM12,5.829L12.18,5.84L12.83,5.956L13,6.008L13,3.5L12,3.5zM5.198,7.03L4.917,7.118L4.662,7.256L4.44,7.44L4.256,7.662L4.118,7.917L4.03,8.198L4,8.5L4.03,8.802L4.118,9.083L4.256,9.338L4.44,9.56L4.662,9.744L4.917,9.882L5.198,9.97L5.5,10L6.007,10L6.057,9.807L6.249,9.283L6.385,9L5.5,9L5.305,8.961L5.147,8.853L5.039,8.695L5,8.5L5.039,8.305L5.147,8.147L5.305,8.039L5.5,8L7.011,8L7.103,7.876L7.471,7.471L7.876,7.103L8.014,7L5.5,7zz" fill="#6D6E71"/>
      <path d="M0,4L14,4L14,0L0,0zz" fill="#52B4C0"/>
    </g>
    <g id="overlay">
      <path d="M14.682,8.318c-1.7574,-1.7574,-4.6066,-1.7574,-6.364,0c-1.7574,1.7574,-1.7574,4.6066,0,6.364c1.7574,1.7574,4.6066,1.7574,6.364,0S16.4393,10.0754,14.682,8.318zM14.1163,13.3385l-0.7778,0.7778L11.5,12.2778l-1.8385,1.8385l-0.7778,-0.7778L10.7222,11.5L8.8837,9.6615l0.7778,-0.7778L11.5,10.7222l1.8385,-1.8385l0.7778,0.7778L12.2778,11.5L14.1163,13.3385z" fill="#CB525D"/>
      <polygon points="11.5,12.4192 9.6615,14.2577 8.7423,13.3385 10.5808,11.5 8.7423,9.6615 9.6615,8.7423 11.5,10.5808 13.3385,8.7423 14.2577,9.6615 12.4192,11.5 14.2577,13.3385 13.3385,14.2577" fill="#FFFFFF" stroke-linejoin="miter"/>
    </g>
  </g>
</svg>
