<?xml version="1.0" encoding="UTF-8"?>
<!DOCTYPE svg PUBLIC "-//W3C//DTD SVG 1.1//EN" "http://www.w3.org/Graphics/SVG/1.1/DTD/svg11.dtd">
<svg version="1.1" id="Layer_1" xmlns="http://www.w3.org/2000/svg" xmlns:xlink="http://www.w3.org/1999/xlink" x="0px" y="0px" width="16px" height="16px" viewBox="0 0 16 16" enable-background="new 0 0 16 16" xml:space="preserve">
  <g id="main">
    <g id="icon">
      <path d="M2,13L7.114,13L6.904,12.49L6.819,11.85L6.845,11.5L6.92,11.16L7.203,10.54L7.639,10.03L8.199,9.648L8.412,9.3L4.8,9.3L4.8,7.7L9.3,7.7L9.3,8.266L9.349,8.219L9.838,7.856L10.37,7.558L10.94,7.329L11.53,7.173L12,7.113L12,4L2,4zz" fill="#FFFFFF" opacity="0.4"/>
      <path d="M1,14L8,14L8,13.95L7.517,13.56L7.144,13.07L7.114,13L2,13L2,3.5L1,3.5zM12,7.113L12.14,7.095L12.49,6.847L12.88,6.663L13,6.629L13,3.5L12,3.5zM5.198,7.03L4.917,7.118L4.662,7.256L4.44,7.44L4.256,7.662L4.118,7.917L4.03,8.198L4,8.5L4.03,8.802L4.118,9.083L4.256,9.338L4.44,9.56L4.662,9.744L4.917,9.882L5.198,9.97L5.5,10L7.677,10L8.199,9.648L8.522,9.119L8.641,8.971L8.5,9L5.5,9L5.305,8.961L5.147,8.853L5.039,8.695L5,8.5L5.039,8.305L5.147,8.147L5.305,8.039L5.5,8L8.5,8L8.695,8.039L8.853,8.147L8.961,8.305L9,8.5L8.987,8.566L9.349,8.219L9.838,7.856L9.847,7.852L9.744,7.662L9.56,7.44L9.338,7.256L9.083,7.118L8.802,7.03L8.5,7L5.5,7zz" fill="#6D6E71"/>
      <path d="M0,4L14,4L14,0L0,0zz" fill="#52B4C0"/>
    </g>
    <g id="overlay">
      <path d="M12.3837,15.4373c-1.382,-0.0169,-2.6196,-0.829,-3.1945,-2.0655c0.0292,0.0017,0.0586,0.0027,0.0882,0.0027c0.0814,0,0.1642,-0.0067,0.2461,-0.02c0.185,-0.03,0.3573,-0.0919,0.5117,-0.1795c0.4406,0.8052,1.2626,1.3417,2.1886,1.4109c-0.0055,0.0524,-0.0084,0.1055,-0.0084,0.1593c0,0.1062,0.0112,0.2126,0.0327,0.3135l0.005,0.0251l0.0146,0.0576l0.0097,0.0338C12.3046,15.2669,12.3409,15.3542,12.3837,15.4373zM15.1476,9.5451c-0.037,0.0886,-0.0816,0.1743,-0.1355,0.2554l-0.0193,0.0287l-0.0348,0.0482l-0.0161,0.0202c-0.0961,0.123,-0.211,0.2291,-0.3386,0.3162c0.3582,0.4712,0.5523,1.0422,0.5523,1.6477c0,0.6009,-0.1913,1.1681,-0.5444,1.6374c0.1294,0.0897,0.2457,0.199,0.3427,0.3261l0.0177,0.0231l0.0372,0.0528l0.0141,0.0223c0.0513,0.0791,0.0939,0.1629,0.1293,0.2496c0.5483,-0.6445,0.8478,-1.4515,0.8478,-2.3112C16,10.9991,15.6989,10.1904,15.1476,9.5451zM9.2775,10.3328c0.0647,0,0.1306,0.0043,0.1958,0.0127l0.0332,0.0045l0.0594,0.0099l0.0255,0.0055c0.1628,0.0336,0.3137,0.0925,0.4509,0.1706c0.4427,-0.7987,1.2628,-1.3306,2.1838,-1.3989c-0.0066,-0.0575,-0.0104,-0.1158,-0.0104,-0.175c0,-0.1175,0.0139,-0.2356,0.0412,-0.351c0.0272,-0.1148,0.0679,-0.2231,0.1183,-0.3251c-1.3704,0.0202,-2.6009,0.8248,-3.178,2.0489C9.2237,10.3335,9.2505,10.3328,9.2775,10.3328z" fill="#7B7B7B"/>
      <path d="M13.7402,16c-0.5549,0,-1.0514,-0.3701,-1.2075,-0.9l-0.007,-0.024l-0.013,-0.0512l-0.0037,-0.0186c-0.0182,-0.0857,-0.0274,-0.1735,-0.0274,-0.2611c0,-0.6919,0.5646,-1.2548,1.2587,-1.2548c0.3906,0,0.7653,0.1854,1.0022,0.496l0.0146,0.0191l0.0305,0.0433l0.0107,0.0168c0.1313,0.2026,0.2007,0.4375,0.2007,0.6795C14.9989,15.4371,14.4343,16,13.7402,16zM9.2775,13.1085c-0.694,0,-1.2587,-0.5629,-1.2587,-1.2548s0.5646,-1.2548,1.2587,-1.2548c0.0533,0,0.1077,0.0035,0.1616,0.0105l0.0236,0.0031l0.053,0.0088l0.0191,0.0042c0.5896,0.1216,1.0014,0.6267,1.0014,1.2283c0,0.6183,-0.4438,1.139,-1.0552,1.2383C9.4132,13.1029,9.3447,13.1085,9.2775,13.1085zM13.7402,10.2169c-0.694,0,-1.2587,-0.5629,-1.2587,-1.2548c0,-0.0969,0.0115,-0.1943,0.0341,-0.2897c0.1348,-0.5682,0.6384,-0.9652,1.2246,-0.9652c0.694,0,1.2587,0.5629,1.2587,1.2548c0,0.247,-0.072,0.486,-0.2084,0.6912l-0.0135,0.0203l-0.031,0.043l-0.0121,0.0152C14.4968,10.0356,14.1253,10.2169,13.7402,10.2169z" fill="#6485C3"/>
    </g>
  </g>
</svg>
