<?xml version="1.0" encoding="UTF-8"?>
<!DOCTYPE svg PUBLIC "-//W3C//DTD SVG 1.1//EN" "http://www.w3.org/Graphics/SVG/1.1/DTD/svg11.dtd">
<svg version="1.1" id="Layer_1" xmlns="http://www.w3.org/2000/svg" xmlns:xlink="http://www.w3.org/1999/xlink" x="0px" y="0px" width="16px" height="16px" viewBox="0 0 16 16" enable-background="new 0 0 16 16" xml:space="preserve">
  <g id="main">
    <g id="icon">
      <path d="M2,13L6.948,13L7.076,12.76L7.149,12.63L7.109,12.59L11.83,7.905L11.82,7.895L12,7.719L12,4L2,4zM9.3,7.7L9.3,9.3L4.8,9.3L4.8,7.7zz" fill="#FFFFFF" opacity="0.4"/>
      <path d="M1,14L6.419,14L6.948,13L2,13L2,3.5L1,3.5zM12,7.719L13,6.736L13,3.5L12,3.5zM5.198,7.03L4.917,7.118L4.662,7.256L4.44,7.44L4.256,7.662L4.118,7.917L4.03,8.198L4,8.5L4.03,8.802L4.118,9.083L4.256,9.338L4.44,9.56L4.662,9.744L4.917,9.882L5.198,9.97L5.5,10L8.5,10L8.802,9.97L9.083,9.882L9.338,9.744L9.56,9.56L9.744,9.338L9.882,9.083L9.97,8.802L10,8.5L9.97,8.198L9.882,7.917L9.744,7.662L9.56,7.44L9.338,7.256L9.083,7.118L8.802,7.03L8.5,7L5.5,7zM8.5,8L8.695,8.039L8.853,8.147L8.961,8.305L9,8.5L8.961,8.695L8.853,8.853L8.695,8.961L8.5,9L5.5,9L5.305,8.961L5.147,8.853L5.039,8.695L5,8.5L5.039,8.305L5.147,8.147L5.305,8.039L5.5,8zM12.32,14L13,14L13,13.32zz" fill="#6D6E71"/>
      <path d="M0,4L14,4L14,0L0,0zz" fill="#52B4C0"/>
    </g>
    <g id="overlay">
      <path d="M7.4441,16c-0.0956,0,-0.1856,-0.0372,-0.2533,-0.1046l-0.0845,-0.0841c-0.1126,-0.112,-0.1384,-0.2814,-0.0643,-0.4217l1.0949,-2.0706c0.0622,-0.1177,0.1838,-0.1909,0.3173,-0.1909c0.0142,0,0.0284,0.0008,0.0426,0.0025l0.1046,0.0127l1.2774,1.2749l0.0052,0.1181c0.0062,0.1385,-0.0691,0.2696,-0.192,0.3338L7.6105,15.959C7.5591,15.9859,7.5016,16,7.4441,16zM8.8103,12.5957l4.3423,-4.3116l1.6055,1.6022l-4.3423,4.3117L8.8103,12.5957zM13.5267,7.9013l0.68,-0.6683c0.1551,-0.1543,0.3262,-0.233,0.5078,-0.233c0.1815,0,0.3528,0.0788,0.5091,0.2342l0.5485,0.5456c0.1469,0.1463,0.2279,0.3407,0.2279,0.5476c0,0.2069,-0.0809,0.4014,-0.2279,0.5476l-0.6358,0.6328L13.5267,7.9013z" fill="#6485C3"/>
    </g>
  </g>
</svg>
