<?xml version="1.0" encoding="UTF-8"?>
<!DOCTYPE svg PUBLIC "-//W3C//DTD SVG 1.1//EN" "http://www.w3.org/Graphics/SVG/1.1/DTD/svg11.dtd">
<svg version="1.1" id="Layer_1" xmlns="http://www.w3.org/2000/svg" xmlns:xlink="http://www.w3.org/1999/xlink" x="0px" y="0px" width="16px" height="16px" viewBox="0 0 16 16" enable-background="new 0 0 16 16" xml:space="preserve">
  <g id="icon">
    <path d="M2,5v9h12V5H2zM10.3,10.3H5.8V8.7h4.5V10.3z" fill="#FFFFFF" opacity="0.4"/>
    <path d="M15,15H1V4.5h1v9.5h12V4.5h1V15zM9.5,11H6.5c-0.8271,0,-1.5,-0.6729,-1.5,-1.5s0.6729,-1.5,1.5,-1.5h3c0.8271,0,1.5,0.6729,1.5,1.5S10.3271,11,9.5,11zM6.5,9c-0.2757,0,-0.5,0.2243,-0.5,0.5s0.2243,0.5,0.5,0.5h3c0.2757,0,0.5,-0.2243,0.5,-0.5s-0.2243,-0.5,-0.5,-0.5H6.5z" fill="#6D6E71"/>
    <rect y="1" width="16" height="4" fill="#52B4C0"/>
  </g>
</svg>
