<?xml version="1.0" encoding="UTF-8"?>
<!DOCTYPE svg PUBLIC "-//W3C//DTD SVG 1.1//EN" "http://www.w3.org/Graphics/SVG/1.1/DTD/svg11.dtd">
<svg version="1.1" id="Layer_1" xmlns="http://www.w3.org/2000/svg" xmlns:xlink="http://www.w3.org/1999/xlink" x="0px" y="0px" width="24px" height="24px" viewBox="0 0 24 24" enable-background="new 0 0 24 24" xml:space="preserve">
  <g id="icon">
    <polygon points="17,3 17,5 20,5 20,22 4,22 4,5 7,5 7,3 2,3 2,24 22,24 22,3" fill="#7B7B7B" stroke-linejoin="miter"/>
    <rect x="4" y="5" width="16" height="17" fill="#FFFFFF" opacity="0.5"/>
    <path d="M14.0852,2.5c0,-0.8216,-0.6472,-1.974,-2.0622,-1.974S9.9607,1.6784,9.9607,2.5H7.5v3h9V2.5H14.0852z" fill="#B7B7B7" opacity="0.5"/>
    <path d="M17,6H7V2h2.5269c0.2643,-1.0126,1.0982,-1.974,2.4961,-1.974S14.2548,0.9874,14.519,2H17V6zM8,5h8V3h-2.4v-0.5c0,-0.5144,-0.402,-1.474,-1.55,-1.474S10.5,1.9856,10.5,2.5v0.5H8V5z" fill="#7B7B7B"/>
    <polygon points="5.4212,14.1426 7.1324,12.4108 10.5147,15.7529 16.8854,9.4337 18.6,11.1622 10.5179,19.1789" fill="#CB525D" stroke-linejoin="miter"/>
  </g>
</svg>
