<?xml version="1.0" encoding="UTF-8"?>
<!DOCTYPE svg PUBLIC "-//W3C//DTD SVG 1.1//EN" "http://www.w3.org/Graphics/SVG/1.1/DTD/svg11.dtd">
<svg version="1.1" id="Layer_1" xmlns="http://www.w3.org/2000/svg" xmlns:xlink="http://www.w3.org/1999/xlink" x="0px" y="0px" width="16px" height="16px" viewBox="0 0 16 16" enable-background="new 0 0 16 16" xml:space="preserve">
  <g id="main">
    <g id="icon">
      <path d="M10.48,3.316L8.982,4.171L8.817,4.337L8.762,4.55L8.817,4.763L8.982,4.929L10.48,5.784L8.568,9.057L7.053,8.191L6.828,8.133L6.617,8.193L6.461,8.346L6.4,8.57L6.4,10.2L4.7,10.2L3.5,10.2L3.5,15.5L14.5,15.5L14.5,4.5L12.5,4.5L11.2,4.5L11.01,4.5L10.97,4.101L10.85,3.729L10.67,3.393L10.43,3.1L10.28,2.982zz" fill="#FFFFFF" opacity="0.5"/>
      <path d="M11.01,4.039L10.85,4.146L10.74,4.305L10.7,4.5L10.74,4.695L10.85,4.854L11.01,4.961L11.2,5L14,5L14,15L4,15L4,10.2L3,10.2L3,16L15,16L15,4L11.2,4zz" fill="#6D6E71"/>
      <path d="M8.982,4.171L8.817,4.337L8.762,4.55L8.817,4.763L8.982,4.929L10.48,5.784L10.09,6.45L12.5,6.45L12.5,4.483L10.89,4.483L10.86,4.213L10.75,3.904L10.58,3.579L10.42,3.352zz" fill="#B7B7B7" opacity="0.4"/>
      <path d="M10.48,3.316L10.13,3.517L10.26,3.673L10.39,3.924L10.48,4.202L10.51,4.5L10.51,5L12,5L12,6L10.35,6L9.768,7L13,7L13,4L11.46,4L11.34,3.591L11.15,3.214L10.9,2.878L10.6,2.587L10.26,2.349L9.874,2.171L9.797,2.15zz" fill="#6D6E71"/>
      <path d="M8.16,11.69L6.4,9.952L6.4,10.2L5.383,10.2L4.921,10.67L8.162,13.87L13.3,8.772L12.21,7.673zz" fill="#CB525D"/>
    </g>
    <g id="overlay">
      <polygon points="3.8,9 3.8,5.7501 0.8689,7.425 0.1689,6.225 3.1,4.55 0.1689,2.875 0.8689,1.675 3.8,3.3499 3.8,0 5.2,0 5.2,3.3499 8.1311,1.675 8.8311,2.875 5.9,4.55 8.8311,6.225 8.1311,7.425 5.2,5.7501 5.2,9" fill="#EEAC55" stroke-linejoin="miter"/>
    </g>
  </g>
</svg>
