<?xml version="1.0" encoding="UTF-8"?>
<!DOCTYPE svg PUBLIC "-//W3C//DTD SVG 1.1//EN" "http://www.w3.org/Graphics/SVG/1.1/DTD/svg11.dtd">
<svg version="1.1" id="Layer_1" xmlns="http://www.w3.org/2000/svg" xmlns:xlink="http://www.w3.org/1999/xlink" x="0px" y="0px" width="16px" height="16px" viewBox="0 0 16 16" enable-background="new 0 0 16 16" xml:space="preserve">
  <g id="icon">
    <path d="M8,0.5c4.1421,0,7.5,3.3579,7.5,7.5s-3.3579,7.5,-7.5,7.5S0.5,12.1421,0.5,8S3.8579,0.5,8,0.5z" fill="#FFFFFF" opacity="0.5"/>
    <path d="M8,16c-4.4112,0,-8,-3.5888,-8,-8S3.5888,0,8,0s8,3.5888,8,8S12.4112,16,8,16zM8,1.3137c-3.6868,0,-6.6863,2.9995,-6.6863,6.6863S4.3132,14.6863,8,14.6863S14.6863,11.6868,14.6863,8S11.6868,1.3137,8,1.3137z" fill="#CB525D"/>
    <path d="M12,12H9V4h3V12zM10,11h1V5h-1V11zM7,12H4V4h3V12zM5,11h1V5H5V11z" fill="#CB525D"/>
  </g>
</svg>
