<?xml version="1.0" encoding="UTF-8"?>
<!DOCTYPE svg PUBLIC "-//W3C//DTD SVG 1.1//EN" "http://www.w3.org/Graphics/SVG/1.1/DTD/svg11.dtd">
<svg version="1.1" id="Layer_1" xmlns="http://www.w3.org/2000/svg" xmlns:xlink="http://www.w3.org/1999/xlink" x="0px" y="0px" width="16px" height="16px" viewBox="0 0 16 16" enable-background="new 0 0 16 16" xml:space="preserve">
  <g id="main">
    <g id="icon">
      <path d="M6.616,0.5602L6.242,0.6756L5.904,0.8582L5.609,1.1L5.365,1.393L5.182,1.729L5.065,2.101L5.025,2.5L4.3,2.5L3.5,2.5L1.5,2.5L1.5,13.5L8.504,13.5L8.978,13.01L9.165,12.77L9.3,12.51L9.381,12.23L9.41,11.95L9.385,11.66L9.308,11.39L9.177,11.12L8.993,10.89L7.722,9.529L7.722,6.812L12.5,6.812L12.5,2.5L10.5,2.5L9.2,2.5L9.011,2.5L8.97,2.101L8.854,1.729L8.67,1.393L8.427,1.1L8.132,0.8582L7.794,0.6756L7.42,0.5602L7.018,0.5199zz" fill="#FFFFFF" opacity="0.5"/>
      <path d="M1,14L8.023,14L8.978,13.01L8.985,13L2,13L2,3L4.3,3L4.495,2.961L4.654,2.854L4.761,2.695L4.8,2.5L4.761,2.305L4.654,2.146L4.495,2.039L4.3,2L1,2zM9.005,2.039L8.846,2.146L8.739,2.305L8.7,2.5L8.739,2.695L8.846,2.854L9.005,2.961L9.2,3L12,3L12,6.812L13,6.812L13,2L9.2,2zz" fill="#6D6E71"/>
      <path d="M6.565,0.5836L6.196,0.7406L5.868,0.9744L5.586,1.262L5.356,1.579L5.185,1.904L5.078,2.213L5.041,2.483L3.4,2.483L3.4,4.45L10.5,4.45L10.5,2.483L8.895,2.483L8.858,2.213L8.751,1.904L8.58,1.579L8.35,1.262L8.068,0.9744L7.74,0.7406L7.371,0.5836L6.968,0.526zz" fill="#B7B7B7" opacity="0.4"/>
      <path d="M6.577,0.05879L6.162,0.1707L5.778,0.3488L5.433,0.5867L5.134,0.8775L4.887,1.214L4.698,1.591L4.576,2L3,2L3,5L11,5L11,2L9.46,2L9.337,1.591L9.149,1.214L8.902,0.8775L8.602,0.5867L8.257,0.3488L7.874,0.1707L7.459,0.05879L7.018,0.01992zM7.318,1.05L7.598,1.137L7.852,1.273L8.073,1.454L8.255,1.673L8.393,1.924L8.48,2.202L8.511,2.5L8.511,3L10,3L10,4L4,4L4,3L5.525,3L5.525,2.5L5.555,2.202L5.643,1.924L5.78,1.673L5.963,1.454L6.184,1.273L6.437,1.137L6.717,1.05L7.018,1.02zz" fill="#6D6E71"/>
      <path d="M9.061,6.812L11.26,6.812L11.3,6.772L10.21,5.673zM2.921,8.667L6.162,11.87L8.107,9.939L7.722,9.529L7.722,8.141L6.16,9.691L4.009,7.566zz" fill="#CB525D"/>
    </g>
    <g id="overlay">
      <path d="M8.9,16v-1.1811l2.7497,-2.8539L8.9224,9.0547V8.0125h6.6838l0.0507,0.5794c0.0017,0.0196,0.0107,0.0706,0.0193,0.1199c0.0264,0.1505,0.0663,0.378,0.1062,0.7764l0.0367,0.3663l-1.3504,0.1171l-0.0367,-0.3663c-0.0131,-0.131,-0.0261,-0.2399,-0.0382,-0.393h-3.5179l2.5587,2.7833l-2.6417,2.8048h3.5728l0.3277,-1.1581L16,13.9797L15.3965,16H8.9z" fill="#6485C3"/>
    </g>
  </g>
</svg>
