<?xml version="1.0" encoding="UTF-8"?>
<!DOCTYPE svg PUBLIC "-//W3C//DTD SVG 1.1//EN" "http://www.w3.org/Graphics/SVG/1.1/DTD/svg11.dtd">
<svg version="1.1" id="Layer_1" xmlns="http://www.w3.org/2000/svg" xmlns:xlink="http://www.w3.org/1999/xlink" x="0px" y="0px" width="16px" height="16px" viewBox="0 0 16 16" enable-background="new 0 0 16 16" xml:space="preserve">
  <g id="icon">
    <path d="M4.8443,15.5062c-0.6547,0,-1.2672,-0.2916,-1.6807,-0.8002c-0.4065,-0.5,-0.5647,-1.1459,-0.4341,-1.7722c0.3522,-1.6892,1.8364,-3.8373,3.62,-4.3624c0.2967,-0.0913,0.4879,-0.3207,0.486,-0.5839c-0.0019,-0.2578,-0.1881,-0.472,-0.486,-0.559c-1.7838,-0.5251,-3.2678,-2.6732,-3.62,-4.3624c-0.1306,-0.6263,0.0276,-1.2723,0.4341,-1.7723c0.4134,-0.5085,1.026,-0.8001,1.6807,-0.8001h6.365c0.6523,0,1.2616,0.2908,1.6716,0.7977c0.4139,0.5118,0.572,1.1759,0.4338,1.822c-0.3571,1.6693,-1.8388,3.7936,-3.6098,4.3149c-0.2981,0.087,-0.4843,0.3012,-0.4862,0.559c-0.0019,0.2632,0.1893,0.4926,0.4872,0.5842c1.7825,0.5246,3.2666,2.6728,3.6188,4.362c0.1306,0.6263,-0.0276,1.2722,-0.4341,1.7722c-0.4134,0.5085,-1.026,0.8002,-1.6807,0.8002H4.8443z" fill="#FFFFFF" opacity="0.5"/>
    <path d="M4.8443,16c-0.804,0,-1.5562,-0.3581,-2.0638,-0.9824c-0.5007,-0.6158,-0.6955,-1.4121,-0.5344,-2.1846c0.3812,-1.8284,2.0051,-4.1588,3.964,-4.7353c0.0966,-0.0298,0.1318,-0.0801,0.1316,-0.1065c-0.0001,-0.0196,-0.0357,-0.0609,-0.1305,-0.0886c-1.9597,-0.5769,-3.5839,-2.9073,-3.965,-4.7356c-0.1611,-0.7725,0.0337,-1.5688,0.5344,-2.1846C3.2881,0.3581,4.0403,0,4.8443,0h6.365c0.8022,0,1.5514,0.3575,2.0556,0.981c0.5081,0.6283,0.7023,1.4432,0.5327,2.2359c-0.3867,1.8075,-2.0081,4.1128,-3.9533,4.6853c-0.0959,0.028,-0.1317,0.0693,-0.1318,0.0889c-0.0002,0.0229,0.0285,0.0748,0.1386,0.1087c1.9541,0.5751,3.5758,2.9048,3.957,4.7332c0.1611,0.7725,-0.0337,1.5687,-0.5344,2.1846c-0.5076,0.6244,-1.2598,0.9824,-2.0638,0.9824H4.8443zM4.8443,1.1852c-0.4457,0,-0.8627,0.1986,-1.1442,0.5449c-0.2746,0.3378,-0.3817,0.7733,-0.2938,1.195c0.3128,1.5005,1.6485,3.4017,3.1382,3.8402c0.5925,0.1729,0.9782,0.6508,0.9823,1.2173c0.0042,0.5758,-0.3786,1.0664,-0.9752,1.25c-1.4944,0.4399,-2.8325,2.3418,-3.1454,3.8424c-0.0879,0.4217,0.0192,0.8573,0.2938,1.195c0.2815,0.3463,0.6985,0.5449,1.1442,0.5449h6.3655c0.4457,0,0.8627,-0.1986,1.1442,-0.5449c0.2746,-0.3378,0.3817,-0.7733,0.2938,-1.195c-0.3129,-1.5005,-1.6486,-3.4018,-3.1384,-3.8402c-0.6013,-0.185,-0.9864,-0.6764,-0.9822,-1.2521c0.0041,-0.5665,0.3902,-1.0444,0.9837,-1.2176c1.4781,-0.4351,2.8106,-2.314,3.1277,-3.7959c0.0943,-0.4411,-0.0133,-0.894,-0.2952,-1.2427c-0.2781,-0.3439,-0.6915,-0.5411,-1.1341,-0.5411H4.8443z" fill="#6D6E71"/>
    <path d="M5.1547,4.3774C5.0443,4.2181,5.1607,4,5.3546,4h5.3476c0.194,0,0.3104,0.2184,0.1997,0.3777c-0.4663,0.6713,-1.0788,1.2439,-1.6771,1.42c-0.4839,0.1412,-0.8934,0.4151,-1.1899,0.7727c-0.0042,0.0051,-0.0117,0.0051,-0.0159,0c-0.297,-0.3577,-0.7075,-0.632,-1.1931,-0.7737C6.2299,5.6213,5.6204,5.05,5.1547,4.3774z" fill="#EEAC55"/>
    <path d="M8,10.4l-2.8456,3.1043C4.9805,13.694,5.1151,14,5.3725,14h5.255c0.2574,0,0.392,-0.306,0.2181,-0.4957L8,10.4z" fill="#EEAC55"/>
  </g>
</svg>
