<?xml version="1.0" encoding="UTF-8"?>
<!DOCTYPE svg PUBLIC "-//W3C//DTD SVG 1.1//EN" "http://www.w3.org/Graphics/SVG/1.1/DTD/svg11.dtd">
<svg version="1.1" id="Layer_1" xmlns="http://www.w3.org/2000/svg" xmlns:xlink="http://www.w3.org/1999/xlink" x="0px" y="0px" width="16px" height="16px" viewBox="0 0 16 16" enable-background="new 0 0 16 16" xml:space="preserve">
  <g id="main">
    <g id="icon">
      <path d="M6.616,0.5602L6.242,0.6756L5.904,0.8582L5.609,1.1L5.365,1.393L5.182,1.729L5.065,2.101L5.025,2.5L4.3,2.5L3.5,2.5L1.5,2.5L1.5,13.5L6.166,13.5L6.145,13.45L5.956,12.83L5.84,12.18L5.8,11.5L5.829,10.92L5.916,10.35L6.057,9.807L6.249,9.283L6.489,8.785L6.775,8.315L7.103,7.876L7.471,7.471L7.876,7.103L8.315,6.775L8.785,6.489L9.283,6.249L9.807,6.057L10.35,5.916L10.92,5.829L11.5,5.8L12.18,5.84L12.5,5.898L12.5,2.5L10.5,2.5L9.2,2.5L9.011,2.5L8.97,2.101L8.854,1.729L8.67,1.393L8.427,1.1L8.132,0.8582L7.794,0.6756L7.42,0.5602L7.018,0.5199zz" fill="#FFFFFF" opacity="0.5"/>
      <path d="M1,14L6.382,14L6.145,13.45L6.008,13L2,13L2,3L4.3,3L4.495,2.961L4.654,2.854L4.761,2.695L4.8,2.5L4.761,2.305L4.654,2.146L4.495,2.039L4.3,2L1,2zM9.005,2.039L8.846,2.146L8.739,2.305L8.7,2.5L8.739,2.695L8.846,2.854L9.005,2.961L9.2,3L12,3L12,5.829L12.18,5.84L12.83,5.956L13,6.008L13,2L9.2,2zz" fill="#6D6E71"/>
      <path d="M6.565,0.5836L6.196,0.7406L5.868,0.9744L5.586,1.262L5.356,1.579L5.185,1.904L5.078,2.213L5.041,2.483L3.4,2.483L3.4,4.45L10.5,4.45L10.5,2.483L8.895,2.483L8.858,2.213L8.751,1.904L8.58,1.579L8.35,1.262L8.068,0.9744L7.74,0.7406L7.371,0.5836L6.968,0.526zz" fill="#B7B7B7" opacity="0.4"/>
      <path d="M6.577,0.05879L6.162,0.1707L5.778,0.3488L5.433,0.5867L5.134,0.8775L4.887,1.214L4.698,1.591L4.576,2L3,2L3,5L11,5L11,2L9.46,2L9.337,1.591L9.149,1.214L8.902,0.8775L8.602,0.5867L8.257,0.3488L7.874,0.1707L7.459,0.05879L7.018,0.01992zM7.318,1.05L7.598,1.137L7.852,1.273L8.073,1.454L8.255,1.673L8.393,1.924L8.48,2.202L8.511,2.5L8.511,3L10,3L10,4L4,4L4,3L5.525,3L5.525,2.5L5.555,2.202L5.643,1.924L5.78,1.673L5.963,1.454L6.184,1.273L6.437,1.137L6.717,1.05L7.018,1.02zz" fill="#6D6E71"/>
      <path d="M9.829,6.051L10.35,5.916L10.44,5.903L10.21,5.673zM2.921,8.667L5.801,11.51L5.8,11.5L5.829,10.92L5.916,10.35L6.057,9.807L6.115,9.647L4.009,7.566zz" fill="#B7B7B7"/>
    </g>
    <g id="overlay">
      <path d="M11.5,7c-2.4853,0,-4.5,2.0147,-4.5,4.5s2.0147,4.5,4.5,4.5c2.4853,0,4.5,-2.0147,4.5,-4.5S13.9853,7,11.5,7zM10.7004,14.1607l-2.4222,-2.4221l1,-1l1.4214,1.4214l2.9821,-2.9071l1.0001,1.0001L10.7004,14.1607z" fill="#B7B7B7"/>
      <polygon points="8.2782,11.7386 9.2783,10.7385 10.6997,12.1599 13.6817,9.2528 14.6819,10.2529 10.7004,14.1607" fill="#FFFFFF" stroke-linejoin="miter"/>
    </g>
  </g>
</svg>
