<?xml version="1.0" encoding="UTF-8"?>
<!DOCTYPE svg PUBLIC "-//W3C//DTD SVG 1.1//EN" "http://www.w3.org/Graphics/SVG/1.1/DTD/svg11.dtd">
<svg version="1.1" id="Layer_1" xmlns="http://www.w3.org/2000/svg" xmlns:xlink="http://www.w3.org/1999/xlink" x="0px" y="0px" width="16px" height="16px" viewBox="0 0 16 16" enable-background="new 0 0 16 16" xml:space="preserve">
  <g id="main">
    <g id="icon">
      <path d="M0.5,13.5L7.029,13.5L6.932,13.17L6.834,12.59L6.8,12L6.827,11.47L6.906,10.95L7.034,10.46L7.209,9.978L7.689,9.095L8.325,8.325L9.095,7.689L9.978,7.209L10.46,7.034L10.95,6.906L11.47,6.827L12,6.8L12.59,6.834L13.17,6.932L13.5,7.029L13.5,3.5L0.5,3.5zz" fill="#FFFFFF" opacity="0.4"/>
      <path d="M0,14L7.209,14L7.092,13.72L6.932,13.17L6.904,13L1,13L1,4L13,4L13,6.904L13.17,6.932L13.72,7.092L14,7.209L14,3L0,3zz" fill="#6D6E71"/>
      <path d="M3,2L4,2L4,0L3,0zM10,2L11,2L11,0L10,0zz" fill="#6D6E71"/>
      <path d="M5,7L2,7L2,12L6.8,12L6.827,11.47L6.899,11L6,11L6,10L7.201,10L7.209,9.978L7.689,9.095L7.767,9L6,9L6,8L8,8L8,8.718L8.325,8.325L9.095,7.689L9.978,7.209L10.46,7.034L10.59,7L9,7L9,6L11,6L11,6.899L11.47,6.827L12,6.8L12,5L5,5zM8,6L8,7L6,7L6,6zM5,8L5,9L3,9L3,8zM5,10L5,11L3,11L3,10zz" fill="#7B7B7B"/>
      <path d="M0,4L14,4L14,0L12,0L12,2L9,2L9,0L5,0L5,2L2,2L2,0L0,0zz" fill="#B7B7B7"/>
    </g>
    <g id="overlay">
      <path d="M12,8c-2.2056,0,-4,1.7944,-4,4s1.7944,4,4,4s4,-1.7944,4,-4S14.2056,8,12,8zM13.6692,10.5947c0,0.2661,-0.0602,0.5341,-0.1739,0.7751l-1.6414,3.4564l-0.7485,-0.3555l1.641,-3.4556c0.0616,-0.1304,0.0942,-0.2758,0.0942,-0.4204v-0.1804h-2.3533v-0.8286h3.1818V10.5947z" fill="#B7B7B7"/>
      <path d="M11.1054,14.4707l1.641,-3.4556c0.0616,-0.1304,0.0942,-0.2758,0.0942,-0.4204v-0.1804h-2.3533v-0.8286h3.1818v1.009c0,0.2661,-0.0602,0.5341,-0.1739,0.7751l-1.6414,3.4564L11.1054,14.4707z" fill="#FFFFFF" opacity="0.5"/>
    </g>
  </g>
</svg>
