<?xml version="1.0" encoding="UTF-8"?>
<!DOCTYPE svg PUBLIC "-//W3C//DTD SVG 1.1//EN" "http://www.w3.org/Graphics/SVG/1.1/DTD/svg11.dtd">
<svg version="1.1" id="Layer_1" xmlns="http://www.w3.org/2000/svg" xmlns:xlink="http://www.w3.org/1999/xlink" x="0px" y="0px" width="16px" height="16px" viewBox="0 0 16 16" enable-background="new 0 0 16 16" xml:space="preserve">
  <g id="main">
    <g id="icon">
      <path d="M3.111,2.579L2.793,2.793L2.579,3.111L2.5,3.5L2.5,4.5L2.579,4.889L2.793,5.207L3.111,5.421L3.5,5.5L3.5,11.5L3.541,11.9L3.657,12.28L3.842,12.62L4.086,12.91L4.382,13.16L4.721,13.34L5.097,13.46L5.5,13.5L6.378,13.5L6.368,13.48L6.167,12.85L6.043,12.19L6,11.5L6.029,10.94L6.112,10.39L6.248,9.866L6.433,9.361L6.665,8.88L6.941,8.427L7.257,8.004L7.613,7.613L8.004,7.257L8.427,6.941L8.88,6.665L9.361,6.433L9.866,6.248L10.39,6.112L10.94,6.029L11.5,6L12.19,6.043L12.85,6.167L13.48,6.368L13.5,6.378L13.5,5.5L13.89,5.421L14.21,5.207L14.42,4.889L14.5,4.5L14.5,3.5L14.42,3.111L14.21,2.793L13.89,2.579L13.5,2.5L3.5,2.5zz" fill="#262626"/>
      <path d="M3.198,2.03L2.917,2.118L2.662,2.256L2.44,2.44L2.256,2.662L2.118,2.917L2.03,3.198L2,3.5L2,4.5L2.03,4.802L2.118,5.083L2.256,5.338L2.44,5.56L2.662,5.744L2.917,5.882L3.198,5.97L3.5,6L11.5,6L13.5,6L13.8,5.97L14.08,5.882L14.34,5.744L14.56,5.56L14.74,5.338L14.88,5.083L14.97,4.802L15,4.5L15,3.5L14.97,3.198L14.88,2.917L14.74,2.662L14.56,2.44L14.34,2.256L14.08,2.118L13.8,2.03L13.5,2L3.5,2zM13.5,3L13.69,3.039L13.85,3.147L13.96,3.305L14,3.5L14,4.5L13.96,4.695L13.85,4.853L13.69,4.961L13.5,5L3.5,5L3.305,4.961L3.147,4.853L3.039,4.695L3,4.5L3,3.5L3.039,3.305L3.147,3.147L3.305,3.039L3.5,3zz" fill="#d4d4d4"/>
      <path d="M3,11.5L3.051,12L3.197,12.47L3.428,12.9L3.733,13.27L4.103,13.57L4.528,13.8L4.997,13.95L5.5,14L6.607,14L6.368,13.48L6.216,13L5.5,13L5.198,12.97L4.917,12.88L4.662,12.74L4.44,12.56L4.256,12.34L4.118,12.08L4.03,11.8L4,11.5L4,6L11.5,6L13,6L13,6.216L13.48,6.368L14,6.607L14,5L3,5zz" fill="#d4d4d4"/>
      <path d="M6.305,8.039L6.146,8.146L6.039,8.305L6,8.5L6.039,8.695L6.146,8.854L6.305,8.961L6.5,9L6.607,9L6.665,8.88L6.941,8.427L7.257,8.004L7.261,8L6.5,8zz" fill="#d4d4d4"/>
    </g>
    <g id="overlay">
      <circle cx="11.5" cy="11.5" r="4" id="b" fill="#171717"/>
      <path d="M11.5,7c-2.4853,0,-4.5,2.0147,-4.5,4.5c0,2.4853,2.0147,4.5,4.5,4.5c2.4853,0,4.5,-2.0147,4.5,-4.5C16,9.0147,13.9853,7,11.5,7zM11.5,15c-1.933,0,-3.5,-1.567,-3.5,-3.5s1.567,-3.5,3.5,-3.5s3.5,1.567,3.5,3.5S13.433,15,11.5,15z" id="c3" fill="#6ee7b7"/>
      <path d="M13.5,11h-1.5V9.5c0,-0.2761,-0.2239,-0.5,-0.5,-0.5s-0.5,0.2239,-0.5,0.5v1.5H9.5c-0.2761,0,-0.5,0.2239,-0.5,0.5s0.2239,0.5,0.5,0.5h1.5v1.5c0,0.2761,0.2239,0.5,0.5,0.5s0.5,-0.2239,0.5,-0.5v-1.5h1.5c0.2761,0,0.5,-0.2239,0.5,-0.5S13.7761,11,13.5,11z" id="c3" fill="#6ee7b7"/>
    </g>
  </g>
</svg>
