<?xml version="1.0" encoding="UTF-8"?>
<!DOCTYPE svg PUBLIC "-//W3C//DTD SVG 1.1//EN" "http://www.w3.org/Graphics/SVG/1.1/DTD/svg11.dtd">
<svg version="1.1" id="Layer_1" xmlns="http://www.w3.org/2000/svg" xmlns:xlink="http://www.w3.org/1999/xlink" x="0px" y="0px" width="16px" height="16px" viewBox="0 0 16 16" enable-background="new 0 0 16 16" xml:space="preserve">
  <g id="main">
    <g id="icon">
      <path d="M3.111,2.579L2.793,2.793L2.579,3.111L2.5,3.5L2.5,4.5L2.579,4.889L2.793,5.207L3.111,5.421L3.5,5.5L3.5,11.5L3.541,11.9L3.657,12.28L3.842,12.62L4.086,12.91L4.382,13.16L4.721,13.34L5.097,13.46L5.5,13.5L6.592,13.5L6.744,13.04L6.972,12.56L7.305,12.14L12.71,6.737L13.09,6.421L13.5,6.202L13.5,5.5L13.89,5.421L14.21,5.207L14.42,4.889L14.5,4.5L14.5,3.5L14.42,3.111L14.21,2.793L13.89,2.579L13.5,2.5L3.5,2.5zz" fill="#262626"/>
      <path d="M3.198,2.03L2.917,2.118L2.662,2.256L2.44,2.44L2.256,2.662L2.118,2.917L2.03,3.198L2,3.5L2,4.5L2.03,4.802L2.118,5.083L2.256,5.338L2.44,5.56L2.662,5.744L2.917,5.882L3.198,5.97L3.5,6L13.5,6L13.8,5.97L14.08,5.882L14.34,5.744L14.56,5.56L14.74,5.338L14.88,5.083L14.97,4.802L15,4.5L15,3.5L14.97,3.198L14.88,2.917L14.74,2.662L14.56,2.44L14.34,2.256L14.08,2.118L13.8,2.03L13.5,2L3.5,2zM13.5,3L13.69,3.039L13.85,3.147L13.96,3.305L14,3.5L14,4.5L13.96,4.695L13.85,4.853L13.69,4.961L13.5,5L3.5,5L3.305,4.961L3.147,4.853L3.039,4.695L3,4.5L3,3.5L3.039,3.305L3.147,3.147L3.305,3.039L3.5,3zz" fill="#d4d4d4"/>
      <path d="M3,11.5L3.051,12L3.197,12.47L3.428,12.9L3.733,13.27L4.103,13.57L4.528,13.8L4.997,13.95L5.5,14L6.426,14L6.744,13.04L6.765,13L5.5,13L5.198,12.97L4.917,12.88L4.662,12.74L4.44,12.56L4.256,12.34L4.118,12.08L4.03,11.8L4,11.5L4,6L13,6L13,6.495L13.09,6.421L13.52,6.19L13.99,6.048L14,6.047L14,5L3,5zz" fill="#d4d4d4"/>
      <path d="M6.305,8.039L6.146,8.146L6.039,8.305L6,8.5L6.039,8.695L6.146,8.854L6.305,8.961L6.5,9L10.44,9L10.99,8.452L10.96,8.305L10.85,8.146L10.69,8.039L10.5,8L6.5,8zz" fill="#d4d4d4"/>
    </g>
    <g id="overlay">
      <path d="M7.4834,15.5167l0.6679,-2.003c0.041,-0.1229,0.111,-0.2363,0.2027,-0.3279l5.4004,-5.4c0.1951,-0.1951,0.4545,-0.3025,0.7303,-0.3025c0.2759,0,0.5352,0.1074,0.7303,0.3025c0.4027,0.4027,0.4026,1.0579,-0.0001,1.4606l-5.4003,5.3999c-0.0916,0.0916,-0.205,0.1616,-0.3279,0.2026l-2.003,0.6677l0.0001,0L7.4834,15.5167z" id="b" fill="#171717"/>
      <path d="M7.4837,16c-0.1291,0,-0.2505,-0.0503,-0.3418,-0.1416c-0.1303,-0.1303,-0.1751,-0.3198,-0.1167,-0.4946l0.6676,-2.003c0.0646,-0.1937,0.1751,-0.3724,0.3195,-0.5169l5.4004,-5.4c0.2864,-0.2863,0.6671,-0.444,1.0721,-0.444s0.7857,0.1577,1.072,0.444c0.5911,0.5912,0.5911,1.5531,0,2.1442l-5.4004,5.4c-0.1445,0.1444,-0.3232,0.2549,-0.5168,0.3194l-2.003,0.6676C7.5871,15.9916,7.5357,16,7.4837,16L7.4837,16zM14.4846,7.9666c-0.1467,0,-0.2847,0.0572,-0.3884,0.1609l-5.4004,5.4c-0.0388,0.0388,-0.0686,0.0869,-0.086,0.1391l-0.3619,1.0859l1.086,-0.362c0.0521,-0.0174,0.1001,-0.0471,0.139,-0.086l4.6074,-4.6074l0.0139,-0.0134l0.779,-0.7792c0.1038,-0.1038,0.161,-0.2417,0.161,-0.3885c0,-0.1468,-0.0572,-0.2847,-0.161,-0.3885C14.7693,8.0238,14.6313,7.9666,14.4846,7.9666z" fill="#06b6d4"/>
    </g>
  </g>
</svg>
