<?xml version="1.0" encoding="UTF-8"?>
<!DOCTYPE svg PUBLIC "-//W3C//DTD SVG 1.1//EN" "http://www.w3.org/Graphics/SVG/1.1/DTD/svg11.dtd">
<svg version="1.1" id="Layer_1" xmlns="http://www.w3.org/2000/svg" xmlns:xlink="http://www.w3.org/1999/xlink" x="0px" y="0px" width="16px" height="16px" viewBox="0 0 16 16" enable-background="new 0 0 16 16" xml:space="preserve">
  <g id="main">
    <g id="icon">
      <path d="M3.178,1.762L2.929,1.929L2.762,2.178L2.7,2.483L2.7,13.52L2.762,13.82L2.929,14.07L3.178,14.24L3.483,14.3L4.246,14.3L4.097,13.87L4,13L4.077,12.22L4.297,11.49L4.647,10.83L5.112,10.25L5.678,9.759L6.33,9.379L7.055,9.123L7.838,9.006L7.865,9.005L8.049,9L9.236,9L9.616,9.048L9.961,9.182L10.26,9.391L10.5,9.663L10.69,9.435L10.92,9.249L11.19,9.109L11.49,9.024L11.53,9.017L11.72,9L12.3,9L12.3,4.8L9.25,1.7L3.483,1.7zM10.42,11.48L10.58,11.48L10.5,11.37zz" fill="#404040"/>
      <path d="M3.597,1.041L3.221,1.157L2.882,1.342L2.586,1.586L2.342,1.882L2.157,2.221L2.041,2.597L2,3L2,13L2.041,13.4L2.157,13.78L2.342,14.12L2.586,14.41L2.882,14.66L3.221,14.84L3.597,14.96L4,15L4.573,15L4.374,14.67L4.142,14L4,14L3.611,13.92L3.293,13.71L3.079,13.39L3,13L3,3L3.079,2.611L3.293,2.293L3.611,2.079L4,2L8,2L8,4.5L8.03,4.802L8.118,5.084L8.256,5.339L8.439,5.561L8.661,5.744L8.916,5.882L9.198,5.97L9.5,6L12,6L12,9L12.94,9L13,9.007L13,5.414L12.97,5.12L12.89,4.84L12.75,4.582L12.56,4.354L9.646,1.439L9.418,1.252L9.16,1.114L8.88,1.029L8.586,1L4,1zM11.79,5L9.5,5L9.305,4.961L9.146,4.854L9.039,4.695L9,4.5L9,2.207zM10.5,14.63L10.58,14.52L10.42,14.52zz" fill="#d4d4d4"/>
    </g>
    <g id="overlay">
      <path d="M11.764,16c-0.2909,-0.0002,-0.5286,-0.2309,-0.5299,-0.5146c-0.0011,-0.2498,0.1806,-0.4644,0.4321,-0.5104l0.0953,-0.0093l1.1793,-0.0034c1.1019,0,1.9986,-0.8811,1.9986,-1.964c0,-1.0323,-0.8201,-1.8932,-1.8672,-1.9599l-0.1349,-0.0042l-1.1729,0.0001c-0.2924,0,-0.5303,-0.2319,-0.5303,-0.517c0,-0.2498,0.1828,-0.4637,0.4345,-0.5085l0.0952,-0.0088l1.1772,0.0004c1.6868,0,3.0591,1.3448,3.0591,2.9979c0,1.5925,-1.2692,2.9074,-2.8894,2.9935l-0.1647,0.0044L11.764,16zM8.0591,15.9962C6.3723,15.9962,5,14.6513,5,12.9983c0,-1.5926,1.2699,-2.9075,2.8911,-2.9935l0.1706,-0.0044l1.1739,0.0001c0.2924,0,0.5303,0.2319,0.5303,0.5169c0,0.2498,-0.1827,0.4637,-0.4345,0.5086l-0.0952,0.0088l-1.1772,-0.0004c-1.102,0,-1.9984,0.881,-1.9984,1.964c0,1.0323,0.8201,1.8932,1.8671,1.9599l0.135,0.0042l1.1729,-0.0001c0.2924,0,0.5303,0.2319,0.5303,0.517c0,0.2498,-0.1828,0.4637,-0.4345,0.5085l-0.091,0.0085H8.0591zM8.1461,13.5152c-0.1423,-0.0001,-0.2759,-0.0543,-0.3761,-0.1528c-0.0994,-0.0975,-0.154,-0.2269,-0.154,-0.3644c0.0001,-0.2498,0.183,-0.4635,0.4349,-0.5083l0.0951,-0.0088l4.7079,0.0023c0.1423,0,0.2759,0.0542,0.3762,0.1527c0.0993,0.0975,0.154,0.2269,0.1539,0.3644c-0.0001,0.2499,-0.183,0.4636,-0.4348,0.5084l-0.0909,0.0083L8.1461,13.5152z" id="c1" fill="#d4d4d4"/>
    </g>
  </g>
</svg>
