<?xml version="1.0" encoding="UTF-8"?>
<!DOCTYPE svg PUBLIC "-//W3C//DTD SVG 1.1//EN" "http://www.w3.org/Graphics/SVG/1.1/DTD/svg11.dtd">
<svg version="1.1" id="Layer_1" xmlns="http://www.w3.org/2000/svg" xmlns:xlink="http://www.w3.org/1999/xlink" x="0px" y="0px" width="16px" height="16px" viewBox="0 0 16 16" enable-background="new 0 0 16 16" xml:space="preserve">
  <g id="icon">
    <path d="M2.1058,7.2544c-0.8244,-0.4672,-0.8009,-0.8787,0.0437,-1.2401l11.4004,-4.1512c0.8091,-0.3215,0.912,-0.2107,0.5772,0.5649l-4.0876,11.3131c-0.363,0.9108,-0.7052,0.9279,-1.26,0.0501l-1.9124,-2.8651l-0.0054,0.0053l-0.7361,-1.1156l-1.0049,-0.6025l0.0013,-0.0013L2.1058,7.2544z" id="b" fill="#262626"/>
    <path d="M14.6223,1.3931c-0.3404,-0.3522,-0.8692,-0.1412,-1.2525,0.0119L1.9622,5.5788c-0.0049,0.0019,-0.0098,0.004,-0.0147,0.006c-0.2256,0.097,-0.9122,0.3921,-0.9462,1.0066c-0.0344,0.6208,0.6338,1.0012,0.8534,1.1262c0.0003,0.0001,0.0006,0.0003,0.0009,0.0005l2.9821,1.9461c0.0121,0.0083,0.0248,0.0161,0.0378,0.0233l0.8875,0.5393l0.6682,1.0033c0.0145,0.0249,0.0311,0.0481,0.0495,0.0696l1.8705,2.8076c0.0025,0.0042,0.005,0.0084,0.0076,0.0125c0.2758,0.4384,0.6212,0.8801,1.1034,0.8801c0.0245,0,0.0494,-0.0012,0.0746,-0.0035c0.5132,-0.0476,0.7813,-0.5638,0.9593,-1.0125l4.0871,-11.362C14.7437,2.2483,14.9582,1.7405,14.6223,1.3931zM9.5782,13.6215c-0.0577,0.1453,-0.1059,0.2422,-0.1426,0.306c-0.0558,-0.0629,-0.135,-0.1655,-0.2394,-0.3308l-1.9097,-2.8742c-0.0139,-0.0236,-0.0297,-0.0457,-0.0471,-0.0662l-0.5272,-0.7613l3.4898,-3.4344c0.1942,-0.1918,0.1969,-0.5054,0.0059,-0.7005c-0.1909,-0.195,-0.5032,-0.1977,-0.6974,-0.0059L5.9889,9.2198l-0.5985,-0.3781c-0.0104,-0.007,-0.0211,-0.0136,-0.0321,-0.0199L2.3401,6.8553c-0.1535,-0.0875,-0.2446,-0.1567,-0.2973,-0.2043c0.0539,-0.038,0.1429,-0.0904,0.2858,-0.1523l11.2943,-4.1294L9.5782,13.6215z" id="c1" fill="#d4d4d4"/>
  </g>
</svg>
