<?xml version="1.0" encoding="UTF-8"?>
<!DOCTYPE svg PUBLIC "-//W3C//DTD SVG 1.1//EN" "http://www.w3.org/Graphics/SVG/1.1/DTD/svg11.dtd">
<svg version="1.1" id="Layer_1" xmlns="http://www.w3.org/2000/svg" xmlns:xlink="http://www.w3.org/1999/xlink" x="0px" y="0px" width="16px" height="16px" viewBox="0 0 16 16" enable-background="new 0 0 16 16" xml:space="preserve">
  <g id="icon">
    <path d="M12.3,2.5h-2.1c0,-0.5523,-0.4477,-1,-1,-1H6.8c-0.5523,0,-1,0.4477,-1,1H3.7c-0.6627,0,-1.2,0.5373,-1.2,1.2v9.6c0,0.6627,0.5373,1.2,1.2,1.2h8.6c0.6627,0,1.2,-0.5373,1.2,-1.2V3.7C13.5,3.0373,12.9627,2.5,12.3,2.5z" id="b" fill="#262626"/>
    <path d="M12.3,2h-1.6875C10.4059,1.4184,9.8516,1,9.2,1H6.8c-0.6516,0,-1.2059,0.4184,-1.4125,1H3.7c-0.9374,0,-1.7,0.7626,-1.7,1.7v9.6c0,0.9374,0.7626,1.7,1.7,1.7h8.6c0.9374,0,1.7,-0.7626,1.7,-1.7V3.7C14,2.7626,13.2374,2,12.3,2zM6.8,2h2.4c0.2757,0,0.5,0.2243,0.5,0.5s-0.2243,0.5,-0.5,0.5H6.8c-0.2757,0,-0.5,-0.2243,-0.5,-0.5S6.5243,2,6.8,2zM13,13.3c0,0.386,-0.314,0.7,-0.7,0.7H3.7c-0.386,0,-0.7,-0.314,-0.7,-0.7V3.7c0,-0.386,0.314,-0.7,0.7,-0.7h1.6875C5.5941,3.5816,6.1484,4,6.8,4h2.4c0.6516,0,1.2059,-0.4184,1.4125,-1H12.3c0.386,0,0.7,0.314,0.7,0.7V13.3z" id="c1" fill="#06b6d4"/>
    <path d="M5.0857,8.248l-0.9623,-0.9508c-0.1964,-0.1941,-0.1983,-0.5106,-0.0042,-0.7071l0,0c0.1941,-0.1964,0.5107,-0.1983,0.7071,-0.0042l0.6102,0.6029l1.6123,-1.5993c0.196,-0.1945,0.5126,-0.1932,0.7071,0.0029l0,0c0.1945,0.196,0.1932,0.5126,-0.0029,0.7071L5.7893,8.2473C5.5946,8.4404,5.2808,8.4407,5.0857,8.248zM7.7559,9.5924L7.7559,9.5924c-0.1945,-0.1961,-0.511,-0.1973,-0.7071,-0.0029l-1.6123,1.5993l-0.6102,-0.6029c-0.1964,-0.1941,-0.513,-0.1922,-0.7071,0.0042l0,0c-0.1941,0.1964,-0.1922,0.513,0.0042,0.7071l0.9623,0.9508c0.195,0.1927,0.5089,0.1924,0.7035,-0.0007l1.9637,-1.9479C7.949,10.105,7.9503,9.7884,7.7559,9.5924z" id="c2" fill="#06b6d4"/>
    <path d="M11.4989,8h-2.5c-0.2761,0,-0.5,-0.2239,-0.5,-0.5v0c0,-0.2761,0.2239,-0.5,0.5,-0.5h2.5c0.2761,0,0.5,0.2239,0.5,0.5v0C11.9988,7.7761,11.775,8,11.4989,8zM11.4989,11h-2.5c-0.2761,0,-0.5,0.2239,-0.5,0.5v0c0,0.2761,0.2239,0.5,0.5,0.5h2.5c0.2761,0,0.5,-0.2239,0.5,-0.5v0C11.9988,11.2239,11.775,11,11.4989,11z" id="c1" fill="#06b6d4"/>
  </g>
</svg>
