<?xml version="1.0" encoding="UTF-8"?>
<!DOCTYPE svg PUBLIC "-//W3C//DTD SVG 1.1//EN" "http://www.w3.org/Graphics/SVG/1.1/DTD/svg11.dtd">
<svg version="1.1" id="Layer_1" xmlns="http://www.w3.org/2000/svg" xmlns:xlink="http://www.w3.org/1999/xlink" x="0px" y="0px" width="16px" height="16px" viewBox="0 0 16 16" enable-background="new 0 0 16 16" xml:space="preserve">
  <g id="main">
    <g id="icon">
      <path d="M5.911,1.579L5.593,1.793L5.379,2.111L5.3,2.5L3.7,2.5L3.233,2.594L2.852,2.852L2.594,3.233L2.5,3.7L2.5,13.3L2.594,13.77L2.852,14.15L3.233,14.41L3.7,14.5L6.901,14.5L6.641,14.07L6.368,13.48L6.167,12.85L6.043,12.19L6,11.5L6.029,10.94L6.112,10.39L6.248,9.866L6.433,9.361L6.665,8.88L6.941,8.427L7.257,8.004L7.613,7.613L8.004,7.257L8.427,6.941L8.88,6.665L9.361,6.433L9.866,6.248L10.39,6.112L10.94,6.029L11.5,6L12.19,6.043L12.85,6.167L13.48,6.368L13.5,6.378L13.5,3.7L13.41,3.233L13.15,2.852L12.77,2.594L12.3,2.5L10.7,2.5L10.62,2.111L10.41,1.793L10.09,1.579L9.7,1.5L6.3,1.5zz" fill="#262626"/>
      <path d="M5.833,1.074L5.427,1.282L5.104,1.598L4.888,2L3.7,2L3.358,2.035L3.039,2.134L2.75,2.291L2.498,2.498L2.291,2.75L2.134,3.039L2.035,3.358L2,3.7L2,13.3L2.035,13.64L2.134,13.96L2.291,14.25L2.498,14.5L2.75,14.71L3.039,14.87L3.358,14.97L3.7,15L7.272,15L6.98,14.63L6.641,14.07L6.607,14L3.7,14L3.428,13.94L3.205,13.79L3.055,13.57L3,13.3L3,3.7L3.055,3.428L3.205,3.205L3.428,3.055L3.7,3L4.888,3L5.104,3.402L5.427,3.718L5.833,3.926L6.3,4L9.7,4L10.17,3.926L10.57,3.718L10.9,3.402L11.11,3L12.3,3L12.57,3.055L12.79,3.205L12.94,3.428L13,3.7L13,6.216L13.48,6.368L14,6.607L14,3.7L13.97,3.358L13.87,3.039L13.71,2.75L13.5,2.498L13.25,2.291L12.96,2.134L12.64,2.035L12.3,2L11.11,2L10.9,1.598L10.57,1.282L10.17,1.074L9.7,1L6.3,1zM9.7,2L9.895,2.039L10.05,2.147L10.16,2.305L10.2,2.5L10.16,2.695L10.05,2.853L9.895,2.961L9.7,3L6.3,3L6.105,2.961L5.947,2.853L5.839,2.695L5.8,2.5L5.839,2.305L5.947,2.147L6.105,2.039L6.3,2zz" fill="#d4d4d4"/>
      <path d="M5.36,8.421L5.204,8.529L5.088,8.703L5.05,8.9L5.088,9.098L5.204,9.271L6.156,10.22L6.248,9.866L6.433,9.361L6.545,9.128L5.946,8.529L5.887,8.478L5.72,8.396L5.538,8.376zz" fill="#d4d4d4"/>
    </g>
    <g id="overlay">
      <circle cx="11.5" cy="11.5" r="4" id="b" fill="#171717"/>
      <path d="M11.5,7c-2.4853,0,-4.5,2.0147,-4.5,4.5c0,2.4853,2.0147,4.5,4.5,4.5c2.4853,0,4.5,-2.0147,4.5,-4.5C16,9.0147,13.9853,7,11.5,7zM11.5,15c-1.933,0,-3.5,-1.567,-3.5,-3.5s1.567,-3.5,3.5,-3.5s3.5,1.567,3.5,3.5S13.433,15,11.5,15z" id="c3" fill="#6ee7b7"/>
      <path d="M13.5,11h-1.5V9.5c0,-0.2761,-0.2239,-0.5,-0.5,-0.5s-0.5,0.2239,-0.5,0.5v1.5H9.5c-0.2761,0,-0.5,0.2239,-0.5,0.5s0.2239,0.5,0.5,0.5h1.5v1.5c0,0.2761,0.2239,0.5,0.5,0.5s0.5,-0.2239,0.5,-0.5v-1.5h1.5c0.2761,0,0.5,-0.2239,0.5,-0.5S13.7761,11,13.5,11z" id="c3" fill="#6ee7b7"/>
    </g>
  </g>
</svg>
