<?xml version="1.0" encoding="utf-8"?>
<!-- Created with: Axialis IconVectors - www.axialis.com -->
<svg version="1.1" xmlns="http://www.w3.org/2000/svg" xmlns:xlink="http://www.w3.org/1999/xlink" id="Layer_1" x="0px" y="0px" width="16" height="16" viewBox="0 0 16 16" xml:space="preserve">
  <g id="icon">
    <path id="b" fill="#262626" d="M 6.1 1.52 C 5.648 1.613 5.297 2.037 5.301 2.5 C 4.614 2.542 3.903 2.404 3.234 2.594 C 2.638 2.83 2.426 3.507 2.5 4.099 C 2.507 7.199 2.486 10.3 2.511 13.4 C 2.543 14.11 3.271 14.6 3.949 14.5 C 5.327 14.5 6.704 14.5 8.082 14.5 C 8.912 13.44 9.898 12.51 10.79 11.5 C 9.826 10.45 8.836 9.411 7.909 8.329 C 7.307 7.403 8.053 5.921 9.2 6 C 10.63 6.005 12.07 5.99 13.5 6.008 C 13.48 5.143 13.55 4.27 13.46 3.411 C 13.32 2.762 12.63 2.413 12 2.5 C 11.57 2.5 11.13 2.5 10.7 2.5 C 10.71 1.854 10.06 1.398 9.449 1.5 C 8.333 1.512 7.214 1.475 6.1 1.52 z M 12.98 9.018 C 12.49 8.953 12.59 9.079 12.9 9.367 C 13.09 9.537 13.37 9.943 13.5 9.968 C 13.5 9.635 13.5 9.303 13.5 8.971 C 13.33 8.973 13.15 9.004 12.98 9.018 z M 13.4 13.12 C 13.17 13.41 12.81 13.6 12.66 13.95 C 12.84 14.02 13.29 14.12 13.37 13.84 C 13.51 13.58 13.5 13.27 13.5 12.98 C 13.47 13.03 13.44 13.07 13.4 13.12 z "/>
    <path id="c1" fill="#d4d4d4" d="M 6.061 1.02 C 5.529 1.104 5.069 1.495 4.887 2 C 4.084 2.025 3.143 1.843 2.518 2.481 C 1.95 2.995 1.98 3.799 2 4.499 C 2.007 7.466 1.986 10.43 2.01 13.4 C 2.036 14.35 2.966 15.1 3.899 15 C 5.183 15 6.479 15.01 7.756 14.99 C 7.914 14.61 8.249 14.34 8.484 14 C 6.843 13.99 5.199 14.02 3.559 13.99 C 3.054 13.89 2.94 13.33 3 12.9 C 3.009 9.787 2.982 6.671 3.014 3.559 C 3.106 3.054 3.666 2.94 4.099 3 C 4.368 3.068 4.821 2.85 4.948 3.137 C 5.237 3.811 6.012 4.084 6.701 4 C 7.796 3.981 8.897 4.04 9.988 3.969 C 10.5 3.876 10.94 3.487 11.11 3 C 11.62 3.047 12.18 2.894 12.66 3.102 C 13.18 3.421 12.95 4.099 13 4.599 C 13 5.066 13 5.533 13 6 C 13.33 5.989 13.67 6.033 14 6.008 C 13.97 5.11 14.06 4.201 13.95 3.31 C 13.77 2.461 12.9 1.909 12.05 2 C 11.74 2 11.43 2 11.11 2 C 10.88 1.297 10.11 0.9105 9.399 1 C 8.287 1.012 7.172 0.9751 6.061 1.02 z M 9.699 2 C 10.22 1.987 10.38 2.769 9.895 2.961 C 9.004 3.05 8.097 2.976 7.199 3 C 6.779 2.944 6.248 3.147 5.919 2.812 C 5.599 2.45 6.002 1.894 6.451 2 C 7.534 2 8.616 2 9.699 2 z M 13.43 8.971 C 13.04 8.915 12.92 9.11 13 9.477 C 13.33 9.84 13.67 10.2 14 10.56 C 13.99 10.07 14.01 9.575 13.99 9.09 C 13.83 8.965 13.63 8.963 13.43 8.971 z M 13.99 12.46 C 13.66 12.85 13.31 13.21 12.95 13.57 C 12.82 13.77 12.46 14.08 12.94 14 C 13.25 14 13.58 14.07 13.87 13.96 C 14.06 13.49 13.99 12.91 13.99 12.46 z "/>
    <path id="c2" fill="#d4d4d4" d="M5.36,8.42C4.94,8.6,4.99,9.19,5.34,9.41C5.92,9.97,6.45,10.57,7.05,11.09C7.54,11.38,7.88,10.81,8.19,10.52C8.49,10.23,8.78,9.94,9.08,9.64C8.84,9.38,8.6,9.12,8.37,8.86C8.02,9.21,7.67,9.56,7.32,9.91C6.82,9.43,6.37,8.9,5.85,8.46C5.7,8.37,5.52,8.36,5.36,8.42z"/>
  </g>
  <g id="overlay">
    <path id="c1" fill="#06b6d4" d="M15.2,16L9.2,16C8.92,16,8.7,15.78,8.7,15.5L8.7,15.45C8.7,15.24,8.7,15.24,9.4,14.48C9.74,14.11,10.2,13.62,10.65,13.13C11.23,12.5,11.81,11.87,12.15,11.5C11.81,11.13,11.23,10.5,10.65,9.87C10.2,9.38,9.74,8.89,9.4,8.52C8.7,7.76,8.7,7.76,8.7,7.55L8.7,7.5C8.7,7.22,8.92,7,9.2,7L15.2,7C15.44,7,15.64,7.17,15.69,7.4L15.89,8.4C15.94,8.67,15.77,8.94,15.5,8.99C15.23,9.04,14.96,8.87,14.91,8.6L14.79,8L10.28,8C11.05,8.83,12.28,10.17,13.2,11.16C13.38,11.35,13.38,11.65,13.2,11.84C12.28,12.83,11.05,14.17,10.28,15L14.83,15L15.01,14.38C15.09,14.13,15.34,13.96,15.6,14.01C15.89,14.07,16.06,14.36,15.98,14.64L15.68,15.64C15.62,15.86,15.42,16,15.2,16z"/>
  </g>
</svg>
