<?xml version="1.0" encoding="UTF-8"?>
<!DOCTYPE svg PUBLIC "-//W3C//DTD SVG 1.1//EN" "http://www.w3.org/Graphics/SVG/1.1/DTD/svg11.dtd">
<svg version="1.1" id="Layer_1" xmlns="http://www.w3.org/2000/svg" xmlns:xlink="http://www.w3.org/1999/xlink" x="0px" y="0px" width="16px" height="16px" viewBox="0 0 16 16" enable-background="new 0 0 16 16" xml:space="preserve">
  <g id="main">
    <g id="icon">
      <path d="M5.911,1.579L5.593,1.793L5.379,2.111L5.3,2.5L3.7,2.5L3.233,2.594L2.852,2.852L2.594,3.233L2.5,3.7L2.5,13.3L2.594,13.77L2.852,14.15L3.233,14.41L3.7,14.5L6,14.5L6,9.339L6.046,8.869L6.179,8.43L6.389,8.032L6.668,7.686L7.005,7.4L7.391,7.184L7.818,7.048L8.277,7L10.49,7L10.84,7.037L11.17,7.144L11.48,7.317L11.75,7.551L12.56,8.375L13.5,8.375L13.5,3.7L13.41,3.233L13.15,2.852L12.77,2.594L12.3,2.5L10.7,2.5L10.62,2.111L10.41,1.793L10.09,1.579L9.7,1.5L6.3,1.5zz" fill="#262626"/>
      <path d="M5.833,1.074L5.427,1.282L5.104,1.598L4.888,2L3.7,2L3.358,2.035L3.039,2.134L2.75,2.291L2.498,2.498L2.291,2.75L2.134,3.039L2.035,3.358L2,3.7L2,13.3L2.035,13.64L2.134,13.96L2.291,14.25L2.498,14.5L2.75,14.71L3.039,14.87L3.358,14.97L3.7,15L6.026,15L6,14.66L6,14L3.7,14L3.428,13.94L3.205,13.79L3.055,13.57L3,13.3L3,3.7L3.055,3.428L3.205,3.205L3.428,3.055L3.7,3L4.888,3L5.104,3.402L5.427,3.718L5.833,3.926L6.3,4L9.7,4L10.17,3.926L10.57,3.718L10.9,3.402L11.11,3L12.3,3L12.57,3.055L12.79,3.205L12.94,3.428L13,3.7L13,8.375L14,8.375L14,3.7L13.97,3.358L13.87,3.039L13.71,2.75L13.5,2.498L13.25,2.291L12.96,2.134L12.64,2.035L12.3,2L11.11,2L10.9,1.598L10.57,1.282L10.17,1.074L9.7,1L6.3,1zM9.7,2L9.895,2.039L10.05,2.147L10.16,2.305L10.2,2.5L10.16,2.695L10.05,2.853L9.895,2.961L9.7,3L6.3,3L6.105,2.961L5.947,2.853L5.839,2.695L5.8,2.5L5.839,2.305L5.947,2.147L6.105,2.039L6.3,2zz" fill="#d4d4d4"/>
      <path d="M10.63,6.663L10.45,6.779L10.23,7L10.49,7L10.84,7.037L11.17,7.144L11.34,7.236L11.35,7.113L11.3,6.935L11.2,6.779L11.02,6.663L10.82,6.625zM5.36,8.421L5.204,8.529L5.088,8.703L5.05,8.9L5.088,9.098L5.204,9.271L6,10.07L6,9.339L6.046,8.869L6.102,8.685L5.946,8.529L5.887,8.478L5.72,8.396L5.538,8.376zz" fill="#d4d4d4"/>
    </g>
    <g id="overlay">
      <path d="M8.2767,16C7.5727,16,7,15.3992,7,14.6606V9.3394C7,8.6008,7.5727,8,8.2767,8h2.2094c0.2025,0,0.3989,0.0879,0.539,0.2413l0.8962,0.9144c0.1272,0.1392,0.3055,0.2191,0.4894,0.2191h2.3125c0.704,0,1.2767,0.6008,1.2767,1.3394v3.9465c0,0.7385,-0.5727,1.3394,-1.2767,1.3394H8.2767z" id="c1" fill="#06b6d4"/>
    </g>
  </g>
</svg>
