<?xml version="1.0" encoding="UTF-8"?>
<!DOCTYPE svg PUBLIC "-//W3C//DTD SVG 1.1//EN" "http://www.w3.org/Graphics/SVG/1.1/DTD/svg11.dtd">
<svg version="1.1" id="Layer_1" xmlns="http://www.w3.org/2000/svg" xmlns:xlink="http://www.w3.org/1999/xlink" x="0px" y="0px" width="16px" height="16px" viewBox="0 0 16 16" enable-background="new 0 0 16 16" xml:space="preserve">
  <g id="main">
    <g id="icon">
      <path d="M5.911,1.579L5.593,1.793L5.379,2.111L5.3,2.5L3.7,2.5L3.233,2.594L2.852,2.852L2.594,3.233L2.5,3.7L2.5,13.3L2.594,13.77L2.852,14.15L3.233,14.41L3.7,14.5L6.8,14.5L6.8,13.2L6.859,12.76L7.028,12.36L6.862,11.97L6.8,11.54L6.8,11.48L6.828,10.94L6.909,10.41L7.041,9.903L7.221,9.415L7.446,8.95L7.715,8.512L8.369,7.725L9.16,7.076L9.601,6.81L10.07,6.586L10.56,6.407L11.07,6.276L11.6,6.196L12.15,6.168L13.16,6.263L13.5,6.361L13.5,3.7L13.41,3.233L13.15,2.852L12.77,2.594L12.3,2.5L10.7,2.5L10.62,2.111L10.41,1.793L10.09,1.579L9.7,1.5L6.3,1.5zz" fill="#262626"/>
      <path d="M5.833,1.074L5.427,1.282L5.104,1.598L4.888,2L3.7,2L3.358,2.035L3.039,2.134L2.75,2.291L2.498,2.498L2.291,2.75L2.134,3.039L2.035,3.358L2,3.7L2,13.3L2.035,13.64L2.134,13.96L2.291,14.25L2.498,14.5L2.75,14.71L3.039,14.87L3.358,14.97L3.7,15L6.8,15L6.8,14L3.7,14L3.428,13.94L3.205,13.79L3.055,13.57L3,13.3L3,3.7L3.055,3.428L3.205,3.205L3.428,3.055L3.7,3L4.888,3L5.104,3.402L5.427,3.718L5.833,3.926L6.3,4L9.7,4L10.17,3.926L10.57,3.718L10.9,3.402L11.11,3L12.3,3L12.57,3.055L12.79,3.205L12.94,3.428L13,3.7L13,6.248L13.16,6.263L14,6.505L14,3.7L13.97,3.358L13.87,3.039L13.71,2.75L13.5,2.498L13.25,2.291L12.96,2.134L12.64,2.035L12.3,2L11.11,2L10.9,1.598L10.57,1.282L10.17,1.074L9.7,1L6.3,1zM9.7,2L9.895,2.039L10.05,2.147L10.16,2.305L10.2,2.5L10.16,2.695L10.05,2.853L9.895,2.961L9.7,3L6.3,3L6.105,2.961L5.947,2.853L5.839,2.695L5.8,2.5L5.839,2.305L5.947,2.147L6.105,2.039L6.3,2zz" fill="#d4d4d4"/>
      <path d="M5.36,8.421L5.204,8.529L5.088,8.703L5.05,8.9L5.088,9.098L5.204,9.271L6.834,10.9L6.909,10.41L7.041,9.903L7.116,9.699L5.946,8.529L5.887,8.478L5.72,8.396L5.538,8.376zz" fill="#d4d4d4"/>
    </g>
    <g id="overlay">
      <path d="M8.4822,16c-0.0155,0,-0.0312,-0.0007,-0.047,-0.0022c-0.244,-0.023,-0.4352,-0.2379,-0.4352,-0.4892v-2.3065c-0.0002,-0.1985,0.1257,-0.3769,0.3108,-0.4467l0.0227,-0.0224l0.0437,0.0028c0.0121,-0.0027,0.0243,-0.0049,0.0366,-0.0066l0.0061,-0.0045l0.0477,0l0.0159,-0.0007l0.0019,0.0005l2.3319,-0.0034c0.1362,0,0.2661,0.0569,0.3573,0.1561c0.0911,0.0991,0.1361,0.2329,0.1233,0.367c-0.023,0.2415,-0.2398,0.431,-0.4936,0.4313l-1.2798,0.0018c0.5986,0.631,1.4474,1.0001,2.3265,1.0001c1.7561,0,3.1847,-1.414,3.1847,-3.1521l-0.0002,-0.0416c-0.0015,-0.1288,0.0481,-0.2504,0.1397,-0.342c0.0912,-0.0913,0.2127,-0.1416,0.3423,-0.1416c0.2625,0,0.4788,0.2113,0.4821,0.4711l0.0004,0.0541c0,2.2644,-1.8612,4.1065,-4.149,4.1065c-1.0824,0,-2.1151,-0.4177,-2.8868,-1.1573v1.0484C8.9643,15.7859,8.748,16,8.4822,16zM8.4825,12c-0.2625,0,-0.4788,-0.2113,-0.4821,-0.4711L8,11.4748c0,-2.2643,1.8612,-4.1065,4.149,-4.1065c1.0824,0,2.1151,0.4177,2.8868,1.1573V7.4772c0,-0.2631,0.2163,-0.4772,0.4822,-0.4772c0.0155,0,0.0311,0.0007,0.0469,0.0022c0.244,0.023,0.4352,0.2379,0.4352,0.4892v2.3065c0.0002,0.1985,-0.1257,0.3769,-0.3108,0.4467l-0.0226,0.0223l-0.0436,-0.0027c-0.0122,0.0027,-0.0245,0.0049,-0.0368,0.0066l-0.0061,0.0045l-2.3974,0.0036c-0.1362,0,-0.2661,-0.0569,-0.3573,-0.1561c-0.0911,-0.0991,-0.1361,-0.2329,-0.1233,-0.367c0.023,-0.2416,0.2398,-0.431,0.4936,-0.4313l1.2798,-0.0018c-0.5986,-0.631,-1.4474,-1.0001,-2.3265,-1.0001c-1.7561,0,-3.1847,1.414,-3.1847,3.1521l0.0002,0.0416c0.0015,0.1288,-0.0481,0.2504,-0.1397,0.342C8.7337,11.9497,8.6121,12,8.4825,12z" id="c1" fill="#06b6d4"/>
    </g>
  </g>
</svg>
