<?xml version="1.0" encoding="UTF-8"?>
<!DOCTYPE svg PUBLIC "-//W3C//DTD SVG 1.1//EN" "http://www.w3.org/Graphics/SVG/1.1/DTD/svg11.dtd">
<svg version="1.1" id="Layer_1" xmlns="http://www.w3.org/2000/svg" xmlns:xlink="http://www.w3.org/1999/xlink" x="0px" y="0px" width="16px" height="16px" viewBox="0 0 16 16" enable-background="new 0 0 16 16" xml:space="preserve">
  <g id="icon">
    <path d="M14.5,8c0,3.5899,-2.9101,6.5,-6.5,6.5s-6.5,-2.9101,-6.5,-6.5s2.9101,-6.5,6.5,-6.5S14.5,4.4101,14.5,8z" id="b" fill="#262626"/>
    <path d="M8,15c-3.8598,0,-7,-3.1402,-7,-7s3.1402,-7,7,-7s7,3.1402,7,7S11.8598,15,8,15zM8,2.0597c-3.2755,0,-5.9403,2.6648,-5.9403,5.9403S4.7245,13.9403,8,13.9403S13.9403,11.2755,13.9403,8S11.2755,2.0597,8,2.0597z" id="c1" fill="#fcd34d"/>
    <path d="M6.5,11.3c-0.2761,0,-0.5,-0.2239,-0.5,-0.5V5.2c0,-0.2761,0.2239,-0.5,0.5,-0.5s0.5,0.2239,0.5,0.5v5.6C7,11.0761,6.7761,11.3,6.5,11.3z" id="c2" fill="#fcd34d"/>
    <path d="M9.5,11.3c-0.2761,0,-0.5,-0.2239,-0.5,-0.5V5.2c0,-0.2761,0.2239,-0.5,0.5,-0.5s0.5,0.2239,0.5,0.5v5.6C10,11.0761,9.7761,11.3,9.5,11.3z" id="c2" fill="#fcd34d"/>
  </g>
</svg>
