<?xml version="1.0" encoding="utf-8"?>
<!-- Created with: Axialis IconVectors - www.axialis.com -->
<svg version="1.1" xmlns="http://www.w3.org/2000/svg" xmlns:xlink="http://www.w3.org/1999/xlink" id="Layer_1" x="0px" y="0px" width="16" height="16" viewBox="0 0 16 16" xml:space="preserve">
  <g id="icon">
    <path id="b" fill="#262626" d="M9.14,13.63L13.8,8.11C14.18,7.65,13.85,6.96,13.25,6.96L10.55,6.96L13.8,3.11C14.18,2.65,13.85,1.96,13.25,1.96L3.65,1.96C3.05,1.96,2.72,2.65,3.1,3.11L6.35,6.96L3.65,6.96C3.05,6.96,2.72,7.65,3.1,8.11L7.76,13.63C8.12,14.06,8.78,14.06,9.14,13.63z"/>
    <path id="c1" fill="#e0e7ff" d="M9.52,13.95L14.19,8.43C14.49,8.07,14.55 7.58, 14.35 7.15 C14.15,6.73,13.73 6.46, 13.26 6.46 L11.63,6.46L14.19,3.43C14.49,3.07,14.55 2.58, 14.35 2.15 C14.15,1.73,13.73 1.46, 13.26 1.46 L3.65,1.46C3.18,1.46,2.76 1.73, 2.56 2.15 C2.48,2.32,2.44 2.49, 2.44 2.67 C2.44,2.94,2.54 3.21, 2.73 3.44 L5.28,6.46L3.65,6.46C3.18,6.46,2.76 6.73, 2.56 7.15 C2.48,7.32,2.44 7.49, 2.44 7.67 C2.44,7.94,2.54 8.21, 2.73 8.44 L7.38,13.95C7.65,14.27,8.04 14.45, 8.45 14.45 C8.87,14.45,9.26 14.27, 9.52 13.95 zM3.49,2.8C3.42,2.71,3.44 2.62, 3.46 2.58 C3.49,2.54,3.54 2.46, 3.65 2.46 L13.26,2.46C13.37,2.46,13.42 2.54, 13.44 2.58 C13.45,2.6,13.46 2.63, 13.46 2.67 C13.46,2.71,13.45 2.75, 13.42 2.79 L10.32,6.46L6.59,6.46L3.49,2.8zM8.15,13.31C8.15,13.31,8.15 13.31, 8.15 13.31 L3.49,7.8C3.42,7.71,3.44 7.62, 3.47 7.58 C3.49,7.54,3.54 7.46, 3.65 7.46 L13.26,7.46C13.37,7.46,13.42 7.54, 13.44 7.58 C13.45,7.6,13.46 7.63, 13.46 7.67 C13.46,7.71,13.45 7.75, 13.42 7.79 L8.76,13.31C8.65,13.44,8.52 13.45, 8.45 13.45 C8.38,13.45,8.25 13.44, 8.15 13.31 z"/>
  </g>
</svg>
