<?xml version="1.0" encoding="UTF-8"?>
<!DOCTYPE svg PUBLIC "-//W3C//DTD SVG 1.1//EN" "http://www.w3.org/Graphics/SVG/1.1/DTD/svg11.dtd">
<svg version="1.1" id="Layer_1" xmlns="http://www.w3.org/2000/svg" xmlns:xlink="http://www.w3.org/1999/xlink" x="0px" y="0px" width="16px" height="16px" viewBox="0 0 16 16" enable-background="new 0 0 16 16" xml:space="preserve">
  <g id="main">
    <g id="icon">
      <path d="M5.911,1.579L5.593,1.793L5.379,2.111L5.3,2.5L3.7,2.5L3.233,2.594L2.852,2.852L2.594,3.233L2.5,3.7L2.5,13.3L2.594,13.77L2.852,14.15L3.233,14.41L3.7,14.5L6.889,14.5L6.644,14.09L6.416,13.61L6.236,13.1L6.105,12.58L6.027,12.05L6,11.5L6.027,10.95L6.105,10.42L6.236,9.896L6.416,9.392L6.644,8.909L6.92,8.448L7.242,8.014L7.61,7.61L8.014,7.242L8.448,6.92L8.909,6.644L9.392,6.416L9.896,6.236L10.42,6.105L10.95,6.027L11.5,6L12.05,6.027L12.58,6.105L13.1,6.236L13.5,6.377L13.5,3.7L13.41,3.233L13.15,2.852L12.77,2.594L12.3,2.5L10.7,2.5L10.62,2.111L10.41,1.793L10.09,1.579L9.7,1.5L6.3,1.5zz" fill="#262626"/>
      <path d="M5.833,1.074L5.427,1.282L5.104,1.598L4.888,2L3.7,2L3.358,2.035L3.039,2.134L2.75,2.291L2.498,2.498L2.291,2.75L2.134,3.039L2.035,3.358L2,3.7L2,13.3L2.035,13.64L2.134,13.96L2.291,14.25L2.498,14.5L2.75,14.71L3.039,14.87L3.358,14.97L3.7,15L7.255,15L7.242,14.99L6.92,14.55L6.644,14.09L6.601,14L3.7,14L3.428,13.94L3.205,13.79L3.055,13.57L3,13.3L3,3.7L3.055,3.428L3.205,3.205L3.428,3.055L3.7,3L4.888,3L5.104,3.402L5.427,3.718L5.833,3.926L6.3,4L9.7,4L10.17,3.926L10.57,3.718L10.9,3.402L11.11,3L12.3,3L12.57,3.055L12.79,3.205L12.94,3.428L13,3.7L13,6.21L13.1,6.236L13.61,6.416L14,6.601L14,3.7L13.97,3.358L13.87,3.039L13.71,2.75L13.5,2.498L13.25,2.291L12.96,2.134L12.64,2.035L12.3,2L11.11,2L10.9,1.598L10.57,1.282L10.17,1.074L9.7,1L6.3,1zM9.7,2L9.895,2.039L10.05,2.147L10.16,2.305L10.2,2.5L10.16,2.695L10.05,2.853L9.895,2.961L9.7,3L6.3,3L6.105,2.961L5.947,2.853L5.839,2.695L5.8,2.5L5.839,2.305L5.947,2.147L6.105,2.039L6.3,2zz" fill="#d4d4d4"/>
      <path d="M5.36,8.421L5.204,8.529L5.088,8.703L5.05,8.9L5.088,9.098L5.204,9.271L6.154,10.22L6.236,9.896L6.416,9.392L6.542,9.125L5.946,8.529L5.887,8.478L5.72,8.396L5.538,8.376zz" fill="#d4d4d4"/>
    </g>
    <g id="overlay">
      <path d="M14.3553,14.3553c-1.5769,1.5769,-4.1337,1.5769,-5.7106,0s-1.5769,-4.1337,0,-5.7106s4.1337,-1.5769,5.7106,0S15.9322,12.7784,14.3553,14.3553z" id="b" fill="#171717"/>
      <path d="M16,11.5c0,1.2039,-0.4676,2.3344,-1.3166,3.1834C13.8344,15.5324,12.7039,16,11.5,16s-2.3344,-0.4676,-3.1834,-1.3166C7.4676,13.8344,7,12.7039,7,11.5s0.4676,-2.3344,1.3166,-3.1834C9.1656,7.4676,10.2961,7,11.5,7s2.3344,0.4676,3.1834,1.3166C15.5324,9.1656,16,10.2961,16,11.5zM7.9648,11.5c0,0.9459,0.3673,1.8341,1.0342,2.501c1.379,1.379,3.6229,1.379,5.002,0c0.6669,-0.6669,1.0342,-1.5551,1.0342,-2.501s-0.3673,-1.8341,-1.0342,-2.501c-1.379,-1.379,-3.6229,-1.379,-5.002,0C8.3321,9.6659,7.9648,10.5541,7.9648,11.5z" id="c3" fill="#6ee7b7"/>
      <path d="M13.4517,12.958c0,0.0768,-0.0186,0.1528,-0.0538,0.2198c-0.0763,0.1455,-0.2108,0.2428,-0.3691,0.2669c-0.1556,0.0237,-0.3149,-0.0285,-0.4261,-0.1397l-2.1391,-2.1392v1.3689c0,0.2144,-0.1378,0.4071,-0.335,0.4686c-0.1542,0.048,-0.3152,0.0221,-0.4419,-0.0712c-0.1245,-0.0916,-0.1989,-0.2387,-0.1989,-0.3932V9.9673c0,-0.2644,0.2151,-0.4796,0.4796,-0.4796h2.5716c0.269,0,0.4879,0.2189,0.4879,0.488c0,0.0511,-0.0079,0.1025,-0.0236,0.1528c-0.0614,0.1973,-0.2541,0.3351,-0.4686,0.3351l-1.3689,0l2.136,2.1361C13.397,12.695,13.4517,12.8256,13.4517,12.958z" id="c3" fill="#6ee7b7"/>
    </g>
  </g>
</svg>
