<?xml version="1.0" encoding="UTF-8"?>
<!DOCTYPE svg PUBLIC "-//W3C//DTD SVG 1.1//EN" "http://www.w3.org/Graphics/SVG/1.1/DTD/svg11.dtd">
<svg version="1.1" id="Layer_1" xmlns="http://www.w3.org/2000/svg" xmlns:xlink="http://www.w3.org/1999/xlink" x="0px" y="0px" width="16px" height="16px" viewBox="0 0 16 16" enable-background="new 0 0 16 16" xml:space="preserve">
  <g id="main">
    <clipPath id="clip_mask">
      <path d="M12.1091,15.166l-2.5424,-1.0524c-0.3138,0.1429,-0.6577,0.2228,-1.0138,0.2228c-0.3056,0,-0.606,-0.0566,-0.8928,-0.1683c-1.2731,-0.496,-1.9193,-1.9539,-1.4406,-3.2499c0.3627,-0.9821,1.3006,-1.6419,2.3339,-1.6419c0.3057,0,0.6061,0.0566,0.8929,0.1683c0.0422,0.0164,0.0836,0.0341,0.1244,0.0526l2.5368,-1.05c0.0167,-0.0576,0.0349,-0.115,0.0559,-0.172c0.3628,-0.9822,1.3008,-1.6431,2.334,-1.6431c0.3057,0,0.6061,0.0561,0.8929,0.1678c0.2237,0.0871,0.4275,0.2047,0.6098,0.3453V0H0v16h12.53C12.3404,15.7503,12.1972,15.4673,12.1091,15.166z"/>
    </clipPath>
    <g id="icon" clip-path="url(#clip_mask)">
      <path d="M1.5,2.9v9.752c0,0.468,0.379,0.848,0.848,0.848h10.305c0.468,0,0.848,-0.379,0.848,-0.848V2.9H1.5zM9.474,8.5H5.461c-0.549,0,-0.994,-0.445,-0.994,-0.994v-0.012c0,-0.549,0.445,-0.994,0.994,-0.994h4.012c0.549,0,0.994,0.445,0.994,0.994v0.012C10.467,8.055,10.022,8.5,9.474,8.5z" fill="#FFFFFF"/>
      <path d="M1.5,3.4v9.355c0,0.398,0.391,0.745,0.823,0.745h10.384c0.431,0,0.793,-0.347,0.793,-0.745V3.4H1.5zM9.548,8.5H5.474c-0.526,0,-0.952,-0.426,-0.952,-0.952v-0.046C4.522,6.949,4.97,6.5,5.524,6.5h3.974c0.553,0,1.002,0.449,1.002,1.002v0.046C10.5,8.074,10.074,8.5,9.548,8.5z" fill="none" stroke="#6D6E71" stroke-width="1" stroke-linecap="round" stroke-miterlimit="1" stroke-linejoin="round"/>
      <path d="M14.488,0H0.513C0.229,0,0,0.229,0,0.513v2.975C0,3.771,0.229,4,0.513,4h13.975c0.283,0,0.513,-0.229,0.513,-0.513V0.513C15,0.229,14.771,0,14.488,0z" fill="#3E79B4"/>
    </g>
    <g id="overlay">
      <polygon points="8.1555,11.9061 8.2033,11.8062 8.1555,11.7063 14.5463,9.061 14.6419,9.2608 8.4925,11.8062 14.6419,14.3516 14.5463,14.5514" fill="none" stroke="#4DA07D" stroke-width="1" stroke-linecap="round" stroke-miterlimit="1" stroke-linejoin="round"/>
      <path d="M14.4968,15.9818c-0.181,0,-0.3593,-0.0337,-0.5299,-0.1001c-0.7682,-0.2993,-1.1565,-1.1838,-0.8655,-1.9716c0.2184,-0.5912,0.7794,-0.9885,1.3959,-0.9885c0.181,0,0.3593,0.0337,0.53,0.1002c0.7682,0.2993,1.1565,1.1837,0.8655,1.9716C15.6743,15.5845,15.1133,15.9818,14.4968,15.9818L14.4968,15.9818zM8.5529,13.3364c-0.181,0,-0.3593,-0.0337,-0.5299,-0.1002c-0.7682,-0.2993,-1.1565,-1.1838,-0.8654,-1.9716c0.2183,-0.5912,0.7793,-0.9884,1.3959,-0.9884c0.181,0,0.3593,0.0337,0.53,0.1002c0.7682,0.2993,1.1565,1.1837,0.8655,1.9716C9.7305,12.9392,9.1695,13.3364,8.5529,13.3364zM14.4968,10.6911c-0.1811,0,-0.3593,-0.0337,-0.53,-0.1002c-0.7682,-0.2993,-1.1565,-1.1837,-0.8655,-1.9716c0.2184,-0.5912,0.7794,-0.9884,1.3959,-0.9884c0.181,0,0.3593,0.0337,0.5299,0.1002c0.7682,0.2993,1.1565,1.1838,0.8655,1.9716C15.6743,10.2938,15.1134,10.6911,14.4968,10.6911L14.4968,10.6911z" fill="#4DA07D"/>
    </g>
  </g>
</svg>
