<?xml version="1.0" encoding="UTF-8"?>
<!DOCTYPE svg PUBLIC "-//W3C//DTD SVG 1.1//EN" "http://www.w3.org/Graphics/SVG/1.1/DTD/svg11.dtd">
<svg version="1.1" id="Layer_1" xmlns="http://www.w3.org/2000/svg" xmlns:xlink="http://www.w3.org/1999/xlink" x="0px" y="0px" width="16px" height="16px" viewBox="0 0 16 16" enable-background="new 0 0 16 16" xml:space="preserve">
  <g id="main">
    <clipPath id="clip_mask">
      <path d="M6,11.5c0,-3.0327,2.4673,-5.5,5.5,-5.5c1.8588,0,3.5039,0.9278,4.5,2.3436V0H0v16h8.3436C6.9278,15.0039,6,13.3588,6,11.5z"/>
    </clipPath>
    <g id="icon" clip-path="url(#clip_mask)">
      <path d="M1.5,2.9v9.752c0,0.468,0.379,0.848,0.848,0.848h10.305c0.468,0,0.848,-0.379,0.848,-0.848V2.9H1.5zM9.474,8.5H5.461c-0.549,0,-0.994,-0.445,-0.994,-0.994v-0.012c0,-0.549,0.445,-0.994,0.994,-0.994h4.012c0.549,0,0.994,0.445,0.994,0.994v0.012C10.467,8.055,10.022,8.5,9.474,8.5z" fill="#FFFFFF"/>
      <path d="M1.5,3.4v9.355c0,0.398,0.391,0.745,0.823,0.745h10.384c0.431,0,0.793,-0.347,0.793,-0.745V3.4H1.5zM9.548,8.5H5.474c-0.526,0,-0.952,-0.426,-0.952,-0.952v-0.046C4.522,6.949,4.97,6.5,5.524,6.5h3.974c0.553,0,1.002,0.449,1.002,1.002v0.046C10.5,8.074,10.074,8.5,9.548,8.5z" fill="none" stroke="#6D6E71" stroke-width="1" stroke-linecap="round" stroke-miterlimit="1" stroke-linejoin="round"/>
      <path d="M14.488,0H0.513C0.229,0,0,0.229,0,0.513v2.975C0,3.771,0.229,4,0.513,4h13.975c0.283,0,0.513,-0.229,0.513,-0.513V0.513C15,0.229,14.771,0,14.488,0z" fill="#3E79B4"/>
    </g>
    <g id="overlay">
      <path d="M11.5,7c-2.4853,0,-4.5,2.0147,-4.5,4.5c0,2.4853,2.0147,4.5,4.5,4.5s4.5,-2.0147,4.5,-4.5C16,9.0147,13.9853,7,11.5,7zM14,12h-2v2h-1v-2H9v-1h2V9h1v2h2V12z" fill-rule="evenodd" fill="#4EA17E"/>
      <polygon points="14,11 12,11 12,9 11,9 11,11 9,11 9,12 11,12 11,14 12,14 12,12 14,12" fill-rule="evenodd" fill="#FFFFFF" stroke-linejoin="miter"/>
    </g>
  </g>
</svg>
