<?xml version="1.0" encoding="UTF-8"?>
<!DOCTYPE svg PUBLIC "-//W3C//DTD SVG 1.1//EN" "http://www.w3.org/Graphics/SVG/1.1/DTD/svg11.dtd">
<svg version="1.1" id="Layer_1" xmlns="http://www.w3.org/2000/svg" xmlns:xlink="http://www.w3.org/1999/xlink" x="0px" y="0px" width="16px" height="16px" viewBox="0 0 16 16" enable-background="new 0 0 16 16" xml:space="preserve">
  <g id="main">
    <clipPath id="clip_mask">
      <path d="M7.1664,15.89c-0.2201,-0.6181,-0.2212,-0.9525,-0.1381,-1.5138l0.0034,-0.024l0.0046,-0.0238c0.2856,-1.4418,1.0357,-1.7323,2.5178,-2.2473c-0.3445,-0.7004,-0.5581,-1.5009,-0.5581,-2.2155C8.9959,7.9501,9.9967,7,11.9706,7c0,0,0.0017,0,0.0025,0c1.373,0,3.0097,0.4786,3.0097,2.8656c0,0.7148,-0.2139,1.5271,-0.5588,2.2281c0.6648,0.231,1.1818,0.4159,1.576,0.6796V0H0v16h7.2116C7.1953,15.9644,7.18,15.9281,7.1664,15.89z" fill-rule="evenodd"/>
    </clipPath>
    <g id="icon" clip-path="url(#clip_mask)">
      <path d="M1.5,2.9v9.752c0,0.468,0.379,0.848,0.848,0.848h10.305c0.468,0,0.848,-0.379,0.848,-0.848V2.9H1.5zM9.474,8.5H5.461c-0.549,0,-0.994,-0.445,-0.994,-0.994v-0.012c0,-0.549,0.445,-0.994,0.994,-0.994h4.012c0.549,0,0.994,0.445,0.994,0.994v0.012C10.467,8.055,10.022,8.5,9.474,8.5z" fill="#FFFFFF"/>
      <path d="M1.5,3.4v9.355c0,0.398,0.391,0.745,0.823,0.745h10.384c0.431,0,0.793,-0.347,0.793,-0.745V3.4H1.5zM9.548,8.5H5.474c-0.526,0,-0.952,-0.426,-0.952,-0.952v-0.046C4.522,6.949,4.97,6.5,5.524,6.5h3.974c0.553,0,1.002,0.449,1.002,1.002v0.046C10.5,8.074,10.074,8.5,9.548,8.5z" fill="none" stroke="#6D6E71" stroke-width="1" stroke-linecap="round" stroke-miterlimit="1" stroke-linejoin="round"/>
      <path d="M14.488,0H0.513C0.229,0,0,0.229,0,0.513v2.975C0,3.771,0.229,4,0.513,4h13.975c0.283,0,0.513,-0.229,0.513,-0.513V0.513C15,0.229,14.771,0,14.488,0z" fill="#3E79B4"/>
    </g>
    <g id="overlay">
      <path d="M15.9594,14.5233c-0.2012,-1.0157,-0.5591,-1.0326,-2.5161,-1.7238c-0.2857,-0.1074,-0.3664,-0.2618,-0.345,-0.4822c0.552,-0.66,0.8846,-1.7277,0.8846,-2.474c0,-1.1559,-0.3944,-1.888,-2.0097,-1.888c-0.0066,0,0.0022,0,0,0c-1.6154,0,-1.9772,0.7322,-1.9772,1.888c0,0.7464,0.3313,1.812,0.8833,2.472c0.0214,0.2204,-0.0599,0.3759,-0.3457,0.4833c-1.957,0.6912,-2.3152,0.7087,-2.5165,1.7243c-0.0605,0.4082,-0.0706,0.5794,0.0905,1.0317c0.1813,0.5092,2.7438,0.4426,3.8655,0.4426c0.0045,0,-0.0077,0,0,0c1.1217,0,3.7143,0.0669,3.8956,-0.4423C16.0298,15.1024,16.0199,14.9316,15.9594,14.5233z" fill-rule="evenodd" fill="#B4B4B4"/>
    </g>
  </g>
</svg>
