<?xml version="1.0" encoding="UTF-8"?>
<!DOCTYPE svg PUBLIC "-//W3C//DTD SVG 1.1//EN" "http://www.w3.org/Graphics/SVG/1.1/DTD/svg11.dtd">
<svg version="1.1" id="Layer_1" xmlns="http://www.w3.org/2000/svg" xmlns:xlink="http://www.w3.org/1999/xlink" x="0px" y="0px" width="16px" height="16px" viewBox="0 0 16 16" enable-background="new 0 0 16 16" xml:space="preserve">
  <g id="main">
    <clipPath id="clip_mask">
      <path d="M6.1115,15.4688l0.9699,-2.2687c0.098,-0.2294,0.2768,-0.4109,0.4979,-0.5138c0.0489,-0.1051,0.1161,-0.2019,0.1996,-0.2854l4.8635,-4.8635c0.0782,-0.0781,0.166,-0.1406,0.2597,-0.1875c0.0545,-0.1371,0.1392,-0.2618,0.2496,-0.3641l0.5781,-0.5356c0.3549,-0.346,0.7265,-0.4193,0.9774,-0.4193c0.2547,0,0.6338,0.0755,0.9937,0.4353L16,6.7654V0H0v16h6.0411C6.0164,15.8235,6.0383,15.64,6.1115,15.4688z"/>
    </clipPath>
    <g id="icon" clip-path="url(#clip_mask)">
      <path d="M1.5,2.9v9.752c0,0.468,0.379,0.848,0.848,0.848h10.305c0.468,0,0.848,-0.379,0.848,-0.848V2.9H1.5zM9.474,8.5H5.461c-0.549,0,-0.994,-0.445,-0.994,-0.994v-0.012c0,-0.549,0.445,-0.994,0.994,-0.994h4.012c0.549,0,0.994,0.445,0.994,0.994v0.012C10.467,8.055,10.022,8.5,9.474,8.5z" fill="#FFFFFF"/>
      <path d="M1.5,3.4v9.355c0,0.398,0.391,0.745,0.823,0.745h10.384c0.431,0,0.793,-0.347,0.793,-0.745V3.4H1.5zM9.548,8.5H5.474c-0.526,0,-0.952,-0.426,-0.952,-0.952v-0.046C4.522,6.949,4.97,6.5,5.524,6.5h3.974c0.553,0,1.002,0.449,1.002,1.002v0.046C10.5,8.074,10.074,8.5,9.548,8.5z" fill="none" stroke="#6D6E71" stroke-width="1" stroke-linecap="round" stroke-miterlimit="1" stroke-linejoin="round"/>
      <path d="M14.488,0H0.513C0.229,0,0,0.229,0,0.513v2.975C0,3.771,0.229,4,0.513,4h13.975c0.283,0,0.513,-0.229,0.513,-0.513V0.513C15,0.229,14.771,0,14.488,0z" fill="#3E79B4"/>
    </g>
    <g id="overlay">
      <path d="M8.486,13.108l4.8635,-4.8635l1.4369,1.4369l-4.8635,4.8635L8.486,13.108zM14.4206,7.1734c0.1899,-0.1899,0.3832,-0.1899,0.5732,0l0.8637,0.8637c0.1899,0.1899,0.1899,0.3833,0,0.5732l-0.5809,0.5443l-1.4453,-1.4352L14.4206,7.1734zM7.031,15.8619l0.9699,-2.2687l1.4369,1.4369L7.169,16L7.031,15.8619z" fill-rule="evenodd" fill="#E9B665"/>
    </g>
  </g>
</svg>
