<?xml version="1.0" encoding="UTF-8"?>
<!DOCTYPE svg PUBLIC "-//W3C//DTD SVG 1.1//EN" "http://www.w3.org/Graphics/SVG/1.1/DTD/svg11.dtd">
<svg version="1.1" id="Layer_1" xmlns="http://www.w3.org/2000/svg" xmlns:xlink="http://www.w3.org/1999/xlink" x="0px" y="0px" width="16px" height="16px" viewBox="0 0 16 16" enable-background="new 0 0 16 16" xml:space="preserve">
  <g id="main">
    <clipPath id="clip_mask">
      <path d="M7.6564,0C9.0722,0.9961,10,2.6412,10,4.5c0,3.0327,-2.4673,5.5,-5.5,5.5c-1.8588,0,-3.5039,-0.9278,-4.5,-2.3436V16h16V0H7.6564z"/>
    </clipPath>
    <g id="icon" clip-path="url(#clip_mask)">
      <g id="transformed_icon" transform="translate(1 1)">
        <path d="M0.8844,2.5h13.2312c0.2123,0,0.3844,0.179,0.3844,0.3999v9.1968c0,0.2208,-0.1721,0.3999,-0.3844,0.3999H0.8844c-0.2123,0,-0.3844,-0.179,-0.3844,-0.3999V2.8999C0.5,2.679,0.6721,2.5,0.8844,2.5z" fill-rule="evenodd" fill="#FFFFFF" stroke="#6D6E71" stroke-width="1" stroke-miterlimit="1"/>
        <path d="M0.8056,12.2466l4.5168,-5.0982M9.743,7.0984l4.5168,5.1482" fill="none" stroke="#6D6E71" stroke-width="1" stroke-linecap="round" stroke-miterlimit="1"/>
        <path d="M14.3558,2.6499c0,0,-4.6909,4.591,-5.0742,4.8126c-1.5273,1.0977,-2.0358,1.0977,-3.5037,0C4.8308,6.7407,0.7095,2.6499,0.7095,2.6499" fill-rule="evenodd" fill="none" stroke="#6D6E71" stroke-width="1" stroke-miterlimit="1"/>
      </g>
    </g>
    <g id="overlay">
      <path d="M8.7375,3.9804L6.326,3.8797c-0.0271,-0.0799,-0.0592,-0.1576,-0.0961,-0.2324l1.6339,-1.7762c0.1025,-0.1025,0.1025,-0.2687,0,-0.3712l-0.3637,-0.3637c-0.1025,-0.1025,-0.2687,-0.1025,-0.3712,0L5.3527,2.7701c-0.0748,-0.037,-0.1525,-0.069,-0.2324,-0.0961L5.0196,0.2625c0,-0.145,-0.1175,-0.2625,-0.2625,-0.2625h-0.5143c-0.145,0,-0.2625,0.1175,-0.2625,0.2625L3.8797,2.674c-0.0799,0.0271,-0.1575,0.0592,-0.2324,0.0961L1.8711,1.1362c-0.1025,-0.1025,-0.2687,-0.1025,-0.3712,0l-0.3637,0.3637c-0.1025,0.1025,-0.1025,0.2687,0,0.3712l1.6339,1.7762c-0.037,0.0748,-0.069,0.1525,-0.0961,0.2324L0.2625,3.9804C0.1175,3.9804,0,4.0979,0,4.2429v0.5143c0,0.145,0.1175,0.2625,0.2625,0.2625l2.4115,0.1007c0.0271,0.0799,0.0592,0.1576,0.0961,0.2324L1.1362,7.1289c-0.1025,0.1025,-0.1025,0.2687,0,0.3712l0.3637,0.3637c0.1025,0.1025,0.2687,0.1025,0.3712,0l1.7762,-1.6339c0.0748,0.037,0.1525,0.069,0.2324,0.0961l0.1007,2.4115c0,0.145,0.1175,0.2625,0.2625,0.2625h0.5143c0.145,0,0.2625,-0.1175,0.2625,-0.2625l0.1007,-2.4115c0.0799,-0.0271,0.1576,-0.0592,0.2324,-0.0961l1.7762,1.6339c0.1025,0.1025,0.2687,0.1025,0.3712,0l0.3637,-0.3637c0.1025,-0.1025,0.1025,-0.2687,0,-0.3712L6.2299,5.3527c0.037,-0.0748,0.069,-0.1525,0.0961,-0.2324l2.4115,-0.1007c0.145,0,0.2625,-0.1175,0.2625,-0.2625v-0.5143C9,4.0979,8.8825,3.9804,8.7375,3.9804zM4.5,5.1c-0.426,0,-0.6,-0.174,-0.6,-0.6c0,-0.426,0.174,-0.6,0.6,-0.6s0.6,0.174,0.6,0.6C5.1,4.926,4.926,5.1,4.5,5.1z" fill-rule="evenodd" fill="#E9B665"/>
    </g>
  </g>
</svg>
