<?xml version="1.0" encoding="UTF-8"?>
<!DOCTYPE svg PUBLIC "-//W3C//DTD SVG 1.1//EN" "http://www.w3.org/Graphics/SVG/1.1/DTD/svg11.dtd">
<svg version="1.1" id="Layer_1" xmlns="http://www.w3.org/2000/svg" xmlns:xlink="http://www.w3.org/1999/xlink" x="0px" y="0px" width="16px" height="16px" viewBox="0 0 16 16" enable-background="new 0 0 16 16" xml:space="preserve">
  <g id="icon">
    <path d="M14.0087,1h-3.7264c0.6431,0.3372,1.6416,0.5765,1.9596,1H13v12H3V2h0.7358c0.3817,-0.4316,1.4381,-0.6718,2.0058,-1H1.9473C1.4214,1,1,1.403,1,1.9125v13.165c0,0.5095,0.4214,0.9225,0.9473,0.9225h12.0615c0.5259,0,0.9913,-0.413,0.9913,-0.9225V1.9125C15,1.403,14.5346,1,14.0087,1z" fill="#EAB765"/>
    <path d="M3,2h10v12H3V2z" fill-rule="evenodd" fill="#FFFFFF"/>
    <path d="M9.6,1.1336c0,-0.1546,0,-0.2623,0,-0.3358C9.6,0.5742,9.3122,0,8.8502,0c-0.3769,0,-0.8645,0,-0.8645,0s-0.4876,0,-0.8645,0C6.6591,0,6.4,0.5742,6.4,0.7978c0,0.0735,0,0.1813,0,0.3358c0,0.6453,-2.2804,0.7756,-2.2804,1.4883c0,0.2868,0.0571,0.6074,0.1432,0.6323c0.0379,0.0109,3.4093,0.0042,3.7266,0.0037c0.3168,0.0005,3.6861,0.0071,3.724,-0.0038c0.086,-0.0248,0.1543,-0.3454,0.1543,-0.6322C11.8677,1.9091,9.6,1.7789,9.6,1.1336z" fill="#797979"/>
    <path d="M11.9699,6.8653l-0.7223,-0.7223c-0.0846,-0.0846,-0.2209,-0.0856,-0.3057,-0.0012L7.0891,9.97L5.0823,7.9406c-0.0406,-0.0411,-0.0848,-0.0534,-0.1426,-0.0535c-0.058,-0.0002,-0.1021,0.0337,-0.143,0.0746l-0.6892,0.6892c-0.0844,0.0844,-0.0959,0.2101,-0.012,0.295l1.9187,1.9304c0.0096,0.0171,0.0216,0.0218,0.0357,0.0359l0.9209,0.9209c0.0424,0.0424,0.0924,0.0691,0.1479,0.0691c0.0553,0,0.1079,-0.0183,0.1502,-0.0603l4.7034,-4.6721c0.0409,-0.0407,0.0625,-0.0945,0.0626,-0.1521C12.035,6.96,12.0107,6.9061,11.9699,6.8653z" fill="#CD4C32"/>
  </g>
</svg>
