<?xml version="1.0" encoding="UTF-8"?>
<!DOCTYPE svg PUBLIC "-//W3C//DTD SVG 1.1//EN" "http://www.w3.org/Graphics/SVG/1.1/DTD/svg11.dtd">
<svg version="1.1" id="Layer_1" xmlns="http://www.w3.org/2000/svg" xmlns:xlink="http://www.w3.org/1999/xlink" x="0px" y="0px" width="32px" height="32px" viewBox="0 0 32 32" enable-background="new 0 0 32 32" xml:space="preserve">
  <g id="icon">
    <path d="M26.5,3h-5.8797c1.0953,0.5,2.2649,0.9027,2.2649,1.659c0,0.0981,-0.0033,0.241,-0.0094,0.341H25v22H7V5h2.1301c-0.0037,-0.1,-0.0057,-0.1725,-0.0057,-0.2481c0,-0.8364,1.3708,-1.2519,2.5004,-1.7519H5.5c-0.8271,0,-1.5,0.6934,-1.5,1.5211v23.9801C4,29.329,4.7103,30,5.5374,30h20.9651c0.8271,0,1.4975,-0.671,1.4975,-1.4988V4.5211C28,3.6934,27.3271,3,26.5,3z" fill-rule="evenodd" fill="#EAB765"/>
    <path d="M7,5.0183h18V27H7V5.0183z" fill-rule="evenodd" fill="#FFFFFF"/>
    <g>
      <g>
        <path d="M18.4704,2.472v-0.5548C18.4704,1.5478,18.0517,0.6,17.322,0.6c-0.5952,0,-1.3653,0,-1.3653,0s-0.7701,0,-1.3653,0c-0.7297,0,-1.1483,0.9478,-1.1483,1.3172v0.5548c0,1.0661,-3.5965,1.2813,-3.5965,2.4587c0,0.4738,0.0926,1.0035,0.2285,1.0446c0.0596,0.018,5.3369,0.0075,5.8816,0.0065c0.5446,0.001,5.822,0.0115,5.8816,-0.0065c0.1359,-0.041,0.2285,-0.5707,0.2285,-1.0446C22.0668,3.7532,18.4704,3.538,18.4704,2.472zM15.9571,3.211c-0.4255,0,-0.7704,-0.3606,-0.7704,-0.8055s0.3449,-0.8211,0.7704,-0.8211c0.4254,0,0.7704,0.3763,0.7704,0.8211S16.3825,3.211,15.9571,3.211z" fill-rule="evenodd" fill="#797979"/>
      </g>
    </g>
    <path d="M22.9211,13.1862l-1.2642,-1.2642c-0.1481,-0.1481,-0.3866,-0.1498,-0.5351,-0.0022l-6.7435,6.7005l-3.5125,-3.552c-0.0711,-0.072,-0.1484,-0.0934,-0.2495,-0.0937c-0.1015,-0.0004,-0.1787,0.059,-0.2502,0.1305l-1.2064,1.2064c-0.1478,0.1478,-0.1679,0.3677,-0.021,0.5163l3.3583,3.3788c0.0168,0.0299,0.0377,0.0382,0.0624,0.0629l1.6118,1.6118c0.0742,0.0742,0.1617,0.121,0.2589,0.121c0.0968,0,0.1889,-0.032,0.2629,-0.1056l8.2323,-8.1775c0.0716,-0.0712,0.1094,-0.1653,0.1095,-0.2663C23.0351,13.3518,22.9924,13.2575,22.9211,13.1862z" fill="#CD4C32"/>
  </g>
</svg>
