<?xml version="1.0" encoding="UTF-8"?>
<!DOCTYPE svg PUBLIC "-//W3C//DTD SVG 1.1//EN" "http://www.w3.org/Graphics/SVG/1.1/DTD/svg11.dtd">
<svg version="1.1" id="Layer_1" xmlns="http://www.w3.org/2000/svg" xmlns:xlink="http://www.w3.org/1999/xlink" x="0px" y="0px" width="16px" height="16px" viewBox="0 0 16 16" enable-background="new 0 0 16 16" xml:space="preserve">
  <g id="icon">
    <path d="M4.017,9.29c0,-0.462,-0.004,-5.558,-0.004,-6.306c0.01,-0.796,0.486,-1.311,1.275,-1.13c0.533,0.122,0.817,0.578,0.818,1.133c0.003,1.159,0,2.516,0,3.675c0.028,0.388,0.526,0.32,0.526,0c0,-1.611,0.001,-3.343,0,-4.954c0,-0.236,0,-0.426,0,-0.639c0,-0.584,0.434,-1.063,1.066,-1.058c0.633,0.005,1.037,0.472,1.037,1.065c0,1.059,0.002,1.826,0.002,2.739c0,0.994,0,1.935,0,2.925c0,0.402,0.526,0.508,0.526,0.189c0,-1.332,0,-3.409,0,-4.741c0.002,-0.463,0.421,-1.065,1.053,-1.065c0.632,0,1.053,0.671,1.053,1.065c0.014,1.323,-0.001,3.684,0,5.007c0,0.373,0.526,0.483,0.526,0.16c0,-0.971,0,-2.978,0,-3.569s0.568,-1.072,1.047,-1.072c0.479,0,0.991,0.581,1.047,1.037c0.008,0.061,0.019,4.931,0.003,7.331c-0.009,1.315,-0.765,2.532,-1.69,3.573c-0.784,0.882,-1.754,1.33,-3.039,1.33s-1.04,0,-1.895,0s-2.263,-1.029,-2.726,-2.02c-0.62,-1.328,-1.554,-2.165,-2.694,-3.045c-0.378,-0.292,-0.797,-0.541,-1.189,-0.818c-0.471,-0.332,-0.589,-0.726,-0.246,-1.077c0.183,-0.188,0.499,-0.32,0.778,-0.37c0.964,-0.173,1.755,0,2.513,0.601C3.826,9.271,3.919,9.269,4.017,9.29z" fill="#E9B665"/>
  </g>
</svg>
