<?xml version="1.0" encoding="UTF-8"?>
<!DOCTYPE svg PUBLIC "-//W3C//DTD SVG 1.1//EN" "http://www.w3.org/Graphics/SVG/1.1/DTD/svg11.dtd">
<svg version="1.1" id="Layer_1" xmlns="http://www.w3.org/2000/svg" xmlns:xlink="http://www.w3.org/1999/xlink" x="0px" y="0px" width="16px" height="16px" viewBox="0 0 16 16" enable-background="new 0 0 16 16" xml:space="preserve">
  <g id="main">
    <g id="icon">
      <path d="M1.577,1.071L1.276,1.265L1.074,1.555L1,1.913L1,10.48L2.085,9.372L2.107,9.351L2.508,9.09L2.978,9L3,9L3,2L3.736,2L4.13,1.708L4.669,1.461L5.242,1.234L5.742,1L1.947,1zM11.38,1.468L11.89,1.713L12.24,2L13,2L13,13L9,13L9,13.78L8.975,14.03L8.902,14.26L8.633,14.65L8.232,14.91L7.735,15L14.01,15L14.39,14.93L14.7,14.73L14.92,14.44L15,14.08L15,1.913L14.92,1.555L14.7,1.265L14.39,1.071L14.01,1L10.28,1zz" fill="#EAB765"/>
      <path d="M3,9L4.9,9L5.227,9.049L5.52,9.187L5.76,9.404L5.931,9.688L6.012,10L5.998,10.32L5.894,10.62L5.704,10.88L5.584,11L7.744,11L7.996,11.03L8.232,11.1L8.632,11.38L8.901,11.78L8.974,12.02L9,12.27L9,13L13,13L13,2L3,2zz" fill-rule="evenodd" fill="#FFFFFF"/>
      <path d="M6.958,0.0252L6.813,0.09316L6.587,0.315L6.448,0.5789L6.4,0.7979L6.4,1.134L6.302,1.354L6.044,1.538L5.26,1.853L4.476,2.179L4.218,2.38L4.145,2.495L4.12,2.622L4.159,3.036L4.204,3.185L4.263,3.254L7.989,3.258L11.71,3.254L11.82,3.036L11.87,2.622L11.77,2.38L11.51,2.179L10.73,1.852L9.954,1.538L9.697,1.354L9.6,1.134L9.6,0.7979L9.548,0.5789L9.398,0.315L9.162,0.09316L8.85,0L7.986,0L7.121,0zz" fill="#797979"/>
      <path d="M10.94,5.242L7.089,9.07L5.082,7.041L4.94,6.987L4.797,7.062L4.107,7.751L4.038,7.898L4.096,8.046L5.069,9.025L5.227,9.049L5.52,9.187L5.76,9.404L5.931,9.688L6.001,9.963L6.014,9.976L6.05,10.01L6.971,10.93L7.114,11L7.124,11L7.269,10.94L11.97,6.27L12.03,6.118L11.97,5.965L11.25,5.243L11.09,5.179zz" fill="#CD4C32"/>
    </g>
    <g id="overlay">
      <path d="M2.7712,15.9301c0.0478,0.0451,0.111,0.0701,0.1767,0.0699l1.9354,-0.0006c0.1039,-0.0003,0.1557,-0.1259,0.0823,-0.1994l-1.7219,-1.8H7.735c0.1416,0,0.265,-0.0833,0.265,-0.2249v-0.5601v-0.502v-0.4391c0,-0.1416,-0.1148,-0.2563,-0.2563,-0.2563H3.2524l1.7304,-1.8185c0.0732,-0.0737,0.0209,-0.1991,-0.0829,-0.1991H2.9776c-0.0662,0,-0.1299,0.0256,-0.1776,0.0715c0,0,-1.9735,2.0193,-2.7414,2.7965c-0.0786,0.0795,-0.078,0.204,0.0013,0.2828C0.8265,13.9127,2.7712,15.9301,2.7712,15.9301z" fill-rule="evenodd" fill="#8C53A1"/>
    </g>
  </g>
</svg>
