<?xml version="1.0" encoding="UTF-8"?>
<!DOCTYPE svg PUBLIC "-//W3C//DTD SVG 1.1//EN" "http://www.w3.org/Graphics/SVG/1.1/DTD/svg11.dtd">
<svg version="1.1" id="Layer_1" xmlns="http://www.w3.org/2000/svg" xmlns:xlink="http://www.w3.org/1999/xlink" x="0px" y="0px" width="16px" height="16px" viewBox="0 0 16 16" enable-background="new 0 0 16 16" xml:space="preserve">
  <g id="main">
    <g id="icon">
      <path d="M0.5773,1.071L0.2764,1.265L0.07402,1.555L0,1.913L0,14.08L0.07402,14.44L0.2764,14.73L0.5773,14.93L0.9473,15L7.003,15L7,14.99L7,13L2,13L2,2L2.736,2L3.13,1.708L3.669,1.461L4.242,1.234L4.742,1L0.9473,1zM10.38,1.468L10.89,1.713L11.24,2L12,2L12,6.033L12.01,6.033L12.9,6.128L13.8,6.404L13.8,6.401L13.89,5.959L14,5.806L14,1.913L13.92,1.555L13.7,1.265L13.39,1.071L13.01,1L9.282,1zz" fill="#EAB765"/>
      <path d="M2,13L7,13L7,12.25L7.079,11.84L7.294,11.5L7.614,11.25L8.008,11.12L7.648,10.97L7.361,10.7L7.228,10.48L7.151,10.23L7.132,9.972L7.172,9.714L7.378,9.119L7.655,8.556L8,8.033L8.407,7.558L9.179,6.904L9.602,6.643L10.05,6.426L10.51,6.256L11,6.133L11.49,6.058L12,6.033L12,2L2,2zz" fill-rule="evenodd" fill="#FFFFFF"/>
      <path d="M5.958,0.0252L5.813,0.09316L5.587,0.315L5.448,0.5789L5.4,0.7979L5.4,1.134L5.302,1.354L5.044,1.538L4.26,1.853L3.476,2.179L3.218,2.38L3.145,2.495L3.12,2.622L3.159,3.036L3.204,3.185L3.263,3.254L6.989,3.258L10.71,3.254L10.82,3.036L10.87,2.622L10.77,2.38L10.51,2.179L9.734,1.852L8.954,1.538L8.697,1.354L8.6,1.134L8.6,0.7979L8.548,0.5789L8.398,0.315L8.162,0.09316L7.85,0L6.986,0L6.121,0zz" fill="#797979"/>
      <path d="M9.942,5.242L6.089,9.07L4.082,7.041L3.94,6.987L3.797,7.062L3.107,7.751L3.038,7.898L3.096,8.046L5.014,9.976L5.05,10.01L5.971,10.93L6.119,11L6.269,10.94L7.14,10.08L7.132,9.972L7.172,9.714L7.378,9.119L7.655,8.556L8,8.033L8.407,7.558L9.179,6.904L9.602,6.643L10.05,6.426L10.51,6.256L11,6.133L11.03,6.127L11.03,6.118L10.97,5.965L10.25,5.243L10.09,5.179zz" fill="#CD4C32"/>
    </g>
    <g id="overlay">
      <path d="M8.2714,10.1508c-0.0894,0,-0.1555,-0.0849,-0.1317,-0.1711c0.1743,-0.6318,0.5026,-1.228,0.9858,-1.7248c0.7667,-0.7883,1.7987,-1.2225,2.9059,-1.2225c0.9254,0,1.9082,0.4088,2.6748,1.0147l0.1434,0.1133V6.4011c0,-0.1214,0.1467,-0.1821,0.2325,-0.0963l0.8781,0.8781c0.0255,0.0255,0.0399,0.0602,0.0399,0.0963v2.7355c0,0.0752,-0.061,0.1362,-0.1362,0.1362h-2.748c-0.0357,0,-0.0701,-0.014,-0.0955,-0.0391l-0.8919,-0.8775c-0.087,-0.0856,-0.0262,-0.2336,0.0959,-0.2333l1.5282,0.0041l-0.3639,-0.251c-0.0032,-0.0022,-0.0064,-0.0042,-0.0097,-0.0062c-0.4147,-0.2442,-0.8898,-0.3733,-1.3745,-0.3733c-0.7408,0,-1.4343,0.2993,-1.9528,0.8428c-0.2423,0.254,-0.4253,0.543,-0.5501,0.8498c-0.0207,0.0509,-0.0706,0.0837,-0.1255,0.0837H8.2714zM15.7542,12.1138c0.0894,0,0.1555,0.0849,0.1317,0.1711c-0.1743,0.6318,-0.5026,1.228,-0.9858,1.7248c-0.7667,0.7883,-1.7987,1.2225,-2.9059,1.2225c-0.9254,0,-1.9082,-0.4087,-2.6748,-1.0147l-0.1434,-0.1133v1.7594c0,0.1214,-0.1467,0.1821,-0.2325,0.0963l-0.8781,-0.8781c-0.0255,-0.0255,-0.0399,-0.0602,-0.0399,-0.0963V12.25c0,-0.0752,0.061,-0.1362,0.1362,-0.1362h2.748c0.0357,0,0.0701,0.014,0.0955,0.0391l0.8919,0.8775c0.087,0.0856,0.0262,0.2336,-0.0959,0.2333l-1.5282,-0.0041l0.3639,0.251c0.0032,0.0022,0.0064,0.0042,0.0097,0.0062c0.4147,0.2442,0.8898,0.3733,1.3745,0.3733c0.7408,0,1.4343,-0.2993,1.9528,-0.8428c0.2423,-0.254,0.4253,-0.543,0.5501,-0.8498c0.0207,-0.0509,0.0706,-0.0837,0.1255,-0.0837H15.7542z" fill="#529FBF"/>
    </g>
  </g>
</svg>
