<?xml version="1.0" encoding="UTF-8"?>
<!DOCTYPE svg PUBLIC "-//W3C//DTD SVG 1.1//EN" "http://www.w3.org/Graphics/SVG/1.1/DTD/svg11.dtd">
<svg version="1.1" id="Layer_1" xmlns="http://www.w3.org/2000/svg" xmlns:xlink="http://www.w3.org/1999/xlink" x="0px" y="0px" width="16px" height="16px" viewBox="0 0 16 16" enable-background="new 0 0 16 16" xml:space="preserve">
  <g id="icon">
    <path d="M8.0238,1.0265c3.8395,0,6.952,3.1125,6.952,6.952c0,3.8395,-3.1125,6.952,-6.952,6.952c-3.8395,0,-6.952,-3.1125,-6.952,-6.952C1.0718,4.139,4.1843,1.0265,8.0238,1.0265z" fill-rule="evenodd" fill="#FFFFFF"/>
    <path d="M7.5,8.8648l5.011,4.985c1.613,-1.3513,2.6298,-3.3803,2.6298,-5.6492c0,-4.0685,-3.2843,-7.3666,-7.3527,-7.3666c-0.1012,0,-0.1839,0.0026,-0.288,0.0067V8.8648z" fill-rule="evenodd" fill="#B9E0CA"/>
    <path d="M11.5969,11.3848l0.0553,-0.0574c0.91,-0.9453,1.4111,-2.1885,1.4111,-3.5005c0,-2.6393,-2.0602,-4.8512,-4.6901,-5.0354l-0.082,-0.0058l-0.0972,-0.7775l0.119,0.006c3.0967,0.1561,5.5224,2.7094,5.5224,5.8127c0,1.5626,-0.6109,3.0296,-1.7203,4.1308l-0.0871,0.0864L11.5969,11.3848z" fill-rule="evenodd" fill="#B9E0CA"/>
    <path d="M7.9928,0.1C3.6337,0.1,0.1,3.6337,0.1,7.9928c0,4.3591,3.5337,7.8928,7.8928,7.8928s7.8928,-3.5337,7.8928,-7.8928C15.8856,3.6337,12.3518,0.1,7.9928,0.1zM7.9928,14.6798c-3.6931,0,-6.687,-2.9939,-6.687,-6.687c0,-3.6931,2.9939,-6.687,6.687,-6.687s6.687,2.9939,6.687,6.687C14.6798,11.6859,11.6859,14.6798,7.9928,14.6798z" fill-rule="evenodd" fill="#797979"/>
    <path d="M6.7001,8.0043c-0.0027,0.8253,0.073,1.2026,0.7517,1.206c0.6788,0.0033,0.689,-0.4596,0.6917,-1.2848c0.0027,-0.8253,-0.227,-6.036,-0.6668,-6.0382C7.0369,1.8851,6.7028,7.179,6.7001,8.0043z" fill-rule="evenodd" fill="#3E79B4"/>
    <path d="M8.3802,8.6687c-0.5837,-0.5887,-0.8831,-0.7751,-1.3649,-0.2969c-0.4818,0.4781,-0.3523,0.6534,0.2313,1.2421c0.5837,0.5887,4.0179,3.5086,4.3301,3.1988C11.8889,12.5028,8.9639,9.2574,8.3802,8.6687z" fill-rule="evenodd" fill="#3E79B4"/>
  </g>
</svg>
