<svg width="3" height="14" viewBox="0 0 3 14" fill="none" xmlns="http://www.w3.org/2000/svg">
<path d="M2.75 1C2.75 0.446875 2.30313 0 1.75 0C1.19687 0 0.75 0.446875 0.75 1V9C0.75 9.55313 1.19687 10 1.75 10C2.30313 10 2.75 9.55313 2.75 9V1ZM1.75 14C2.08152 14 2.39946 13.8683 2.63388 13.6339C2.8683 13.3995 3 13.0815 3 12.75C3 12.4185 2.8683 12.1005 2.63388 11.8661C2.39946 11.6317 2.08152 11.5 1.75 11.5C1.41848 11.5 1.10054 11.6317 0.866117 11.8661C0.631696 12.1005 0.5 12.4185 0.5 12.75C0.5 13.0815 0.631696 13.3995 0.866117 13.6339C1.10054 13.8683 1.41848 14 1.75 14Z" fill="#111827"/>
</svg>
