<?xml version="1.0" encoding="UTF-8"?>
<!DOCTYPE svg PUBLIC "-//W3C//DTD SVG 1.1//EN" "http://www.w3.org/Graphics/SVG/1.1/DTD/svg11.dtd">
<svg version="1.1" id="Layer_1" xmlns="http://www.w3.org/2000/svg" xmlns:xlink="http://www.w3.org/1999/xlink" x="0px" y="0px" width="16px" height="16px" viewBox="0 0 16 16" enable-background="new 0 0 16 16" xml:space="preserve">
  <g id="icon">
    <path d="M13.009 1h-3.726c.643.337 1.642.576 1.96 1H12v11H2V2h.736c.382-.432 1.438-.672 2.006-1H.947C.421 1 0 1.403 0 1.912v12.088c0 .509.421.923.947.923h12.061c.526 0 .991-.413.991-.923V1.912C14 1.403 13.535 1 13.009 1z" fill="#EAB765"/>
    <path d="M2 2h10v11H2V2z" fill-rule="evenodd" fill="#FFFFFF"/>
    <path d="M8.6 1.134c0-.155 0-.262 0-.336C8.6.574 8.312 0 7.85 0c-.377 0-.865 0-.865 0s-.488 0-.865 0C5.659 0 5.4.574 5.4.798c0 .073 0 .181 0 .336c0 .645-2.28.776-2.28 1.488c0 .287.057.607.143.632c.038.011 3.409.004 3.727.004c.317.001 3.686.007 3.724-.004c.086-.025.154-.345.154-.632C10.868 1.909 8.6 1.779 8.6 1.134z" fill="#797979"/>
    <path d="M3.7158 7.4114C3.6373 7.4114 3.5793 7.3369 3.6002 7.2612C3.7532 6.7066 4.0414 6.1832 4.4655 5.7472C5.1385 5.0551 6.0444 4.674 7.0163 4.674C7.8286 4.674 8.6913 5.0329 9.3643 5.5647L9.4901 5.6642V4.1198C9.4901 4.0133 9.6189 3.9599 9.6942 4.0353L10.465 4.806C10.4874 4.8284 10.5 4.8588 10.5 4.8906V7.2918C10.5 7.3578 10.4465 7.4114 10.3804 7.4114H7.9683C7.9369 7.4114 7.9068 7.3991 7.8845 7.377L7.1015 6.6068C7.0251 6.5316 7.0785 6.4017 7.1856 6.4019L8.5271 6.4055 8.2076 6.1851C8.2049 6.1833 8.202 6.1814 8.1992 6.1797C7.8351 5.9653 7.418 5.852 6.9925 5.852C6.3423 5.852 5.7335 6.1148 5.2783 6.5919C5.0656 6.8148 4.905 7.0685 4.7954 7.3379C4.7772 7.3826 4.7334 7.4114 4.6852 7.4114ZM10.2843 9.1345C10.3627 9.1345 10.4208 9.209 10.3999 9.2847C10.2469 9.8393 9.9587 10.3627 9.5346 10.7987C8.8616 11.4908 7.9557 11.8718 6.9838 11.8718C6.1715 11.8718 5.3088 11.513 4.6358 10.9811L4.5099 10.8817V12.4261C4.5099 12.5326 4.3811 12.5859 4.3058 12.5106L3.535 11.7398C3.5126 11.7174 3.5 11.687 3.5 11.6553V9.2541C3.5 9.188 3.5535 9.1345 3.6196 9.1345H6.0318C6.0632 9.1345 6.0933 9.1468 6.1157 9.1688L6.8986 9.9392C6.975 10.0143 6.9216 10.1443 6.8145 10.144L5.473 10.1404 5.7925 10.3607C5.7952 10.3626 5.7981 10.3644 5.801 10.3661C6.165 10.5805 6.5821 10.6938 7.0076 10.6938C7.6578 10.6938 8.2666 10.431 8.7218 9.9539C8.9345 9.731 9.0951 9.4773 9.2047 9.2079C9.2228 9.1633 9.2666 9.1344 9.3148 9.1344H10.2843Z" fill="#CD4C32"/>
  </g>
</svg>
