<?xml version="1.0" encoding="UTF-8"?>
<!DOCTYPE svg PUBLIC "-//W3C//DTD SVG 1.1//EN" "http://www.w3.org/Graphics/SVG/1.1/DTD/svg11.dtd">
<svg version="1.1" id="Layer_1" xmlns="http://www.w3.org/2000/svg" xmlns:xlink="http://www.w3.org/1999/xlink" x="0px" y="0px" width="16px" height="16px" viewBox="0 0 16 16" enable-background="new 0 0 16 16" xml:space="preserve">
  <g id="main">
    <g id="icon">
      <path d="M0.5773,1.071L0.2764,1.265L0.07402,1.555L0,1.913L0,14.08L0.07402,14.44L0.2764,14.73L0.5773,14.93L0.9473,15L5,15L5,13L2,13L2,2L2.736,2L3.13,1.708L3.669,1.461L4.242,1.234L4.742,1L0.9473,1zM10.38,1.468L10.89,1.713L11.24,2L12,2L12,5L14,5L14,1.913L13.92,1.555L13.7,1.265L13.39,1.071L13.01,1L9.282,1zz" fill="#EAB765"/>
      <path d="M2,13L5,13L5,6.85L5.038,6.478L5.146,6.131L5.316,5.816L5.543,5.543L5.816,5.316L6.131,5.146L6.478,5.038L6.85,5L12,5L12,2L2,2zz" fill-rule="evenodd" fill="#FFFFFF"/>
      <path d="M5.958,0.0252L5.813,0.09316L5.587,0.315L5.448,0.5789L5.4,0.7979L5.4,1.134L5.302,1.354L5.044,1.538L4.26,1.853L3.476,2.179L3.218,2.38L3.145,2.495L3.12,2.622L3.159,3.036L3.204,3.185L3.263,3.254L6.989,3.258L10.71,3.254L10.82,3.036L10.87,2.622L10.77,2.38L10.51,2.179L9.734,1.852L8.954,1.538L8.697,1.354L8.6,1.134L8.6,0.7979L8.548,0.5789L8.398,0.315L8.162,0.09316L7.85,0L6.986,0L6.121,0zz" fill="#797979"/>
      <path d="M3.797,7.062L3.107,7.751L3.038,7.898L3.096,8.046L5,9.962L5,7.969L4.082,7.041L3.94,6.987zz" fill="#CD4C32"/>
    </g>
    <g id="overlay">
      <path d="M15.15,6h-8.3c-0.469,0,-0.85,0.381,-0.85,0.85v8.3c0,0.469,0.381,0.85,0.85,0.85h8.3c0.469,0,0.85,-0.381,0.85,-0.85v-8.3C16,6.381,15.619,6,15.15,6zM15,7.452v0.503V8.6h-0.643c-0.082,0,-0.341,-0.063,-0.341,-0.14c0,-0.254,-0.22,-0.46,-0.491,-0.46H12v6h0.622c0.209,0,0.378,0.154,0.378,0.345V15h-1h-2H9v-0.655c0,-0.19,0.169,-0.345,0.378,-0.345H10V8H8.447c-0.276,0,-0.5,0.206,-0.5,0.46c0,0.077,-0.068,0.14,-0.152,0.14H7v-0.6v-0.528v-0.085c0,-0.214,0.178,-0.387,0.398,-0.387h3.32h1.328h2.556c0.22,0,0.398,0.173,0.398,0.387V7.452z" fill="#3E79B4"/>
      <path d="M12.046,7h-1.328h-3.32c-0.22,0,-0.398,0.173,-0.398,0.387v0.085V8v0.6h0.795c0.084,0,0.152,-0.063,0.152,-0.14v0c0,-0.254,0.224,-0.46,0.5,-0.46H10v6h-0.622c-0.209,0,-0.378,0.154,-0.378,0.345V15h1h2h1v-0.655c0,-0.19,-0.169,-0.345,-0.378,-0.345H12V8h1.525c0.271,0,0.491,0.206,0.491,0.46v0c0,0.077,0.259,0.14,0.341,0.14H15v-0.645v-0.503v-0.065c0,-0.214,-0.178,-0.387,-0.398,-0.387H12.046z" fill="#FFFFFF"/>
    </g>
  </g>
</svg>
