<?xml version="1.0" encoding="UTF-8"?>
<!DOCTYPE svg PUBLIC "-//W3C//DTD SVG 1.1//EN" "http://www.w3.org/Graphics/SVG/1.1/DTD/svg11.dtd">
<svg version="1.1" id="Layer_1" xmlns="http://www.w3.org/2000/svg" xmlns:xlink="http://www.w3.org/1999/xlink" x="0px" y="0px" width="32px" height="32px" viewBox="0 0 32 32" enable-background="new 0 0 32 32" xml:space="preserve">
  <g id="icon">
    <path d="M16,1C7.7157,1,1,7.7157,1,16s6.7157,15,15,15s15,-6.7157,15,-15S24.2843,1,16,1zM25.25,16.2604l-14.8025,7.6827c-0.1859,0.1495,-0.4475,0.0035,-0.4475,-0.2497V8.2706c0,-0.2537,0.2625,-0.3996,0.4483,-0.2491l14.8025,7.7401C25.4038,15.8855,25.4034,16.1371,25.25,16.2604z" fill="#4DA07D"/>
    <path d="M25.25,16.2604l-14.8025,7.6827c-0.1859,0.1495,-0.4475,0.0035,-0.4475,-0.2497V8.2706c0,-0.2537,0.2625,-0.3996,0.4483,-0.2491l14.8025,7.7401C25.4038,15.8855,25.4034,16.1371,25.25,16.2604z" fill="#FFFFFF"/>
  </g>
</svg>
