<?xml version="1.0" encoding="UTF-8"?>
<!DOCTYPE svg PUBLIC "-//W3C//DTD SVG 1.1//EN" "http://www.w3.org/Graphics/SVG/1.1/DTD/svg11.dtd">
<svg version="1.1" id="Layer_1" xmlns="http://www.w3.org/2000/svg" xmlns:xlink="http://www.w3.org/1999/xlink" x="0px" y="0px" width="16px" height="16px" viewBox="0 0 16 16" enable-background="new 0 0 16 16" xml:space="preserve">
  <g id="main">
    <clipPath id="clip_mask">
      <path d="M6,11.5c0,-3.0327,2.4673,-5.5,5.5,-5.5c1.8588,0,3.5039,0.9278,4.5,2.3436V0H0v16h8.3436C6.9278,15.0039,6,13.3588,6,11.5z"/>
    </clipPath>
    <g id="icon" clip-path="url(#clip_mask)">
      <path d="M13.0087,1H9.2823c0.6431,0.3372,1.6416,0.5765,1.9596,1H12v11H2V2h0.7358c0.3817,-0.4316,1.4381,-0.6718,2.0058,-1H0.9473C0.4214,1,0,1.403,0,1.9125v12.165C0,14.587,0.4214,15,0.9473,15h12.0615c0.5259,0,0.9913,-0.413,0.9913,-0.9225V1.9125C14,1.403,13.5346,1,13.0087,1z" fill="#EAB765"/>
      <path d="M2,2h10v11H2V2z" fill-rule="evenodd" fill="#FFFFFF"/>
      <path d="M8.6,1.1336c0,-0.1546,0,-0.2623,0,-0.3358C8.6,0.5742,8.3122,0,7.8502,0c-0.3769,0,-0.8645,0,-0.8645,0s-0.4876,0,-0.8645,0C5.6591,0,5.4,0.5742,5.4,0.7978c0,0.0735,0,0.1813,0,0.3358c0,0.6453,-2.2804,0.7756,-2.2804,1.4883c0,0.2868,0.0571,0.6074,0.1432,0.6323c0.0379,0.0109,3.4093,0.0042,3.7266,0.0037c0.3168,0.0005,3.6861,0.0071,3.724,-0.0038c0.086,-0.0248,0.1543,-0.3454,0.1543,-0.6322C10.8677,1.9091,8.6,1.7789,8.6,1.1336z" fill="#797979"/>
      <path d="M10.9699,5.9653l-0.7223,-0.7223c-0.0846,-0.0846,-0.2209,-0.0856,-0.3057,-0.0012L6.0891,9.07L4.0823,7.0406c-0.0406,-0.0411,-0.0848,-0.0534,-0.1426,-0.0535c-0.058,-0.0002,-0.1021,0.0337,-0.143,0.0746l-0.6892,0.6892c-0.0844,0.0844,-0.0959,0.2101,-0.012,0.295l1.9187,1.9304c0.0096,0.0171,0.0216,0.0218,0.0357,0.0359l0.9209,0.9209c0.0424,0.0424,0.0924,0.0691,0.1479,0.0691c0.0553,0,0.1079,-0.0183,0.1502,-0.0603l4.7034,-4.6721c0.0409,-0.0407,0.0625,-0.0945,0.0626,-0.1521C11.035,6.06,11.0107,6.0061,10.9699,5.9653z" fill="#CD4C32"/>
    </g>
    <g id="overlay">
      <path d="M11.5,7c-2.4853,0,-4.5,2.0147,-4.5,4.5c0,2.4853,2.0147,4.5,4.5,4.5s4.5,-2.0147,4.5,-4.5C16,9.0147,13.9853,7,11.5,7zM14,12h-2v2h-1v-2H9v-1h2V9h1v2h2V12z" fill-rule="evenodd" fill="#4EA17E"/>
      <polygon points="14,11 12,11 12,9 11,9 11,11 9,11 9,12 11,12 11,14 12,14 12,12 14,12" fill-rule="evenodd" fill="#FFFFFF" stroke-linejoin="miter"/>
    </g>
  </g>
</svg>
