<?xml version="1.0" encoding="UTF-8"?>
<!DOCTYPE svg PUBLIC "-//W3C//DTD SVG 1.1//EN" "http://www.w3.org/Graphics/SVG/1.1/DTD/svg11.dtd">
<svg version="1.1" id="Layer_1" xmlns="http://www.w3.org/2000/svg" xmlns:xlink="http://www.w3.org/1999/xlink" x="0px" y="0px" width="16px" height="16px" viewBox="0 0 16 16" enable-background="new 0 0 16 16" xml:space="preserve">
  <g id="icon">
    <path d="M8,0C3.5817,0,0,3.5817,0,8c0,4.4183,3.5817,8,8,8s8,-3.5817,8,-8C16,3.5817,12.4183,0,8,0zM7,12.1776c0,0.1781,-0.1443,0.3224,-0.3224,0.3224H4.3224c-0.1781,0,-0.3224,-0.1444,-0.3224,-0.3224V3.8224C4,3.6443,4.1443,3.5,4.3224,3.5h2.3552C6.8557,3.5,7,3.6443,7,3.8224V12.1776zM12,12.1776c0,0.1781,-0.1443,0.3224,-0.3224,0.3224H9.3224c-0.1781,0,-0.3224,-0.1444,-0.3224,-0.3224V3.8224C9,3.6443,9.1443,3.5,9.3224,3.5h2.3552c0.1781,0,0.3224,0.1443,0.3224,0.3224V12.1776z" fill="#CC4B31"/>
    <path d="M7,3.8224v8.3552c0,0.1781,-0.1443,0.3224,-0.3224,0.3224H4.3224c-0.1781,0,-0.3224,-0.1443,-0.3224,-0.3224V3.8224C4,3.6444,4.1444,3.5,4.3224,3.5h2.3552C6.8557,3.5,7,3.6444,7,3.8224zM11.6776,3.5H9.3224C9.1443,3.5,9,3.6444,9,3.8224v8.3552c0,0.1781,0.1443,0.3224,0.3224,0.3224h2.3552c0.1781,0,0.3224,-0.1443,0.3224,-0.3224V3.8224C12,3.6444,11.8557,3.5,11.6776,3.5z" fill="#FFFFFF"/>
  </g>
</svg>
