<?xml version="1.0" encoding="UTF-8"?>
<!DOCTYPE svg PUBLIC "-//W3C//DTD SVG 1.1//EN" "http://www.w3.org/Graphics/SVG/1.1/DTD/svg11.dtd">
<svg version="1.1" id="Layer_1" xmlns="http://www.w3.org/2000/svg" xmlns:xlink="http://www.w3.org/1999/xlink" x="0px" y="0px" width="16px" height="16px" viewBox="0 0 16 16" enable-background="new 0 0 16 16" xml:space="preserve">
  <g id="main">
    <g id="icon">
      <path d="M0.5773,1.071L0.2764,1.265L0.07402,1.555L0,1.913L0,14.08L0.07402,14.44L0.2764,14.73L0.5773,14.93L0.9473,15L6.5,15L6.5,13L2,13L2,2L2.736,2L3.13,1.708L3.669,1.461L4.242,1.234L4.742,1L0.9473,1zM10.38,1.468L10.89,1.713L11.24,2L12,2L12,8.5L14,8.5L14,1.913L13.92,1.555L13.7,1.265L13.39,1.071L13.01,1L9.282,1zz" fill="#EAB765"/>
      <path d="M2,13L6.5,13L6.5,11.5L6.5,10L6.5,9L6.53,8.698L6.618,8.417L6.756,8.162L6.94,7.94L7.162,7.756L7.417,7.618L7.698,7.53L8,7.5L10.14,7.5L10.49,7.535L10.83,7.636L11.14,7.802L11.41,8.027L11.88,8.5L12,8.5L12,2L2,2zz" fill-rule="evenodd" fill="#FFFFFF"/>
      <path d="M5.958,0.0252L5.813,0.09316L5.587,0.315L5.448,0.5789L5.4,0.7979L5.4,1.134L5.302,1.354L5.044,1.538L4.26,1.853L3.476,2.179L3.218,2.38L3.145,2.495L3.12,2.622L3.159,3.036L3.204,3.185L3.263,3.254L6.989,3.258L10.71,3.254L10.82,3.036L10.87,2.622L10.77,2.38L10.51,2.179L9.734,1.852L8.954,1.538L8.697,1.354L8.6,1.134L8.6,0.7979L8.548,0.5789L8.398,0.315L8.162,0.09316L7.85,0L6.986,0L6.121,0zz" fill="#797979"/>
      <path d="M9.942,5.242L7.611,7.557L7.698,7.53L8,7.5L9.734,7.5L10.97,6.27L11.03,6.118L10.97,5.965L10.25,5.243L10.09,5.179zM3.797,7.062L3.107,7.751L3.038,7.898L3.096,8.046L5.014,9.976L5.05,10.01L5.971,10.93L6.119,11L6.269,10.94L6.5,10.71L6.5,10L6.5,9L6.53,8.698L6.561,8.602L6.089,9.07L4.082,7.041L3.94,6.987zz" fill="#CD4C32"/>
    </g>
    <g id="overlay">
      <path d="M7.5,11h8.4982l0.0017,4.4998c0.0001,0.2762,-0.2238,0.5002,-0.5,0.5002H8c-0.2761,0,-0.5,-0.2239,-0.5,-0.5V11z" fill-rule="evenodd" fill="#787878"/>
      <path d="M16,10.5H7.5V9c0,-0.2761,0.2239,-0.5,0.5,-0.5h2.1373c0.2122,0,0.4157,0.0843,0.5657,0.2343l0.5314,0.5314c0.15,0.15,0.3535,0.2343,0.5657,0.2343h3.7c0.2761,0,0.5,0.2239,0.5,0.5V10.5z" fill-rule="evenodd" fill="#787878"/>
    </g>
  </g>
</svg>
