<?xml version="1.0" encoding="UTF-8"?>
<!DOCTYPE svg PUBLIC "-//W3C//DTD SVG 1.1//EN" "http://www.w3.org/Graphics/SVG/1.1/DTD/svg11.dtd">
<svg version="1.1" id="Layer_1" xmlns="http://www.w3.org/2000/svg" xmlns:xlink="http://www.w3.org/1999/xlink" x="0px" y="0px" width="16px" height="16px" viewBox="0 0 16 16" enable-background="new 0 0 16 16" xml:space="preserve">
  <g id="main">
    <clipPath id="clip_mask">
      <path d="M7.6564,0C9.0722,0.9961,10,2.6412,10,4.5c0,3.0327,-2.4673,5.5,-5.5,5.5c-1.8588,0,-3.5039,-0.9278,-4.5,-2.3436V16h16V0H7.6564z"/>
    </clipPath>
    <g id="icon" clip-path="url(#clip_mask)">
      <g id="transformed_icon" transform="translate(1 1)">
        <path d="M13.0087,1H9.2823c0.6431,0.3372,1.6416,0.5765,1.9596,1H12v11H2V2h0.7358c0.3817,-0.4316,1.4381,-0.6718,2.0058,-1H0.9473C0.4214,1,0,1.403,0,1.9125v12.165C0,14.587,0.4214,15,0.9473,15h12.0615c0.5259,0,0.9913,-0.413,0.9913,-0.9225V1.9125C14,1.403,13.5346,1,13.0087,1z" fill="#EAB765"/>
        <path d="M2,2h10v11H2V2z" fill-rule="evenodd" fill="#FFFFFF"/>
        <path d="M8.6,1.1336c0,-0.1546,0,-0.2623,0,-0.3358C8.6,0.5742,8.3122,0,7.8502,0c-0.3769,0,-0.8645,0,-0.8645,0s-0.4876,0,-0.8645,0C5.6591,0,5.4,0.5742,5.4,0.7978c0,0.0735,0,0.1813,0,0.3358c0,0.6453,-2.2804,0.7756,-2.2804,1.4883c0,0.2868,0.0571,0.6074,0.1432,0.6323c0.0379,0.0109,3.4093,0.0042,3.7266,0.0037c0.3168,0.0005,3.6861,0.0071,3.724,-0.0038c0.086,-0.0248,0.1543,-0.3454,0.1543,-0.6322C10.8677,1.9091,8.6,1.7789,8.6,1.1336z" fill="#797979"/>
        <path d="M10.9699,5.9653l-0.7223,-0.7223c-0.0846,-0.0846,-0.2209,-0.0856,-0.3057,-0.0012L6.0891,9.07L4.0823,7.0406c-0.0406,-0.0411,-0.0848,-0.0534,-0.1426,-0.0535c-0.058,-0.0002,-0.1021,0.0337,-0.143,0.0746l-0.6892,0.6892c-0.0844,0.0844,-0.0959,0.2101,-0.012,0.295l1.9187,1.9304c0.0096,0.0171,0.0216,0.0218,0.0357,0.0359l0.9209,0.9209c0.0424,0.0424,0.0924,0.0691,0.1479,0.0691c0.0553,0,0.1079,-0.0183,0.1502,-0.0603l4.7034,-4.6721c0.0409,-0.0407,0.0625,-0.0945,0.0626,-0.1521C11.035,6.06,11.0107,6.0061,10.9699,5.9653z" fill="#CD4C32"/>
      </g>
    </g>
    <g id="overlay">
      <path d="M8.7375,3.9804L6.326,3.8797c-0.0271,-0.0799,-0.0592,-0.1576,-0.0961,-0.2324l1.6339,-1.7762c0.1025,-0.1025,0.1025,-0.2687,0,-0.3712l-0.3637,-0.3637c-0.1025,-0.1025,-0.2687,-0.1025,-0.3712,0L5.3527,2.7701c-0.0748,-0.037,-0.1525,-0.069,-0.2324,-0.0961L5.0196,0.2625c0,-0.145,-0.1175,-0.2625,-0.2625,-0.2625h-0.5143c-0.145,0,-0.2625,0.1175,-0.2625,0.2625L3.8797,2.674c-0.0799,0.0271,-0.1575,0.0592,-0.2324,0.0961L1.8711,1.1362c-0.1025,-0.1025,-0.2687,-0.1025,-0.3712,0l-0.3637,0.3637c-0.1025,0.1025,-0.1025,0.2687,0,0.3712l1.6339,1.7762c-0.037,0.0748,-0.069,0.1525,-0.0961,0.2324L0.2625,3.9804C0.1175,3.9804,0,4.0979,0,4.2429v0.5143c0,0.145,0.1175,0.2625,0.2625,0.2625l2.4115,0.1007c0.0271,0.0799,0.0592,0.1576,0.0961,0.2324L1.1362,7.1289c-0.1025,0.1025,-0.1025,0.2687,0,0.3712l0.3637,0.3637c0.1025,0.1025,0.2687,0.1025,0.3712,0l1.7762,-1.6339c0.0748,0.037,0.1525,0.069,0.2324,0.0961l0.1007,2.4115c0,0.145,0.1175,0.2625,0.2625,0.2625h0.5143c0.145,0,0.2625,-0.1175,0.2625,-0.2625l0.1007,-2.4115c0.0799,-0.0271,0.1576,-0.0592,0.2324,-0.0961l1.7762,1.6339c0.1025,0.1025,0.2687,0.1025,0.3712,0l0.3637,-0.3637c0.1025,-0.1025,0.1025,-0.2687,0,-0.3712L6.2299,5.3527c0.037,-0.0748,0.069,-0.1525,0.0961,-0.2324l2.4115,-0.1007c0.145,0,0.2625,-0.1175,0.2625,-0.2625v-0.5143C9,4.0979,8.8825,3.9804,8.7375,3.9804zM4.5,5.1c-0.426,0,-0.6,-0.174,-0.6,-0.6c0,-0.426,0.174,-0.6,0.6,-0.6s0.6,0.174,0.6,0.6C5.1,4.926,4.926,5.1,4.5,5.1z" fill-rule="evenodd" fill="#EAB765"/>
    </g>
  </g>
</svg>
