<?xml version="1.0" encoding="UTF-8" standalone="no"?>
<svg
   xmlns:dc="http://purl.org/dc/elements/1.1/"
   xmlns:cc="http://creativecommons.org/ns#"
   xmlns:rdf="http://www.w3.org/1999/02/22-rdf-syntax-ns#"
   xmlns:svg="http://www.w3.org/2000/svg"
   xmlns="http://www.w3.org/2000/svg"
   xmlns:sodipodi="http://sodipodi.sourceforge.net/DTD/sodipodi-0.dtd"
   xmlns:inkscape="http://www.inkscape.org/namespaces/inkscape"
   version="1.1"
   id="Layer_1"
   x="0px"
   y="0px"
   width="16px"
   height="16px"
   viewBox="0 0 16 16"
   enable-background="new 0 0 16 16"
   xml:space="preserve"
   sodipodi:docname="task_16.svg"
   inkscape:version="1.0.2-2 (e86c870879, 2021-01-15)"><metadata
   id="metadata16"><rdf:RDF><cc:Work
       rdf:about=""><dc:format>image/svg+xml</dc:format><dc:type
         rdf:resource="http://purl.org/dc/dcmitype/StillImage" /></cc:Work></rdf:RDF></metadata><defs
   id="defs14" /><sodipodi:namedview
   pagecolor="#ffffff"
   bordercolor="#666666"
   borderopacity="1"
   objecttolerance="10"
   gridtolerance="10"
   guidetolerance="10"
   inkscape:pageopacity="0"
   inkscape:pageshadow="2"
   inkscape:window-width="1920"
   inkscape:window-height="1001"
   id="namedview12"
   showgrid="true"
   inkscape:zoom="51.875"
   inkscape:cx="5.1855422"
   inkscape:cy="7.9445783"
   inkscape:window-x="-9"
   inkscape:window-y="-9"
   inkscape:window-maximized="1"
   inkscape:current-layer="icon"><inkscape:grid
     type="xygrid"
     id="grid18" /></sodipodi:namedview>
  <g
   id="icon"
   transform="translate(-1)"
   inkscape:groupmode="layer">
    <path
   d="m 14.0087,1 h -3.7264 c 0.6431,0.31472 1.6416,0.5380667 1.9596,0.9333333 H 13 V 13.133333 H 3 V 1.9333333 H 3.7358 C 4.1175,1.5305067 5.1739,1.30632 5.7416,1 H 1.9473 C 1.4214,1 1,1.3761333 1,1.8516667 V 14.139 C 1,14.614533 1.4214,15 1.9473,15 h 12.0615 c 0.5259,0 0.9913,-0.385467 0.9913,-0.861 V 1.8516667 C 15,1.3761333 14.5346,1 14.0087,1 Z"
   fill="#eab765"
   id="path2"
   style="stroke-width:0.966092" />
    <path
   d="M 3,2 H 13 V 13 H 3 Z"
   fill-rule="evenodd"
   fill="#ffffff"
   id="path4"
   style="stroke-width:0.957427" />
    <path
   d="M 9.6,1.1336 C 9.6,0.979 9.6,0.8713 9.6,0.7978 9.6,0.5742 9.3122,0 8.8502,0 8.4733,0 7.9857,0 7.9857,0 7.9857,0 7.4981,0 7.1212,0 6.6591,0 6.4,0.5742 6.4,0.7978 c 0,0.0735 0,0.1813 0,0.3358 0,0.6453 -2.2804,0.7756 -2.2804,1.4883 0,0.2868 0.0571,0.6074 0.1432,0.6323 0.0379,0.0109 3.4093,0.0042 3.7266,0.0037 0.3168,5e-4 3.6861,0.0071 3.724,-0.0038 0.086,-0.0248 0.1543,-0.3454 0.1543,-0.6322 C 11.8677,1.9091 9.6,1.7789 9.6,1.1336 Z"
   fill="#797979"
   id="path6"
   style="display:inline" />
    <path
   d="m 11.9699,5.9652777 -0.7223,-0.7223 c -0.0846,-0.0846 -0.2209,-0.0856 -0.3057,-0.0012 l -3.8528,3.8282 -2.0068,-2.0294 c -0.0406,-0.0411 -0.0848,-0.0534 -0.1426,-0.0535 -0.058,-2e-4 -0.1021,0.0337 -0.143,0.0746 l -0.6892,0.6892 c -0.0844,0.0844 -0.0959,0.2101 -0.012,0.295 l 1.9187,1.9304 c 0.0096,0.0171 0.0216,0.0218 0.0357,0.0359 l 0.9209,0.9209 c 0.0424,0.0424 0.0924,0.0691 0.1479,0.0691 0.0553,0 0.1079,-0.0183 0.1502,-0.0603 l 4.7034,-4.6721003 c 0.0409,-0.0407 0.0625,-0.0945 0.0626,-0.1521 10e-5,-0.0577 -0.0242,-0.1116 -0.065,-0.1524 z"
   fill="#cd4c32"
   id="path8"
   style="display:inline" />
  </g>
</svg>
