<?xml version="1.0" encoding="UTF-8"?>
<svg version="1.1" viewBox="0 0 448 512" xmlns="http://www.w3.org/2000/svg">
 <g transform="matrix(.64 0 0 .64 80.64 102.37)">
  <!--!Font Awesome Free 6.6.0 by @fontawesome - https://fontawesome.com License - https://fontawesome.com/license/free Copyright 2024 Fonticons, Inc.-->
  <path d="m246.6 41.4c-12.5-12.5-32.8-12.5-45.3 0l-160 160c-12.5 12.5-12.5 32.8 0 45.3s32.8 12.5 45.3 0l137.4-137.4 137.4 137.3c12.5 12.5 32.8 12.5 45.3 0s12.5-32.8 0-45.3l-160-160zm160 352-160-160c-12.5-12.5-32.8-12.5-45.3 0l-160 160c-12.5 12.5-12.5 32.8 0 45.3s32.8 12.5 45.3 0l137.4-137.4 137.4 137.3c12.5 12.5 32.8 12.5 45.3 0s12.5-32.8 0-45.3z" fill="#D32F2F"/>
 </g>
</svg>
