<?xml version="1.0" encoding="UTF-8"?>
<!DOCTYPE svg PUBLIC "-//W3C//DTD SVG 1.1//EN" "http://www.w3.org/Graphics/SVG/1.1/DTD/svg11.dtd">
<svg version="1.1" id="Layer_1" xmlns="http://www.w3.org/2000/svg" xmlns:xlink="http://www.w3.org/1999/xlink" x="0px" y="0px" width="16px" height="16px" viewBox="0 0 16 16" enable-background="new 0 0 16 16" xml:space="preserve">
  <g id="main">
    <g id="icon">
      <path d="M0.5771,1.071L0.2762,1.265L0.07402,1.555L0,1.912L0,14.08L0.07402,14.44L0.2762,14.73L0.5771,14.93L0.9471,15L7.272,15L6.98,14.63L6.641,14.07L6.368,13.48L6.216,13L2,13L2,2L2.736,2L3.131,1.708L3.669,1.461L4.243,1.234L4.742,1L0.9471,1zM10.38,1.467L10.89,1.712L11.24,2L12,2L12,6.031L12.19,6.043L12.85,6.167L13.48,6.368L14,6.607L14,1.912L13.92,1.555L13.7,1.265L13.39,1.071L13.01,1L9.282,1zz" fill="#787878"/>
      <path d="M5.957,0.0252L5.813,0.09316L5.587,0.315L5.448,0.5789L5.4,0.798L5.4,1.134L5.302,1.354L5.044,1.538L4.26,1.853L3.476,2.18L3.218,2.38L3.146,2.495L3.12,2.622L3.159,3.036L3.204,3.185L3.263,3.254L6.99,3.258L10.71,3.254L10.82,3.036L10.87,2.622L10.77,2.38L10.51,2.179L9.734,1.853L8.954,1.538L8.697,1.354L8.6,1.134L8.6,0.798L8.548,0.5789L8.398,0.315L8.162,0.09316L7.85,0L6.985,0L6.12,0zz" fill="#787878"/>
      <path d="M9.942,5.242L6.089,9.07L4.082,7.041L3.939,6.987L3.796,7.062L3.107,7.751L3.038,7.898L3.095,8.046L5.014,9.976L5.05,10.01L5.971,10.93L6.028,10.96L6.029,10.94L6.112,10.39L6.248,9.866L6.433,9.361L6.665,8.88L6.941,8.427L7.257,8.004L7.613,7.613L8.004,7.257L8.427,6.941L8.88,6.665L9.361,6.433L9.866,6.248L10.39,6.112L10.94,6.029L11,6.026L10.97,5.965L10.25,5.243L10.09,5.179zz" fill="#787878"/>
    </g>
    <g id="overlay">
      <path d="M11.4928,15.9855C9.0155,15.9855,7,13.9701,7,11.4928S9.0155,7,11.4928,7s4.4928,2.0155,4.4928,4.4928S13.9701,15.9855,11.4928,15.9855zM11.4928,8.0401c-1.9038,0,-3.4527,1.5489,-3.4527,3.4527c0,1.9039,1.5489,3.4527,3.4527,3.4527c1.9039,0,3.4527,-1.5489,3.4527,-3.4527C14.9455,9.5889,13.3966,8.0401,11.4928,8.0401z" fill-rule="evenodd" fill="#B4B4B4"/>
      <path d="M11.4928,7.1915c-2.3755,0,-4.3013,1.9258,-4.3013,4.3013c0,2.3755,1.9258,4.3013,4.3013,4.3013s4.3013,-1.9258,4.3013,-4.3013C15.7941,9.1172,13.8683,7.1915,11.4928,7.1915zM11.4928,15.137c-2.0126,0,-3.6442,-1.6316,-3.6442,-3.6442c0,-2.0126,1.6316,-3.6442,3.6442,-3.6442s3.6442,1.6316,3.6442,3.6442C15.137,13.5054,13.5054,15.137,11.4928,15.137z" fill-rule="evenodd" fill="#B4B4B4"/>
      <path d="M13.4291,13.8025c-0.3332,-0.0001,-1.8552,-1.3305,-2.0595,-1.5366c-0.18,-0.1816,-0.3125,-0.3152,-0.2603,-0.4859c-0.019,-0.098,-0.0215,-0.2161,-0.0211,-0.33c0.0007,-0.2121,0.0422,-0.9361,0.1057,-1.5878c0.1331,-1.3672,0.2504,-1.3672,0.3446,-1.3672c0.0949,0.0005,0.2126,0.0011,0.3202,1.3506c0.053,0.6645,0.0795,1.374,0.0788,1.5681c-0.0003,0.0698,-0.0007,0.1379,-0.0033,0.2005c0.0283,0.0265,0.0579,0.0555,0.0894,0.0873c0.1273,0.1284,0.5385,0.5753,0.9124,1.0266c0.6805,0.8215,0.6658,0.9601,0.5865,1.0388C13.5061,13.7831,13.4765,13.8025,13.4291,13.8025L13.4291,13.8025z" fill-rule="evenodd" fill="#B4B4B4"/>
    </g>
  </g>
</svg>
