<?xml version="1.0" encoding="UTF-8"?>
<!DOCTYPE svg PUBLIC "-//W3C//DTD SVG 1.1//EN" "http://www.w3.org/Graphics/SVG/1.1/DTD/svg11.dtd">
<svg version="1.1" id="Layer_1" xmlns="http://www.w3.org/2000/svg" xmlns:xlink="http://www.w3.org/1999/xlink" x="0px" y="0px" width="16px" height="16px" viewBox="0 0 16 16" enable-background="new 0 0 16 16" xml:space="preserve">
  <g id="main">
    <g id="icon">
      <path d="M0.5773,1.071L0.2764,1.265L0.07402,1.555L0,1.913L0,14.08L0.07402,14.44L0.2764,14.73L0.5773,14.93L0.9473,15L7.219,15L7.028,14.73L6.91,14.28L6.95,13.82L7.154,13.38L7.282,13.2L7.117,13.17L6.67,13.01L6.66,13L2,13L2,2L2.736,2L3.13,1.708L3.669,1.461L4.242,1.234L4.742,1L0.9473,1zM10.38,1.468L10.89,1.713L11.24,2L12,2L12,6.023L12.34,6.084L12.74,6.317L13.04,6.671L13.2,7.12L13.25,7.389L13.44,7.259L13.81,7.075L14,7.045L14,1.913L13.92,1.555L13.7,1.265L13.39,1.071L13.01,1L9.282,1zz" fill="#787878"/>
      <path d="M5.958,0.0252L5.813,0.09316L5.587,0.315L5.448,0.5789L5.4,0.7979L5.4,1.134L5.302,1.354L5.044,1.538L4.26,1.853L3.476,2.179L3.218,2.38L3.145,2.495L3.12,2.622L3.159,3.036L3.204,3.185L3.263,3.254L6.989,3.258L10.71,3.254L10.82,3.036L10.87,2.622L10.77,2.38L10.51,2.179L9.734,1.852L8.954,1.538L8.697,1.354L8.6,1.134L8.6,0.7979L8.548,0.5789L8.398,0.315L8.162,0.09316L7.85,0L6.986,0L6.121,0zz" fill="#787878"/>
      <path d="M9.942,5.242L6.089,9.07L4.082,7.041L3.94,6.987L3.797,7.062L3.107,7.751L3.038,7.898L3.096,8.046L5.014,9.976L5.05,10.01L5.971,10.93L6.03,10.96L6.084,10.66L6.316,10.26L6.67,9.96L7.117,9.797L7.363,9.753L7.229,9.564L7.027,9.131L6.987,8.67L7.106,8.222L7.379,7.83L7.882,7.327L8.088,7.157L8.32,7.033L8.572,6.957L8.838,6.931L9.246,6.994L9.616,7.177L9.796,7.304L9.828,7.12L9.991,6.671L10.29,6.317L10.69,6.084L11,6.029L10.97,5.965L10.25,5.243L10.09,5.179zz" fill="#787878"/>
    </g>
    <g id="overlay">
      <path d="M16,11.901v-0.7117c0,-0.1709,-0.1229,-0.3171,-0.2913,-0.3464l-1.0364,-0.1803c-0.0666,-0.2426,-0.1627,-0.481,-0.2881,-0.7109l0.6207,-0.8821c0.0984,-0.1398,0.0819,-0.33,-0.0389,-0.4509l-0.5033,-0.5033c-0.1209,-0.1209,-0.3111,-0.1373,-0.4509,-0.0389l-0.8569,0.6029c-0.2371,-0.1393,-0.4897,-0.2481,-0.7517,-0.3248l-0.185,-1.0632c-0.0293,-0.1684,-0.1754,-0.2913,-0.3464,-0.2913h-0.7118c-0.1709,0,-0.3171,0.1229,-0.3464,0.2913l-0.1802,1.0357c-0.2458,0.0642,-0.4875,0.1577,-0.7208,0.2819l-0.8724,-0.6138c-0.1398,-0.0984,-0.33,-0.0819,-0.4509,0.0389l-0.5033,0.5033c-0.1209,0.1209,-0.1373,0.3111,-0.0389,0.4509l0.5843,0.8304c-0.1491,0.2465,-0.2496,0.5107,-0.3301,0.785l-1.0105,0.1778C7.1226,10.811,7,10.957,7,11.1277v0.713c0,0.1707,0.1226,0.3167,0.2906,0.3462l0.978,0.1721c0.0666,0.2609,0.159,0.5173,0.2932,0.764l-0.5916,0.8368c-0.0988,0.1397,-0.0826,0.3302,0.0382,0.4513l0.5013,0.5024c0.1209,0.1211,0.3114,0.1376,0.4513,0.0391l0.8042,-0.5663c0.2554,0.1527,0.5289,0.2551,0.8134,0.3345l0.1736,0.9884c0.0295,0.1681,0.1756,0.2908,0.3463,0.2908h0.7129c0.1707,0,0.3167,-0.1226,0.3462,-0.2906l0.1722,-0.9787c0.2577,-0.0693,0.5108,-0.1638,0.7542,-0.2994l0.8465,0.5985c0.1397,0.0988,0.3302,0.0826,0.4513,-0.0382l0.5024,-0.5014c0.1211,-0.1209,0.1376,-0.3114,0.0391,-0.4513l-0.585,-0.8307c0.1429,-0.246,0.2535,-0.5079,0.3292,-0.7802l1.0411,-0.1808C15.877,12.2182,16,12.072,16,11.901zM12.2343,12.8625c-0.7309,0.422,-1.6655,0.1716,-2.0875,-0.5593c-0.422,-0.7309,-0.1716,-1.6655,0.5593,-2.0875c0.7309,-0.422,1.6655,-0.1716,2.0875,0.5593C13.2156,11.5059,12.9652,12.4405,12.2343,12.8625z" fill-rule="evenodd" fill="#B4B4B4"/>
    </g>
  </g>
</svg>
