<?xml version="1.0" encoding="UTF-8"?>
<!DOCTYPE svg PUBLIC "-//W3C//DTD SVG 1.1//EN" "http://www.w3.org/Graphics/SVG/1.1/DTD/svg11.dtd">
<svg version="1.1" id="Layer_1" xmlns="http://www.w3.org/2000/svg" xmlns:xlink="http://www.w3.org/1999/xlink" x="0px" y="0px" width="16px" height="16px" viewBox="0 0 16 16" enable-background="new 0 0 16 16" xml:space="preserve">
  <g id="main">
    <g id="icon">
      <path d="M1.038,0.02637L0.7943,0.1023L0.3811,0.3811L0.1023,0.7943L0.02637,1.038L0,1.3L0,3L0,4L0,13.8L0.09434,14.27L0.3518,14.65L0.7332,14.91L1.2,15L9.618,15L9.271,14L1.2,14L1.06,13.94L1,13.8L1,3L14,3L14,9.281L15,9.623L15,4L15,3L15,1.3L14.97,1.038L14.9,0.7943L14.62,0.3811L14.21,0.1023L13.96,0.02637L13.7,0L1.3,0zz" fill="#787878"/>
      <path d="M3,4.5L4,4.5L4,3L3,3zM6,4.5L7,4.5L7,3L6,3zM9,5L7.5,5L7.5,6L9,6L9,7.571L9.274,7.66L10,7.909L10,6L12,6L12,8L10.27,8L13.18,9L14,9L14,8L13,8L13,6L14,6L14,5L13,5L13,3L12,3L12,5L10,5L10,3L9,3zM1,6L2.5,6L2.5,5L1,5zM1,9L2.5,9L2.5,8L1,8zM7.5,8.705L7.527,8.35L7.686,8L7.5,8zM7.5,9L7.549,9L7.5,8.72zM3,11L1,11L1,12L3,12L3,14L4,14L4,12L6,12L6,14L7,14L7,12L8.577,12L8.23,11L7,11L7,9.5L6,9.5L6,11L4,11L4,9.5L3,9.5zM9,14L9.271,14L9,13.22zz" fill="#787878"/>
      <path d="M3,9L7,9L7,5L3,5zM6,6L6,8L4,8L4,6zz" fill="#787878"/>
    </g>
    <g id="overlay">
      <path d="M15.4906,10.8488L8.9313,8.5997c-0.4486,-0.1741,-0.5178,-0.1107,-0.3535,0.353l2.2682,6.5358c0.1868,0.4833,0.431,0.4844,0.7343,-0.01l1.1428,-1.87l2.3712,2.3492c0.2452,0.2449,1.1074,-0.6417,0.8622,-0.8866l-2.348,-2.347l1.872,-1.1416C16.0183,11.2341,16.0183,11.0356,15.4906,10.8488z" fill-rule="evenodd" fill="#B4B4B4"/>
    </g>
  </g>
</svg>
