<?xml version="1.0" encoding="UTF-8"?>
<!DOCTYPE svg PUBLIC "-//W3C//DTD SVG 1.1//EN" "http://www.w3.org/Graphics/SVG/1.1/DTD/svg11.dtd">
<svg version="1.1" id="Layer_1" xmlns="http://www.w3.org/2000/svg" xmlns:xlink="http://www.w3.org/1999/xlink" x="0px" y="0px" width="16px" height="16px" viewBox="0 0 16 16" enable-background="new 0 0 16 16" xml:space="preserve">
  <g id="main">
    <g id="icon">
      <path d="M0.5,13.8L0.5553,14.07L0.7057,14.29L0.9281,14.44L1.2,14.5L6.901,14.5L6.641,14.07L6.368,13.48L6.167,12.85L6.043,12.19L6,11.5L6.029,10.94L6.112,10.39L6.248,9.866L6.433,9.361L6.665,8.88L6.94,8.427L7.257,8.003L7.613,7.613L8.003,7.257L8.427,6.94L8.88,6.665L9.361,6.433L9.866,6.248L10.39,6.112L10.94,6.029L11.5,6L12.19,6.043L12.85,6.167L13.48,6.368L14.07,6.641L14.5,6.901L14.5,2.5L0.5,2.5zz" fill-rule="evenodd" fill="#FFFFFF"/>
      <path d="M1.038,0.02637L0.7943,0.1023L0.3811,0.3811L0.1023,0.7943L0.02637,1.038L0,1.3L0,3L0,4L0,13.8L0.09434,14.27L0.3518,14.65L0.7332,14.91L1.2,15L7.272,15L6.98,14.63L6.641,14.07L6.607,14L1.2,14L1.06,13.94L1,13.8L1,3L14,3L14,6.607L14.07,6.641L14.63,6.98L15,7.272L15,4L15,3L15,1.3L14.97,1.038L14.9,0.7943L14.62,0.3811L14.21,0.1023L13.96,0.02637L13.7,0L1.3,0zz" fill="#797979"/>
      <path d="M3,4.5L4,4.5L4,3L3,3zM6,4.5L7,4.5L7,3L6,3zM9,5L7.5,5L7.5,6L9,6L9,6.607L9.361,6.433L9.866,6.248L10,6.213L10,6L11.5,6L12,6L12,6.031L12.19,6.043L12.85,6.167L13,6.216L13,6L14,6L14,5L13,5L13,3L12,3L12,5L10,5L10,3L9,3zM1,6L2.5,6L2.5,5L1,5zM1,9L2.5,9L2.5,8L1,8zM3,11L1,11L1,12L3,12L3,14L4,14L4,12L6,12L6,14L6.607,14L6.368,13.48L6.167,12.85L6.043,12.19L6,11.5L6.029,10.94L6.112,10.39L6.248,9.866L6.382,9.5L6,9.5L6,11L4,11L4,9.5L3,9.5zz" fill="#B4B4B5"/>
      <path d="M3,9L6.607,9L6.665,8.88L6.94,8.427L7,8.347L7,5L3,5zM6,6L6,8L4,8L4,6zz" fill="#CD4C32"/>
    </g>
    <g id="overlay">
      <path d="M14.683,8.327c-1.755,-1.755,-4.601,-1.755,-6.357,0c-1.755,1.755,-1.755,4.601,0,6.357c1.755,1.755,4.601,1.755,6.357,0C16.439,12.928,16.439,10.082,14.683,8.327zM13.393,9.65c0,0.039,-0.015,0.068,-0.023,0.085l-2.1,4.329c-0.036,0.074,-0.109,0.116,-0.2,0.116h-0.672c-0.041,0,-0.135,0,-0.189,-0.087c-0.041,-0.066,-0.044,-0.129,-0.01,-0.198l1.931,-3.879h-1.998c-0.131,0,-0.201,-0.133,-0.201,-0.258v-0.534c0,-0.121,0.077,-0.196,0.201,-0.196h3.03c0.137,0,0.232,0.081,0.232,0.196V9.65z" fill="#CD4C32"/>
      <path d="M10.397,14.18c-0.041,0,-0.135,0,-0.189,-0.087c-0.041,-0.066,-0.044,-0.129,-0.01,-0.198l1.931,-3.879h-1.998c-0.131,0,-0.201,-0.133,-0.201,-0.258v-0.534c0,-0.121,0.077,-0.196,0.201,-0.196h3.03c0.137,0,0.232,0.081,0.232,0.196v0.424c0,0.039,-0.015,0.068,-0.023,0.085l-2.1,4.329c-0.036,0.074,-0.109,0.116,-0.2,0.116H10.397z" fill="#FFFFFF"/>
    </g>
  </g>
</svg>
