<?xml version="1.0" encoding="UTF-8"?>
<!DOCTYPE svg PUBLIC "-//W3C//DTD SVG 1.1//EN" "http://www.w3.org/Graphics/SVG/1.1/DTD/svg11.dtd">
<svg version="1.1" id="Layer_1" xmlns="http://www.w3.org/2000/svg" xmlns:xlink="http://www.w3.org/1999/xlink" x="0px" y="0px" width="16px" height="16px" viewBox="0 0 16 16" enable-background="new 0 0 16 16" xml:space="preserve">
  <g id="main">
    <g id="icon">
      <path d="M0.5771,1.071L0.2762,1.265L0.07402,1.555L0,1.912L0,14.08L0.07402,14.44L0.2762,14.73L0.5771,14.93L0.9471,15L7.272,15L6.98,14.63L6.641,14.07L6.368,13.48L6.216,13L2,13L2,2L2.736,2L3.131,1.708L3.669,1.461L4.243,1.234L4.742,1L0.9471,1zM10.38,1.467L10.89,1.712L11.24,2L12,2L12,6.031L12.19,6.043L12.85,6.167L13.48,6.368L14,6.607L14,1.912L13.92,1.555L13.7,1.265L13.39,1.071L13.01,1L9.282,1zz" fill="#EAB765"/>
      <path d="M2,13L6.216,13L6.167,12.85L6.043,12.19L6,11.5L6.029,10.94L6.112,10.39L6.248,9.866L6.433,9.361L6.665,8.88L6.941,8.427L7.257,8.004L7.613,7.613L8.004,7.257L8.427,6.941L8.88,6.665L9.361,6.433L9.866,6.248L10.39,6.112L10.94,6.029L11.5,6L12,6.031L12,2L2,2zz" fill-rule="evenodd" fill="#FFFFFF"/>
      <path d="M5.957,0.0252L5.813,0.09316L5.587,0.315L5.448,0.5789L5.4,0.798L5.4,1.134L5.302,1.354L5.044,1.538L4.26,1.853L3.476,2.18L3.218,2.38L3.146,2.495L3.12,2.622L3.159,3.036L3.204,3.185L3.263,3.254L6.99,3.258L10.71,3.254L10.82,3.036L10.87,2.622L10.77,2.38L10.51,2.179L9.734,1.853L8.954,1.538L8.697,1.354L8.6,1.134L8.6,0.798L8.548,0.5789L8.398,0.315L8.162,0.09316L7.85,0L6.985,0L6.12,0zz" fill="#797979"/>
      <path d="M9.942,5.242L6.089,9.07L4.082,7.041L3.939,6.987L3.796,7.062L3.107,7.751L3.038,7.898L3.095,8.046L5.014,9.976L5.05,10.01L5.971,10.93L6.028,10.96L6.029,10.94L6.112,10.39L6.248,9.866L6.433,9.361L6.665,8.88L6.941,8.427L7.257,8.004L7.613,7.613L8.004,7.257L8.427,6.941L8.88,6.665L9.361,6.433L9.866,6.248L10.39,6.112L10.94,6.029L11,6.026L10.97,5.965L10.25,5.243L10.09,5.179zz" fill="#CD4C32"/>
    </g>
    <g id="overlay">
      <path d="M11.5,7c-2.4853,0,-4.5,2.0147,-4.5,4.5c0,2.4853,2.0147,4.5,4.5,4.5s4.5,-2.0147,4.5,-4.5C16,9.0147,13.9853,7,11.5,7zM10.9867,14.0054l-2.3571,-2.4126l0.9353,-0.9554l1.4215,1.4551l2.7426,-2.7834l0.942,0.9622L10.9867,14.0054z" fill-rule="evenodd" fill="#4EA17E"/>
      <polygon points="10.9867,14.0054 14.6709,10.2713 13.729,9.3091 10.9864,12.0925 9.5649,10.6374 8.6296,11.5928" fill="#FFFFFF" stroke-linejoin="miter"/>
    </g>
  </g>
</svg>
