<?xml version="1.0" encoding="UTF-8"?>
<!DOCTYPE svg PUBLIC "-//W3C//DTD SVG 1.1//EN" "http://www.w3.org/Graphics/SVG/1.1/DTD/svg11.dtd">
<svg version="1.1" id="Layer_1" xmlns="http://www.w3.org/2000/svg" xmlns:xlink="http://www.w3.org/1999/xlink" x="0px" y="0px" width="16px" height="16px" viewBox="0 0 16 16" enable-background="new 0 0 16 16" xml:space="preserve">
  <g id="icon">
    <path d="M13.009 1h-3.726c.643.337 1.642.576 1.96 1H12v11H2V2h.736c.382-.432 1.438-.672 2.006-1H.947C.421 1 0 1.403 0 1.912v12.088c0 .509.421.923.947.923h12.061c.526 0 .991-.413.991-.923V1.912C14 1.403 13.535 1 13.009 1z" fill="#EAB765"/>
    <path d="M2 2h10v11H2V2z" fill-rule="evenodd" fill="#FFFFFF"/>
    <path d="M8.6 1.134c0-.155 0-.262 0-.336C8.6.574 8.312 0 7.85 0c-.377 0-.865 0-.865 0s-.488 0-.865 0C5.659 0 5.4.574 5.4.798c0 .073 0 .181 0 .336c0 .645-2.28.776-2.28 1.488c0 .287.057.607.143.632c.038.011 3.409.004 3.727.004c.317.001 3.686.007 3.724-.004c.086-.025.154-.345.154-.632C10.868 1.909 8.6 1.779 8.6 1.134z" fill="#797979"/>
    <path d="M10.97 5.865l-.722-.722c-.085-.085-.221-.086-.306-.001L6.089 8.97 4.082 6.941c-.041-.041-.085-.053-.143-.054c-.058 0-.102.034-.143.075l-.689.689c-.084.084-.096.21-.012.295l1.919 1.93c.01.017.022.022.036.036l.921.921c.042.042.092.069.148.069c.055 0 .108-.018.15-.06l4.703-4.672c.041-.041.063-.094.063-.152C11.035 5.96 11.011 5.906 10.97 5.865z" fill="#CD4C32"/>
  </g>
</svg>
