<?xml version="1.0" encoding="UTF-8"?>
<!DOCTYPE svg PUBLIC "-//W3C//DTD SVG 1.1//EN" "http://www.w3.org/Graphics/SVG/1.1/DTD/svg11.dtd">
<svg version="1.1" id="Layer_1" xmlns="http://www.w3.org/2000/svg" xmlns:xlink="http://www.w3.org/1999/xlink" x="0px" y="0px" width="16px" height="16px" viewBox="0 0 16 16" enable-background="new 0 0 16 16" xml:space="preserve">
  <g id="main">
    <g id="icon">
      <path d="M0.5773,1.071L0.2764,1.265L0.07402,1.555L0,1.913L0,14.08L0.07402,14.44L0.2764,14.73L0.5773,14.93L0.9473,15L7.587,15L7.593,14.97L7.861,14.56L9.394,13L2,13L2,2L2.736,2L3.13,1.708L3.669,1.461L4.242,1.234L4.742,1L0.9473,1zM10.38,1.468L10.89,1.713L11.24,2L12,2L12,7L14,7L14,1.913L13.92,1.555L13.7,1.265L13.39,1.071L13.01,1L9.282,1zz" fill="#EAB765"/>
      <path d="M2,13L9.394,13L10.4,11.98L8.005,9.38L7.756,8.982L7.669,8.522L7.669,8.27L7.695,8.014L7.77,7.776L8.044,7.372L8.451,7.1L8.691,7.026L8.949,7L12,7L12,2L2,2zz" fill-rule="evenodd" fill="#FFFFFF"/>
      <path d="M5.958,0.0252L5.813,0.09316L5.587,0.315L5.448,0.5789L5.4,0.7979L5.4,1.134L5.302,1.354L5.044,1.538L4.26,1.853L3.476,2.179L3.218,2.38L3.145,2.495L3.12,2.622L3.159,3.036L3.204,3.185L3.263,3.254L6.989,3.258L10.71,3.254L10.82,3.036L10.87,2.622L10.77,2.38L10.51,2.179L9.734,1.852L8.954,1.538L8.697,1.354L8.6,1.134L8.6,0.7979L8.548,0.5789L8.398,0.315L8.162,0.09316L7.85,0L6.986,0L6.121,0zz" fill="#797979"/>
      <path d="M 9.5957031,4 C 9.5395851,4.0066 9.4902344,4.052578 9.4902344,4.1191406 v 1.5449219 l -0.125,-0.099609 C 8.6922342,5.0326531 7.827925,4.6738281 7.015625,4.6738281 c -0.9719,0 -1.8777812,0.3821188 -2.5507812,1.0742188 -0.4241001,0.436 -0.7122344,0.9590719 -0.8652344,1.5136719 -0.0209,0.0757 0.036734,0.1503906 0.1152344,0.1503906 h 0.9707031 c 0.0482,0 0.091175,-0.029519 0.109375,-0.074219 0.1096,-0.2694 0.2697219,-0.5231937 0.4824219,-0.7460937 0.4551999,-0.4771 1.0646437,-0.7402344 1.7148437,-0.7402344 0.4255,0 0.8429313,0.113725 1.2070313,0.328125 0.0028,0.0017 0.00511,0.00406 0.00781,0.00586 L 8.5273438,6.40625 7.1855469,6.4023438 c -0.1071,-2.001e-4 -0.1603844,0.1298781 -0.083984,0.2050781 L 7.884766,7.3769531 c 0.0223,0.0221 0.052584,0.035156 0.083984,0.035156 H 8.017578 L 8.0449219,7.3710938 8.4511719,7.0996094 8.6914062,7.0253906 8.9492188,7 H 10.5 V 4.890625 c 0,-0.0318 -0.01276,-0.061584 -0.03516,-0.083984 L 9.6933594,4.0351562 C 9.6651219,4.0068813 9.629374,3.996042 9.5957031,4 Z M 3.6191406,9.1347656 C 3.5530406,9.1347656 3.5,9.1878062 3.5,9.2539062 V 11.65625 c 0,0.0317 0.012756,0.06158 0.035156,0.08398 l 0.7714844,0.769532 c 0.0753,0.0753 0.203125,0.02251 0.203125,-0.08399 V 10.88085 l 0.1269532,0.09961 c 0.673,0.5319 1.5353562,0.890625 2.3476562,0.890625 0.9167202,0 1.7743663,-0.337758 2.4335938,-0.957032 L 8.6230469,10.050781 c -0.442756,0.4153 -1.0107621,0.642578 -1.6152344,0.642578 -0.4255,0 -0.8430313,-0.113725 -1.2070313,-0.328125 -0.0029,-0.0017 -0.00511,-0.002 -0.00781,-0.0039 l -0.3203126,-0.220703 1.3417969,0.0039 c 0.1071,3e-4 0.1603844,-0.129978 0.083984,-0.2050779 L 6.1152344,9.1679688 c -0.0224,-0.022 -0.052584,-0.033203 -0.083984,-0.033203 z" fill="#529FBF"/>
    </g>
    <g id="overlay">
      <path d="M8.78,16c-0.154,0,-0.28,-0.121,-0.28,-0.27v-0.283c0,-0.069,0.027,-0.135,0.076,-0.186l3.204,-3.265L8.74,8.702c-0.046,-0.05,-0.071,-0.114,-0.071,-0.18V8.27c0,-0.149,0.125,-0.27,0.28,-0.27h6.099c0.147,0,0.27,0.111,0.279,0.253c0.012,0.182,0.076,1.025,0.141,1.661c0.015,0.147,-0.092,0.277,-0.244,0.295l-0.375,0.045c-0.012,0.001,-0.023,0.002,-0.035,0.002c-0.124,0,-0.235,-0.081,-0.269,-0.196c-0.158,-0.536,-0.27,-0.723,-0.411,-0.864l-0.009,-0.009c-0.107,-0.118,-0.361,-0.275,-1.336,-0.275h-1.659l2.315,2.513c0.096,0.104,0.095,0.26,-0.002,0.362l-2.618,2.777h2.872c0.712,0,1.015,-0.037,1.386,-0.959c0.042,-0.104,0.144,-0.172,0.26,-0.172c0.022,0,0.044,0.003,0.066,0.008l0.375,0.087c0.073,0.017,0.137,0.063,0.175,0.126c0.037,0.062,0.048,0.134,0.03,0.203l-0.504,1.938c-0.031,0.12,-0.143,0.204,-0.271,0.204H8.78z" fill="#6D6E71"/>
    </g>
  </g>
</svg>
