<?xml version="1.0" encoding="UTF-8"?>
<!DOCTYPE svg PUBLIC "-//W3C//DTD SVG 1.1//EN" "http://www.w3.org/Graphics/SVG/1.1/DTD/svg11.dtd">
<svg version="1.1" id="Layer_1" xmlns="http://www.w3.org/2000/svg" xmlns:xlink="http://www.w3.org/1999/xlink" x="0px" y="0px" width="16px" height="16px" viewBox="0 0 16 16" enable-background="new 0 0 16 16" xml:space="preserve">
  <g id="main">
    <g id="icon">
      <path d="M2.758,2.532L2.462,2.624L2.194,2.769L1.961,2.961L1.769,3.194L1.624,3.462L1.532,3.758L1.5,4.075L1.5,11.92L1.532,12.24L1.624,12.54L1.769,12.81L1.961,13.04L2.194,13.23L2.462,13.38L2.758,13.47L3.075,13.5L12.92,13.5L13.24,13.47L13.54,13.38L13.81,13.23L14.04,13.04L14.23,12.81L14.38,12.54L14.47,12.24L14.5,11.92L14.5,7.655L13.54,7.098L13.54,8.5L13.51,8.802L13.42,9.083L13.28,9.338L13.1,9.56L12.87,9.744L12.62,9.882L12.34,9.97L12.04,10L11.73,9.97L11.45,9.882L11.2,9.744L10.98,9.56L10.79,9.338L10.65,9.083L10.57,8.802L10.54,8.5L10.54,7.098L9.322,7.799L8.96,7.949L8.572,8L8.181,7.948L7.822,7.798L7.513,7.562L7.272,7.25L7.148,6.973L7.083,6.686L7.076,6.396L7.123,6.112L7.224,5.842L7.375,5.595L7.575,5.378L7.822,5.201L9.036,4.5L7.822,3.799L7.576,3.622L7.376,3.405L7.224,3.158L7.123,2.888L7.076,2.604L7.079,2.5L3.075,2.5zz" fill="#F5F5F5"/>
      <path d="M2.597,2.041L2.221,2.157L1.882,2.342L1.586,2.586L1.342,2.882L1.157,3.221L1.041,3.597L1,4L1,5.038L1,12L1.041,12.4L1.157,12.78L1.342,13.12L1.586,13.41L1.882,13.66L2.221,13.84L2.597,13.96L3,14L13,14L13.4,13.96L13.78,13.84L14.12,13.66L14.41,13.41L14.66,13.12L14.84,12.78L14.96,12.4L15,12L15,7.903L14.75,7.799L14,7.366L14,12L13.92,12.39L13.71,12.71L13.39,12.92L13,13L3,13L2.611,12.92L2.293,12.71L2.079,12.39L2,12L2,5.876L7.763,9.44L8,9.5L8.237,9.44L10.54,8.018L10.54,7.098L9.322,7.799L8.96,7.949L8.738,7.978L8,8.432L2,4.74L2,4L2.079,3.611L2.293,3.293L2.611,3.079L3,3L7.165,3L7.123,2.888L7.076,2.604L7.083,2.314L7.148,2.027L7.16,2L3,2zz" fill="#404040"/>
    </g>
    <g id="overlay">
      <path d="M15.7499,6.067L13.0358,4.5l2.7141,-1.567c0.2391,-0.1381,0.3211,-0.4439,0.183,-0.683c-0.1381,-0.2391,-0.4439,-0.3211,-0.683,-0.183l-2.7141,1.567V0.5c0,-0.2761,-0.2239,-0.5,-0.5,-0.5s-0.5,0.2239,-0.5,0.5v3.134L8.8217,2.067c-0.2391,-0.1381,-0.5449,-0.0561,-0.683,0.183c-0.1381,0.2391,-0.0561,0.5449,0.183,0.683L11.0358,4.5L8.3217,6.067c-0.2391,0.1381,-0.3211,0.4439,-0.183,0.683c0.1381,0.2391,0.4439,0.3211,0.683,0.183l2.7141,-1.567V8.5c0,0.2761,0.2239,0.5,0.5,0.5s0.5,-0.2239,0.5,-0.5V5.366l2.7141,1.567c0.2391,0.1381,0.5449,0.0561,0.683,-0.183C16.071,6.5109,15.9891,6.2051,15.7499,6.067z" fill="#F59E0B"/>
    </g>
  </g>
</svg>
