<?xml version="1.0" encoding="UTF-8"?>
<!DOCTYPE svg PUBLIC "-//W3C//DTD SVG 1.1//EN" "http://www.w3.org/Graphics/SVG/1.1/DTD/svg11.dtd">
<svg version="1.1" id="Layer_1" xmlns="http://www.w3.org/2000/svg" xmlns:xlink="http://www.w3.org/1999/xlink" x="0px" y="0px" width="16px" height="16px" viewBox="0 0 16 16" enable-background="new 0 0 16 16" xml:space="preserve">
  <g id="icon">
    <path d="M12.35,12.5h-8.7c-1.1874,0,-2.15,-0.9626,-2.15,-2.15v-4.7C1.5,4.4626,2.4626,3.5,3.65,3.5h8.7c1.1874,0,2.15,0.9626,2.15,2.15v4.7C14.5,11.5374,13.5374,12.5,12.35,12.5z" id="b" fill="#E5E5E5"/>
    <path d="M6.5,10.5c0,-0.2761,0.2239,-0.5,0.5,-0.5h0.5V6H6v0.5c0,0.2761,-0.2239,0.5,-0.5,0.5s-0.5,-0.2239,-0.5,-0.5V5.5c0,-0.2761,0.2239,-0.5,0.5,-0.5h5c0.2761,0,0.5,0.2239,0.5,0.5v1c0,0.2761,-0.2239,0.5,-0.5,0.5s-0.5,-0.2239,-0.5,-0.5v-0.5H8.5v4h0.5c0.2761,0,0.5,0.2239,0.5,0.5s-0.2239,0.5,-0.5,0.5H7C6.7239,11,6.5,10.7761,6.5,10.5zM1,5.5c0,-1.3807,1.1193,-2.5,2.5,-2.5h9c1.3807,0,2.5,1.1193,2.5,2.5v5c0,1.3807,-1.1193,2.5,-2.5,2.5H3.5c-1.3807,0,-2.5,-1.1193,-2.5,-2.5V5.5zM3.5,4c-0.8284,0,-1.5,0.6716,-1.5,1.5v5c0,0.8284,0.6716,1.5,1.5,1.5h9c0.8284,0,1.5,-0.6716,1.5,-1.5V5.5c0,-0.8284,-0.6716,-1.5,-1.5,-1.5H3.5z" id="c1" fill="#404040"/>
  </g>
</svg>
