<?xml version="1.0" encoding="UTF-8"?>
<!DOCTYPE svg PUBLIC "-//W3C//DTD SVG 1.1//EN" "http://www.w3.org/Graphics/SVG/1.1/DTD/svg11.dtd">
<svg version="1.1" id="Layer_1" xmlns="http://www.w3.org/2000/svg" xmlns:xlink="http://www.w3.org/1999/xlink" x="0px" y="0px" width="16px" height="16px" viewBox="0 0 16 16" enable-background="new 0 0 16 16" xml:space="preserve">
  <g id="main">
    <g id="icon">
      <path d="M4.157,2.542L3.767,2.663L3.415,2.854L3.108,3.108L2.854,3.415L2.663,3.767L2.542,4.157L2.5,4.575L2.5,12.42L2.542,12.84L2.663,13.23L2.854,13.59L3.108,13.89L3.415,14.15L3.767,14.34L4.157,14.46L4.575,14.5L7,14.5L7,9.333L7.047,8.864L7.184,8.426L7.399,8.03L7.684,7.684L8.03,7.399L8.426,7.184L8.864,7.047L9.333,7L14.6,7L14.6,4.575L14.56,4.157L14.44,3.767L14.25,3.415L13.99,3.108L13.69,2.854L13.33,2.663L12.94,2.542L12.52,2.5L4.575,2.5zz" fill="#E5E5E5"/>
      <path d="M3.996,2.051L3.527,2.196L3.102,2.427L2.732,2.732L2.427,3.102L2.196,3.527L2.051,3.996L2,4.5L2,12.5L2.051,13L2.196,13.47L2.427,13.9L2.732,14.27L3.102,14.57L3.527,14.8L3.996,14.95L4.5,15L7.026,15L7,14.67L7,14L4.5,14L4.198,13.97L3.916,13.88L3.661,13.74L3.439,13.56L3.256,13.34L3.118,13.08L3.03,12.8L3,12.5L3,6L14,6L14,7L14.67,7L15,7.026L15,4.5L14.95,3.996L14.8,3.527L14.57,3.102L14.27,2.732L13.9,2.427L13.47,2.196L13,2.051L12.5,2L4.5,2zM12.5,3L12.8,3.03L13.08,3.118L13.34,3.256L13.56,3.439L13.74,3.661L13.88,3.916L13.97,4.198L14,4.5L14,5L3,5L3,4.5L3.03,4.198L3.118,3.916L3.256,3.661L3.439,3.439L3.661,3.256L3.916,3.118L4.198,3.03L4.5,3zz" fill="#404040"/>
      <path d="M5.305,1.039L5.146,1.146L5.039,1.305L5,1.5L5,3.5L5.039,3.695L5.146,3.854L5.305,3.961L5.5,4L5.695,3.961L5.854,3.854L5.961,3.695L6,3.5L6,1.5L5.961,1.305L5.854,1.146L5.695,1.039L5.5,1zM11.31,1.039L11.15,1.146L11.04,1.305L11,1.5L11,3.5L11.04,3.695L11.15,3.854L11.31,3.961L11.5,4L11.69,3.961L11.85,3.854L11.96,3.695L12,3.5L12,1.5L11.96,1.305L11.85,1.146L11.69,1.039L11.5,1zz" fill="#404040"/>
      <path d="M4.611,7.079L4.293,7.293L4.079,7.611L4,8L4.079,8.389L4.293,8.707L4.611,8.921L5,9L5.389,8.921L5.707,8.707L5.921,8.389L6,8L5.921,7.611L5.707,7.293L5.389,7.079L5,7zz" fill="#404040"/>
    </g>
    <g id="overlay">
      <path d="M13.6579,14.1966c-0.1441,0,-0.2794,-0.056,-0.3812,-0.1577l-1.2771,-1.2769l-1.2771,1.2769c-0.1017,0.1017,-0.237,0.1577,-0.3811,0.1577c-0.1835,0,-0.3533,-0.0927,-0.4542,-0.248c-0.1366,-0.2104,-0.1028,-0.4959,0.0803,-0.679L11.2374,12l-1.2698,-1.2696c-0.1832,-0.183,-0.2169,-0.4686,-0.0803,-0.679c0.1009,-0.1553,0.2707,-0.248,0.4542,-0.248c0.1441,0,0.2794,0.056,0.3812,0.1577l1.2771,1.2769l1.2699,-1.2697c0.1043,-0.1043,0.2478,-0.1641,0.3937,-0.1641c0.1022,0,0.2009,0.029,0.2854,0.0838c0.1386,0.09,0.228,0.2349,0.2451,0.3974c0.0171,0.1628,-0.0393,0.3224,-0.1547,0.4378L12.7619,12l1.2698,1.2696c0.1832,0.1831,0.2169,0.4686,0.0804,0.679C14.0112,14.1039,13.8414,14.1966,13.6579,14.1966z" id="b" fill="#FFFFFF"/>
      <path d="M14.6667,8H9.3333C8.5981,8,8,8.5981,8,9.3333v5.3333C8,15.4019,8.5981,16,9.3333,16h5.3333c0.7352,0,1.3333,-0.5981,1.3333,-1.3333V9.3333C16,8.5981,15.4019,8,14.6667,8zM14.0317,13.2696c0.1832,0.1831,0.2169,0.4686,0.0804,0.679c-0.1009,0.1553,-0.2707,0.248,-0.4542,0.248c-0.1441,0,-0.2794,-0.056,-0.3812,-0.1577l-1.2771,-1.2769l-1.2771,1.2769c-0.1017,0.1017,-0.237,0.1577,-0.3811,0.1577c-0.1835,0,-0.3533,-0.0927,-0.4542,-0.248c-0.1366,-0.2104,-0.1028,-0.4959,0.0803,-0.679L11.2374,12l-1.2698,-1.2696c-0.1832,-0.183,-0.2169,-0.4686,-0.0803,-0.679c0.1009,-0.1553,0.2707,-0.248,0.4542,-0.248c0.1441,0,0.2794,0.056,0.3812,0.1577l1.2771,1.2769l1.2699,-1.2697c0.1043,-0.1043,0.2478,-0.1641,0.3937,-0.1641c0.1022,0,0.2009,0.029,0.2854,0.0838c0.1386,0.09,0.228,0.2349,0.2451,0.3974c0.0171,0.1628,-0.0393,0.3224,-0.1547,0.4378L12.7619,12L14.0317,13.2696z" id="c1" fill="#212121"/>
    </g>
  </g>
</svg>
