<?xml version="1.0" encoding="UTF-8"?>
<!DOCTYPE svg PUBLIC "-//W3C//DTD SVG 1.1//EN" "http://www.w3.org/Graphics/SVG/1.1/DTD/svg11.dtd">
<svg version="1.1" id="Layer_1" xmlns="http://www.w3.org/2000/svg" xmlns:xlink="http://www.w3.org/1999/xlink" x="0px" y="0px" width="16px" height="16px" viewBox="0 0 16 16" enable-background="new 0 0 16 16" xml:space="preserve">
  <g id="icon">
    <path d="M14.5,8c0,3.5899,-2.9101,6.5,-6.5,6.5s-6.5,-2.9101,-6.5,-6.5s2.9101,-6.5,6.5,-6.5S14.5,4.4101,14.5,8z" id="b" fill="#F5F5F5"/>
    <path d="M8,15c-3.8598,0,-7,-3.1402,-7,-7s3.1402,-7,7,-7s7,3.1402,7,7S11.8598,15,8,15zM8,2.0597c-3.2755,0,-5.9403,2.6648,-5.9403,5.9403S4.7245,13.9403,8,13.9403S13.9403,11.2755,13.9403,8S11.2755,2.0597,8,2.0597z" id="c1" fill="#0E7490"/>
    <path d="M6.1037,11.3c-0.2903,0,-0.6037,-0.2298,-0.6037,-0.6011V5.3011C5.5,4.9298,5.8133,4.7,6.1036,4.7c0.1024,0,0.2014,0.0264,0.2942,0.0783l4.8201,2.699c0.1923,0.1076,0.307,0.3031,0.307,0.5228c0,0.2196,-0.1148,0.415,-0.3071,0.5227l-4.8201,2.6988C6.305,11.2736,6.2061,11.3,6.1037,11.3z" id="c1" fill="#0E7490"/>
  </g>
</svg>
