<?xml version="1.0" encoding="UTF-8"?>
<!DOCTYPE svg PUBLIC "-//W3C//DTD SVG 1.1//EN" "http://www.w3.org/Graphics/SVG/1.1/DTD/svg11.dtd">
<svg version="1.1" id="Layer_1" xmlns="http://www.w3.org/2000/svg" xmlns:xlink="http://www.w3.org/1999/xlink" x="0px" y="0px" width="16px" height="16px" viewBox="0 0 16 16" enable-background="new 0 0 16 16" xml:space="preserve">
  <g id="main">
    <g id="icon">
      <path d="M4.157,2.542L3.767,2.663L3.415,2.854L3.108,3.108L2.854,3.415L2.663,3.767L2.542,4.157L2.5,4.575L2.5,12.42L2.542,12.84L2.663,13.23L2.854,13.59L3.108,13.89L3.415,14.15L3.767,14.34L4.157,14.46L4.575,14.5L8.546,14.5L8.44,14.3L8.344,13.99L8.301,13.62L8.3,13.6L8.3,6.108L8.361,5.526L8.477,5.223L8.684,4.94L9.074,4.671L9.539,4.578L9.859,4.62L10.14,4.728L10.59,5.044L14.6,8.265L14.6,4.575L14.56,4.157L14.44,3.767L14.25,3.415L13.99,3.108L13.69,2.854L13.33,2.663L12.94,2.542L12.52,2.5L4.575,2.5zM11.04,14.5L11.64,14.5L11.46,14.13zz" fill="#F5F5F5"/>
      <path d="M3.996,2.051L3.527,2.196L3.102,2.427L2.732,2.732L2.427,3.102L2.196,3.527L2.051,3.996L2,4.5L2,12.5L2.051,13L2.196,13.47L2.427,13.9L2.732,14.27L3.102,14.57L3.527,14.8L3.996,14.95L4.5,15L9.078,15L8.968,14.94L8.76,14.78L8.582,14.57L8.44,14.3L8.348,14L4.5,14L4.198,13.97L3.916,13.88L3.661,13.74L3.439,13.56L3.256,13.34L3.118,13.08L3.03,12.8L3,12.5L3,6L8.312,6L8.361,5.526L8.477,5.223L8.64,5L3,5L3,4.5L3.03,4.198L3.118,3.916L3.256,3.661L3.439,3.439L3.661,3.256L3.916,3.118L4.198,3.03L4.5,3L12.5,3L12.8,3.03L13.08,3.118L13.34,3.256L13.56,3.439L13.74,3.661L13.88,3.916L13.97,4.198L14,4.5L14,5L10.53,5L10.59,5.044L11.78,6L14,6L14,7.782L15,8.587L15,4.5L14.95,3.996L14.8,3.527L14.57,3.102L14.27,2.732L13.9,2.427L13.47,2.196L13,2.051L12.5,2L4.5,2zM14.8,12.44L14.97,12.8L15,12.5L15,12.4zM10.88,14.65L10.58,14.87L10.33,15L11.89,15L11.46,14.13zz" fill="#404040"/>
      <path d="M5.305,1.039L5.146,1.146L5.039,1.305L5,1.5L5,3.5L5.039,3.695L5.146,3.854L5.305,3.961L5.5,4L5.695,3.961L5.854,3.854L5.961,3.695L6,3.5L6,1.5L5.961,1.305L5.854,1.146L5.695,1.039L5.5,1zM11.31,1.039L11.15,1.146L11.04,1.305L11,1.5L11,3.5L11.04,3.695L11.15,3.854L11.31,3.961L11.5,4L11.69,3.961L11.85,3.854L11.96,3.695L12,3.5L12,1.5L11.96,1.305L11.85,1.146L11.69,1.039L11.5,1zz" fill="#404040"/>
      <path d="M4.611,7.079L4.293,7.293L4.079,7.611L4,8L4.079,8.389L4.293,8.707L4.611,8.921L5,9L5.389,8.921L5.707,8.707L5.921,8.389L6,8L5.921,7.611L5.707,7.293L5.389,7.079L5,7zz" fill="#404040"/>
    </g>
    <g id="overlay">
      <path d="M13.6787,16c-0.1653,0,-0.234,-0.0717,-0.2625,-0.1319l-1.6282,-3.3685l-1.5576,1.3858c-0.2077,0.1764,-0.3896,0.2653,-0.5419,0.2653c-0.1374,0,-0.3706,-0.0741,-0.3884,-0.57l0,-7.4726c-0.0021,-0.2516,0.0293,-0.3976,0.1019,-0.4726c0.0365,-0.0377,0.0838,-0.0577,0.1369,-0.0577c0.1025,0,0.2265,0.07,0.4146,0.2341l5.7217,4.6008c0.2522,0.207,0.3505,0.3643,0.3192,0.5108c-0.0345,0.1614,-0.2163,0.2731,-0.6081,0.3733l-2.0388,0.4248l1.6067,3.3585c0.0248,0.0524,0.0393,0.139,-0.0319,0.2555C14.7399,15.6336,14.0543,16,13.6787,16C13.6787,16,13.6787,16,13.6787,16z" id="c1" fill="#404040"/>
    </g>
  </g>
</svg>
