<?xml version="1.0" encoding="UTF-8"?>
<!DOCTYPE svg PUBLIC "-//W3C//DTD SVG 1.1//EN" "http://www.w3.org/Graphics/SVG/1.1/DTD/svg11.dtd">
<svg version="1.1" id="Layer_1" xmlns="http://www.w3.org/2000/svg" xmlns:xlink="http://www.w3.org/1999/xlink" x="0px" y="0px" width="16px" height="16px" viewBox="0 0 16 16" enable-background="new 0 0 16 16" xml:space="preserve">
  <g id="main">
    <g id="icon">
      <path d="M5.911,1.579L5.593,1.793L5.379,2.111L5.3,2.5L3.7,2.5L3.233,2.594L2.852,2.852L2.594,3.233L2.5,3.7L2.5,13.3L2.594,13.77L2.852,14.15L3.233,14.41L3.7,14.5L7.091,14.5L6.932,14.26L6.669,13.74L6.462,13.2L6.4,12.83L6.447,12.47L6.599,12.13L6.848,11.85L7.245,11.51L6.847,11.17L6.599,10.89L6.447,10.56L6.399,10.19L6.462,9.82L6.669,9.279L6.932,8.765L7.247,8.282L7.615,7.831L7.813,7.655L8.04,7.524L8.29,7.443L8.553,7.415L8.978,7.489L9.474,7.666L9.569,7.151L9.69,6.795L9.905,6.497L10.2,6.274L10.55,6.142L11.12,6.052L11.7,6.022L12.28,6.052L12.85,6.142L13.2,6.273L13.49,6.497L13.5,6.505L13.5,3.7L13.41,3.233L13.15,2.852L12.77,2.594L12.3,2.5L10.7,2.5L10.62,2.111L10.41,1.793L10.09,1.579L9.7,1.5L6.3,1.5zM11.48,11.29L11.39,11.51L11.48,11.73L11.7,11.82L11.92,11.73L12.01,11.51L11.92,11.29L11.7,11.2zz" fill="#F5F5F5"/>
      <path d="M5.833,1.074L5.427,1.282L5.104,1.598L4.888,2L3.7,2L3.358,2.035L3.039,2.134L2.75,2.291L2.498,2.498L2.291,2.75L2.134,3.039L2.035,3.358L2,3.7L2,13.3L2.035,13.64L2.134,13.96L2.291,14.25L2.498,14.5L2.75,14.71L3.039,14.87L3.358,14.97L3.7,15L7.46,15L7.247,14.74L6.932,14.26L6.8,14L3.7,14L3.428,13.94L3.205,13.79L3.055,13.57L3,13.3L3,3.7L3.055,3.428L3.205,3.205L3.428,3.055L3.7,3L4.888,3L5.104,3.402L5.427,3.718L5.833,3.926L6.3,4L9.7,4L10.17,3.926L10.57,3.718L10.9,3.402L11.11,3L12.3,3L12.57,3.055L12.79,3.205L12.94,3.428L13,3.7L13,6.198L13.2,6.273L13.49,6.497L13.71,6.795L13.83,7.151L13.92,7.666L14,7.639L14,3.7L13.97,3.358L13.87,3.039L13.71,2.75L13.5,2.498L13.25,2.291L12.96,2.134L12.64,2.035L12.3,2L11.11,2L10.9,1.598L10.57,1.282L10.17,1.074L9.7,1L6.3,1zM9.7,2L9.895,2.039L10.05,2.147L10.16,2.305L10.2,2.5L10.16,2.695L10.05,2.853L9.895,2.961L9.7,3L6.3,3L6.105,2.961L5.947,2.853L5.839,2.695L5.8,2.5L5.839,2.305L5.947,2.147L6.105,2.039L6.3,2zz" fill="#404040"/>
      <path d="M5.36,8.421L5.204,8.529L5.088,8.703L5.05,8.9L5.088,9.098L5.204,9.271L6.441,10.51L6.399,10.19L6.462,9.82L6.669,9.279L6.678,9.261L5.946,8.529L5.887,8.478L5.72,8.396L5.538,8.376zz" fill="#404040"/>
    </g>
    <g id="overlay">
      <path d="M7.4129,10.1288c0.1957,-0.6032,0.5181,-1.1568,0.9435,-1.6261c0.0719,-0.0793,0.1848,-0.1076,0.2858,-0.0716l1.0166,0.3622c0.2756,0.0982,0.5789,-0.0449,0.6774,-0.3196c0.0097,-0.027,0.0171,-0.0548,0.0223,-0.0829l0.1937,-1.0594c0.0193,-0.1053,0.1004,-0.1887,0.2055,-0.2109c0.3075,-0.0652,0.6228,-0.0984,0.9422,-0.0984c0.3192,0,0.6343,0.0331,0.9416,0.0983c0.1051,0.0223,0.1862,0.1055,0.2055,0.2108l0.1942,1.0596c0.0525,0.2869,0.3285,0.4771,0.6164,0.4248c0.0283,-0.0051,0.0562,-0.0126,0.0832,-0.0222l1.0167,-0.3622c0.1011,-0.036,0.214,-0.0077,0.2859,0.0716c0.4254,0.4692,0.7478,1.0229,0.9435,1.6261c0.0331,0.1018,0.0012,0.2133,-0.0806,0.2825l-0.824,0.6972c-0.2232,0.1888,-0.2504,0.5221,-0.0609,0.7444c0.0186,0.0219,0.039,0.0422,0.0609,0.0607l0.824,0.6972c0.0818,0.0692,0.1137,0.1808,0.0806,0.2825c-0.1957,0.6032,-0.5181,1.1569,-0.9435,1.6261c-0.0719,0.0793,-0.1848,0.1076,-0.2859,0.0716l-1.0166,-0.3623c-0.2756,-0.0981,-0.5789,0.045,-0.6774,0.3196c-0.0097,0.027,-0.0171,0.0547,-0.0223,0.083l-0.1942,1.0595c-0.0193,0.1053,-0.1005,0.1886,-0.2055,0.2108C12.3343,15.9669,12.0192,16,11.7,16c-0.3194,0,-0.6347,-0.0332,-0.9422,-0.0983c-0.1051,-0.0223,-0.1863,-0.1056,-0.2055,-0.211l-0.1937,-1.0594c-0.0525,-0.2869,-0.3285,-0.4771,-0.6165,-0.4248c-0.0283,0.0052,-0.0562,0.0126,-0.0832,0.0222l-1.0167,0.3623c-0.101,0.036,-0.2139,0.0077,-0.2858,-0.0716c-0.4254,-0.4693,-0.7478,-1.0229,-0.9435,-1.6261c-0.033,-0.1018,-0.0012,-0.2133,0.0806,-0.2825l0.824,-0.6972c0.2231,-0.1888,0.2504,-0.5221,0.0609,-0.7444c-0.0186,-0.0219,-0.039,-0.0422,-0.0609,-0.0607l-0.824,-0.6972C7.4117,10.3421,7.3798,10.2305,7.4129,10.1288zM10.3912,11.511c0,0.7233,0.5859,1.3097,1.3087,1.3097s1.3087,-0.5864,1.3087,-1.3097s-0.5859,-1.3097,-1.3087,-1.3097S10.3912,10.7876,10.3912,11.511z" id="c1" fill="#404040"/>
    </g>
  </g>
</svg>
