<?xml version="1.0" encoding="UTF-8"?>
<!DOCTYPE svg PUBLIC "-//W3C//DTD SVG 1.1//EN" "http://www.w3.org/Graphics/SVG/1.1/DTD/svg11.dtd">
<svg version="1.1" id="Layer_1" xmlns="http://www.w3.org/2000/svg" xmlns:xlink="http://www.w3.org/1999/xlink" x="0px" y="0px" width="16px" height="16px" viewBox="0 0 16 16" enable-background="new 0 0 16 16" xml:space="preserve">
  <g id="main">
    <g id="icon">
      <path d="M5.911,1.579L5.593,1.793L5.379,2.111L5.3,2.5L3.7,2.5L3.233,2.594L2.852,2.852L2.594,3.233L2.5,3.7L2.5,13.3L2.594,13.77L2.852,14.15L3.233,14.41L3.7,14.5L6.932,14.5L6.677,14.08L6.406,13.49L6.206,12.86L6.082,12.2L6.04,11.52L6.068,10.96L6.152,10.42L6.287,9.892L6.471,9.389L6.702,8.91L6.977,8.458L7.293,8.036L7.647,7.647L8.036,7.293L8.458,6.977L8.91,6.702L9.389,6.471L9.892,6.287L10.42,6.152L10.96,6.068L11.52,6.04L12.2,6.082L12.86,6.206L13.49,6.406L13.5,6.411L13.5,3.7L13.41,3.233L13.15,2.852L12.77,2.594L12.3,2.5L10.7,2.5L10.62,2.111L10.41,1.793L10.09,1.579L9.7,1.5L6.3,1.5zz" fill="#F5F5F5"/>
      <path d="M5.833,1.074L5.427,1.282L5.104,1.598L4.888,2L3.7,2L3.358,2.035L3.039,2.134L2.75,2.291L2.498,2.498L2.291,2.75L2.134,3.039L2.035,3.358L2,3.7L2,13.3L2.035,13.64L2.134,13.96L2.291,14.25L2.498,14.5L2.75,14.71L3.039,14.87L3.358,14.97L3.7,15L7.301,15L7.014,14.63L6.677,14.08L6.64,14L3.7,14L3.428,13.94L3.205,13.79L3.055,13.57L3,13.3L3,3.7L3.055,3.428L3.205,3.205L3.428,3.055L3.7,3L4.888,3L5.104,3.402L5.427,3.718L5.833,3.926L6.3,4L9.7,4L10.17,3.926L10.57,3.718L10.9,3.402L11.11,3L12.3,3L12.57,3.055L12.79,3.205L12.94,3.428L13,3.7L13,6.25L13.49,6.406L14,6.64L14,3.7L13.97,3.358L13.87,3.039L13.71,2.75L13.5,2.498L13.25,2.291L12.96,2.134L12.64,2.035L12.3,2L11.11,2L10.9,1.598L10.57,1.282L10.17,1.074L9.7,1L6.3,1zM9.7,2L9.895,2.039L10.05,2.147L10.16,2.305L10.2,2.5L10.16,2.695L10.05,2.853L9.895,2.961L9.7,3L6.3,3L6.105,2.961L5.947,2.853L5.839,2.695L5.8,2.5L5.839,2.305L5.947,2.147L6.105,2.039L6.3,2zz" fill="#404040"/>
      <path d="M5.36,8.421L5.204,8.529L5.088,8.703L5.05,8.9L5.088,9.098L5.204,9.271L6.192,10.26L6.287,9.892L6.471,9.389L6.58,9.163L5.946,8.529L5.887,8.478L5.72,8.396L5.538,8.376zz" fill="#404040"/>
    </g>
    <g id="overlay">
      <path d="M11.4716,12.0219c-0.2396,0,-0.4445,-0.1789,-0.4767,-0.4162l-0.0013,-0.0092l-0.0031,-0.1206l-0.0001,-2.5302c0,-0.2278,0.1491,-0.4233,0.3626,-0.4754c0.0391,-0.0096,0.0803,-0.0144,0.1222,-0.0144c0.2336,0,0.5074,0.159,0.5421,0.4161l0.0012,0.0112l0.0033,0.0479v2.0593h1.3768c0.2278,0,0.4234,0.1491,0.4755,0.3626c0.0367,0.1501,0.0028,0.3215,-0.0905,0.4584c-0.0794,0.1164,-0.1899,0.1896,-0.3112,0.206l-0.0112,0.0012l-0.0479,0.0033H11.4716z" id="b" fill="#FFFFFF"/>
      <path d="M11.52,7.04c-2.4743,0,-4.48,2.0061,-4.48,4.48c0,2.4739,2.0057,4.48,4.48,4.48s4.48,-2.0061,4.48,-4.48C16,9.0461,13.9943,7.04,11.52,7.04zM13.7836,11.8115c-0.0794,0.1164,-0.1899,0.1896,-0.3112,0.206l-0.0112,0.0012l-0.0479,0.0033h-1.9417c-0.2396,0,-0.4445,-0.1789,-0.4767,-0.4162l-0.0013,-0.0092l-0.0031,-0.1206l-0.0001,-2.5302c0,-0.2278,0.1491,-0.4233,0.3626,-0.4754c0.0391,-0.0096,0.0803,-0.0144,0.1222,-0.0144c0.2336,0,0.5074,0.159,0.5421,0.4161l0.0012,0.0112l0.0033,0.0479v2.0593h1.3768c0.2278,0,0.4234,0.1491,0.4755,0.3626C13.9108,11.5032,13.877,11.6746,13.7836,11.8115z" fill="#404040"/>
    </g>
  </g>
</svg>
