<?xml version="1.0" encoding="UTF-8"?>
<!DOCTYPE svg PUBLIC "-//W3C//DTD SVG 1.1//EN" "http://www.w3.org/Graphics/SVG/1.1/DTD/svg11.dtd">
<svg version="1.1" id="Layer_1" xmlns="http://www.w3.org/2000/svg" xmlns:xlink="http://www.w3.org/1999/xlink" x="0px" y="0px" width="16px" height="16px" viewBox="0 0 16 16" enable-background="new 0 0 16 16" xml:space="preserve">
  <g id="main">
    <g id="icon">
      <path d="M2,13L7.521,13L7.812,12.6L8.244,12.14L8.784,11.72L8.603,10.95L8.542,10.15L8.6,9.396L8.625,9.3L4.8,9.3L4.8,7.7L9.3,7.7L9.3,7.851L9.441,7.677L9.932,7.299L10.52,7.024L11.2,6.857L11.98,6.8L12,6.8L12,4L2,4zz" fill="#FFFFFF" opacity="0.4"/>
      <path d="M1,14L7.038,14L7.046,13.97L7.225,13.53L7.477,13.06L7.521,13L2,13L2,3.5L1,3.5zM12,6.8L12.01,6.8L12.78,6.857L13,6.91L13,3.5L12,3.5zM5.198,7.03L4.917,7.118L4.662,7.256L4.44,7.44L4.256,7.662L4.118,7.917L4.03,8.198L4,8.5L4.03,8.802L4.118,9.083L4.256,9.338L4.44,9.56L4.662,9.744L4.917,9.882L5.198,9.97L5.5,10L8.5,10L8.554,9.995L8.6,9.396L8.716,8.946L8.695,8.961L8.5,9L5.5,9L5.305,8.961L5.147,8.853L5.039,8.695L5,8.5L5.039,8.305L5.147,8.147L5.305,8.039L5.5,8L8.5,8L8.695,8.039L8.853,8.147L8.961,8.305L8.966,8.333L9.053,8.155L9.441,7.677L9.634,7.529L9.56,7.44L9.338,7.256L9.083,7.118L8.802,7.03L8.5,7L5.5,7zz" fill="#6D6E71"/>
      <path d="M0,4L14,4L14,0L0,0zz" fill="#52B4C0"/>
    </g>
    <g id="overlay">
      <path d="M15.4006,15.5084c0.0639,0,0.1143,-0.0512,0.1095,-0.1112l-0.0148,-0.1843c-0.052,-0.6475,-0.378,-1.827,-1.9768,-2.4507c-0.3674,-0.148,-0.5422,-0.4696,-0.3674,-0.7035c0.4369,-0.5555,0.6109,-1.269,0.6109,-1.92c0,-1.0081,-0.3159,-1.6467,-1.7263,-1.6467h-0.0274c-1.4049,0,-1.7196,0.6386,-1.7196,1.6467c0,0.651,0.1733,1.3645,0.6085,1.92c0.1741,0.2339,0,0.5555,-0.366,0.7035c-1.5925,0.6237,-1.9172,1.8032,-1.969,2.4507l-0.0147,0.1843c-0.0048,0.06,0.0454,0.1112,0.1091,0.1112H15.4006z" fill="#FFFFFF" opacity="0.5"/>
      <path d="M8.6274,16c-0.1763,0,-0.3453,-0.0737,-0.4639,-0.2024c-0.1163,-0.1261,-0.1752,-0.296,-0.1615,-0.4662l0.0147,-0.183c0.0615,-0.763,0.4415,-2.1508,2.2956,-2.8726c0.0211,-0.0085,0.0388,-0.0175,0.0537,-0.0261c-0.4029,-0.5717,-0.6242,-1.3142,-0.6242,-2.0981c0,-0.9237,0.232,-2.1517,2.2378,-2.1517h0.0274c2.0118,0,2.2445,1.228,2.2445,2.1517c0,0.7837,-0.2219,1.526,-0.6259,2.0976c0.0154,0.009,0.034,0.0185,0.0562,0.0274c1.8586,0.7207,2.2398,2.1086,2.3015,2.8717l0.0148,0.183c0.0138,0.1701,-0.0451,0.3399,-0.1614,0.4661c-0.1187,0.1287,-0.288,0.2025,-0.4645,0.2025H8.6274zM14.9126,14.9667c-0.1164,-0.5634,-0.4947,-1.2964,-1.6101,-1.7284c-0.3703,-0.1481,-0.6444,-0.4273,-0.7337,-0.747c-0.0733,-0.2624,-0.0238,-0.5264,0.1395,-0.7433l0.0064,-0.0083c0.3231,-0.4079,0.5008,-0.9716,0.5008,-1.5879c0,-0.8253,-0.1826,-1.1183,-1.2085,-1.1183h-0.0274c-1.0202,0,-1.2017,0.293,-1.2017,1.1183c0,0.6167,0.1767,1.1802,0.4976,1.5868l0.0067,0.0087c0.1635,0.218,0.213,0.4823,0.1396,0.7447c-0.0893,0.3192,-0.3606,0.5974,-0.7259,0.744c-1.115,0.4336,-1.4926,1.1672,-1.6085,1.7308H14.9126z" fill="#6485C3"/>
    </g>
  </g>
</svg>
