<?xml version="1.0" encoding="UTF-8"?>
<!DOCTYPE svg PUBLIC "-//W3C//DTD SVG 1.1//EN" "http://www.w3.org/Graphics/SVG/1.1/DTD/svg11.dtd">
<svg version="1.1" id="Layer_1" xmlns="http://www.w3.org/2000/svg" xmlns:xlink="http://www.w3.org/1999/xlink" x="0px" y="0px" width="16px" height="16px" viewBox="0 0 16 16" enable-background="new 0 0 16 16" xml:space="preserve">
  <g id="main">
    <g id="icon">
      <path d="M6.616,0.5602L6.242,0.6756L5.904,0.8582L5.609,1.1L5.365,1.393L5.182,1.729L5.065,2.101L5.025,2.5L4.3,2.5L3.5,2.5L1.5,2.5L1.5,13.5L5.8,13.5L5.8,12.06L5.701,12.06L5.8,11.03L5.8,10.94L5.809,10.94L5.827,10.75L5.902,10.22L6.024,9.714L6.401,8.767L6.941,7.923L7.624,7.2L8.436,6.61L9.357,6.17L10.37,5.895L11.46,5.8L12.48,5.883L12.5,5.888L12.5,2.5L10.5,2.5L9.2,2.5L9.011,2.5L8.97,2.101L8.854,1.729L8.67,1.393L8.427,1.1L8.132,0.8582L7.794,0.6756L7.42,0.5602L7.018,0.5199zz" fill="#FFFFFF" opacity="0.5"/>
      <path d="M1,14L5.8,14L5.8,13L2,13L2,3L4.3,3L4.495,2.961L4.654,2.854L4.761,2.695L4.8,2.5L4.761,2.305L4.654,2.146L4.495,2.039L4.3,2L1,2zM9.005,2.039L8.846,2.146L8.739,2.305L8.7,2.5L8.739,2.695L8.846,2.854L9.005,2.961L9.2,3L12,3L12,5.844L12.48,5.883L13,6.016L13,2L9.2,2zz" fill="#6D6E71"/>
      <path d="M6.565,0.5836L6.196,0.7406L5.868,0.9744L5.586,1.262L5.356,1.579L5.185,1.904L5.078,2.213L5.041,2.483L3.4,2.483L3.4,4.45L10.5,4.45L10.5,2.483L8.895,2.483L8.858,2.213L8.751,1.904L8.58,1.579L8.35,1.262L8.068,0.9744L7.74,0.7406L7.371,0.5836L6.968,0.526zz" fill="#B7B7B7" opacity="0.4"/>
      <path d="M6.577,0.05879L6.162,0.1707L5.778,0.3488L5.433,0.5867L5.134,0.8775L4.887,1.214L4.698,1.591L4.576,2L3,2L3,5L11,5L11,2L9.46,2L9.337,1.591L9.149,1.214L8.902,0.8775L8.602,0.5867L8.257,0.3488L7.874,0.1707L7.459,0.05879L7.018,0.01992zM7.318,1.05L7.598,1.137L7.852,1.273L8.073,1.454L8.255,1.673L8.393,1.924L8.48,2.202L8.511,2.5L8.511,3L10,3L10,4L4,4L4,3L5.525,3L5.525,2.5L5.555,2.202L5.643,1.924L5.78,1.673L5.963,1.454L6.184,1.273L6.437,1.137L6.717,1.05L7.018,1.02zz" fill="#6D6E71"/>
      <path d="M9.841,6.039L10.37,5.895L10.43,5.89L10.21,5.673zM2.921,8.667L5.758,11.47L5.8,11.03L5.8,10.94L5.809,10.94L5.827,10.75L5.902,10.22L6.024,9.714L6.069,9.601L4.009,7.566zz" fill="#CB525D"/>
    </g>
    <g id="overlay">
      <path d="M14.65,7.0121V8.222C13.7217,7.4009,12.6418,7,11.4622,7C9.109,7,7.2359,8.6071,7.021,10.864h1.3595c0.2076,-1.4894,1.4742,-2.5086,3.054,-2.5086c0.9149,0,1.7992,0.4053,2.4808,1.1604h-1.7725v1.3482H16v-3.852H14.65z" fill="#6485C3"/>
      <path d="M14.618,12.148c-0.2127,1.4829,-1.4769,2.4965,-3.0525,2.4965c-0.9149,0,-1.7992,-0.4053,-2.4808,-1.1604h1.7725V12.136H7v3.852h1.35V14.778c0.9283,0.8211,2.0082,1.222,3.1878,1.222c2.349,0,4.2199,-1.6013,4.4402,-3.852H14.618z" fill="#6485C3"/>
    </g>
  </g>
</svg>
