<?xml version="1.0" encoding="UTF-8"?>
<!DOCTYPE svg PUBLIC "-//W3C//DTD SVG 1.1//EN" "http://www.w3.org/Graphics/SVG/1.1/DTD/svg11.dtd">
<svg version="1.1" id="Layer_1" xmlns="http://www.w3.org/2000/svg" xmlns:xlink="http://www.w3.org/1999/xlink" x="0px" y="0px" width="16px" height="16px" viewBox="0 0 16 16" enable-background="new 0 0 16 16" xml:space="preserve">
  <g id="main">
    <g id="icon">
      <path d="M10.04,3.172L10.16,3.825L10.2,4.5L10.17,5.082L10.08,5.647L9.943,6.193L9.751,6.717L9.511,7.215L9.225,7.685L8.897,8.124L8.529,8.529L8.124,8.897L7.685,9.225L7.215,9.511L6.717,9.751L6.193,9.943L5.647,10.08L5.082,10.17L4.5,10.2L3.825,10.16L3.5,10.1L3.5,15.5L14.5,15.5L14.5,4.5L12.5,4.5L11.2,4.5L11.01,4.5L10.97,4.101L10.85,3.729L10.67,3.393L10.43,3.1L10.13,2.858L9.913,2.74zz" fill="#FFFFFF" opacity="0.5"/>
      <path d="M11.01,4.039L10.85,4.146L10.74,4.305L10.7,4.5L10.74,4.695L10.85,4.854L11.01,4.961L11.2,5L14,5L14,15L4,15L4,10.17L3.825,10.16L3.172,10.04L3,9.992L3,16L15,16L15,4L11.2,4zz" fill="#6D6E71"/>
      <path d="M10.04,3.172L10.16,3.825L10.2,4.5L10.17,5.082L10.08,5.647L9.943,6.193L9.849,6.45L12.5,6.45L12.5,4.483L10.89,4.483L10.86,4.213L10.75,3.904L10.58,3.579L10.35,3.262L10.07,2.974L9.961,2.898zz" fill="#B7B7B7" opacity="0.4"/>
      <path d="M9.855,2.548L10.04,3.172L10.1,3.486L10.26,3.673L10.39,3.924L10.48,4.202L10.51,4.5L10.51,5L12,5L12,6L9.993,6L9.943,6.193L9.751,6.717L9.615,7L13,7L13,4L11.46,4L11.34,3.591L11.15,3.214L10.9,2.878L10.6,2.587L10.26,2.349L9.874,2.171L9.668,2.115zz" fill="#6D6E71"/>
      <path d="M8.16,11.69L6.338,9.89L6.193,9.943L5.647,10.08L5.471,10.11L4.921,10.67L8.162,13.87L13.3,8.772L12.21,7.673zz" fill="#CB525D"/>
    </g>
    <g id="overlay">
      <path d="M4.5,0C2.0147,0,0,2.0147,0,4.5s2.0147,4.5,4.5,4.5c2.4853,0,4.5,-2.0147,4.5,-4.5S6.9853,0,4.5,0zM6.7931,5.2652L5.2,3.7114V7.6H3.8V3.7114L2.2069,5.2652l-0.9837,-0.9262L4.5,1.1228l3.2767,3.2161L6.7931,5.2652z" fill="#CB525D"/>
      <polygon points="1.2233,4.3389 2.2069,5.2652 3.8,3.7114 3.8,7.6 5.2,7.6 5.2,3.7114 6.7931,5.2652 7.7767,4.3389 4.5,1.1228" fill="#FFFFFF" stroke-linejoin="miter"/>
    </g>
  </g>
</svg>
