<?xml version="1.0" encoding="UTF-8"?>
<!DOCTYPE svg PUBLIC "-//W3C//DTD SVG 1.1//EN" "http://www.w3.org/Graphics/SVG/1.1/DTD/svg11.dtd">
<svg version="1.1" id="Layer_1" xmlns="http://www.w3.org/2000/svg" xmlns:xlink="http://www.w3.org/1999/xlink" x="0px" y="0px" width="16px" height="16px" viewBox="0 0 16 16" enable-background="new 0 0 16 16" xml:space="preserve">
  <g id="main">
    <g id="icon">
      <path d="M6.616,0.5602L6.242,0.6756L5.904,0.8582L5.609,1.1L5.365,1.393L5.182,1.729L5.065,2.101L5.025,2.5L4.3,2.5L3.5,2.5L1.5,2.5L1.5,13.5L6.571,13.5L6.4,13.41L6.199,13.24L6.033,13.04L5.907,12.81L5.828,12.55L5.8,12.28L5.8,11.02L5.828,10.75L5.907,10.49L6.033,10.26L6.199,10.06L6.4,9.89L6.631,9.764L6.887,9.685L7.16,9.657L7.386,9.657L7.745,9.03L7.618,8.798L7.51,8.547L7.455,8.288L7.495,7.776L7.722,7.316L7.901,7.122L8.122,6.962L9.193,6.334L9.524,6.195L9.88,6.147L10.24,6.196L10.57,6.337L10.85,6.558L11.07,6.852L11.18,7.047L11.5,7.035L11.84,7.048L11.97,6.825L12.19,6.542L12.47,6.328L12.5,6.315L12.5,2.5L10.5,2.5L9.2,2.5L9.011,2.5L8.97,2.101L8.854,1.729L8.67,1.393L8.427,1.1L8.132,0.8582L7.794,0.6756L7.42,0.5602L7.018,0.5199zz" fill="#FFFFFF" opacity="0.5"/>
      <path d="M1,14L7.593,14L7.386,13.64L7.16,13.64L6.887,13.61L6.631,13.53L6.4,13.41L6.199,13.24L6.033,13.04L6.012,13L2,13L2,3L4.3,3L4.495,2.961L4.654,2.854L4.761,2.695L4.8,2.5L4.761,2.305L4.654,2.146L4.495,2.039L4.3,2L1,2zM9.005,2.039L8.846,2.146L8.739,2.305L8.7,2.5L8.739,2.695L8.846,2.854L9.005,2.961L9.2,3L12,3L12,6.787L12.19,6.542L12.47,6.328L12.79,6.193L13,6.165L13,2L9.2,2zz" fill="#6D6E71"/>
      <path d="M6.565,0.5836L6.196,0.7406L5.868,0.9744L5.586,1.262L5.356,1.579L5.185,1.904L5.078,2.213L5.041,2.483L3.4,2.483L3.4,4.45L10.5,4.45L10.5,2.483L8.895,2.483L8.858,2.213L8.751,1.904L8.58,1.579L8.35,1.262L8.068,0.9744L7.74,0.7406L7.371,0.5836L6.968,0.526zz" fill="#B7B7B7" opacity="0.4"/>
      <path d="M6.577,0.05879L6.162,0.1707L5.778,0.3488L5.433,0.5867L5.134,0.8775L4.887,1.214L4.698,1.591L4.576,2L3,2L3,5L11,5L11,2L9.46,2L9.337,1.591L9.149,1.214L8.902,0.8775L8.602,0.5867L8.257,0.3488L7.874,0.1707L7.459,0.05879L7.018,0.01992zM7.318,1.05L7.598,1.137L7.852,1.273L8.073,1.454L8.255,1.673L8.393,1.924L8.48,2.202L8.511,2.5L8.511,3L10,3L10,4L4,4L4,3L5.525,3L5.525,2.5L5.555,2.202L5.643,1.924L5.78,1.673L5.963,1.454L6.184,1.273L6.437,1.137L6.717,1.05L7.018,1.02zz" fill="#6D6E71"/>
      <path d="M9.709,6.17L9.88,6.147L10.24,6.196L10.57,6.337L10.85,6.558L11.07,6.852L11.12,6.947L11.3,6.772L10.21,5.673zM2.921,8.667L5.8,11.51L5.8,11.02L5.828,10.75L5.907,10.49L6.033,10.26L6.199,10.06L6.4,9.89L6.631,9.764L6.887,9.685L7.16,9.657L7.386,9.657L7.745,9.03L7.618,8.798L7.51,8.547L7.475,8.386L6.16,9.691L4.009,7.566zz" fill="#CB525D"/>
    </g>
    <g id="overlay">
      <path d="M12.4597,14.9205c-0.3104,0.0938,-0.633,0.1414,-0.9597,0.1414s-0.6493,-0.0476,-0.9597,-0.1414l-0.5211,0.9748c-0.0431,0.0806,-0.1427,0.1092,-0.2207,0.0635l-1.0714,-0.6284c-0.0756,-0.0443,-0.1026,-0.1421,-0.0608,-0.2202l0.525,-0.9821c-0.478,-0.4593,-0.8088,-1.041,-0.9599,-1.6879H7.1603c-0.0886,0,-0.1603,-0.0732,-0.1603,-0.1636v-1.256c0,-0.0904,0.0718,-0.1636,0.1603,-0.1636h1.0711c0.1511,-0.6469,0.4819,-1.2286,0.9599,-1.6879l-0.5224,-0.9497c-0.043,-0.0782,-0.0163,-0.1772,0.0599,-0.2219l1.0714,-0.6285c0.0773,-0.0454,0.1761,-0.0176,0.2197,0.0618l0.5203,0.9459c0.3104,-0.0938,0.633,-0.1414,0.9597,-0.1414s0.6493,0.0476,0.9597,0.1414l0.5501,-0.9507c0.0447,-0.0772,0.1419,-0.1033,0.218,-0.0587l1.0714,0.6285c0.0774,0.0454,0.1035,0.1465,0.0582,0.225l-0.5487,0.9484c0.478,0.4593,0.8088,1.041,0.9599,1.6879h1.0712c0.0886,0,0.1603,0.0732,0.1603,0.1636v1.256c0,0.0904,-0.0718,0.1636,-0.1603,0.1636h-1.0712c-0.1511,0.6469,-0.4818,1.2286,-0.9599,1.6879l0.5514,0.9808c0.044,0.0783,0.0176,0.1782,-0.0592,0.2232l-1.0714,0.6285c-0.0768,0.0451,-0.1749,0.018,-0.219,-0.0604L12.4597,14.9205zM11.5001,9.9651c-0.9098,0,-1.6499,0.7552,-1.6499,1.6835s0.7402,1.6835,1.6499,1.6835s1.6499,-0.7552,1.6499,-1.6835S12.4098,9.9651,11.5001,9.9651z" fill="#6485C3"/>
    </g>
  </g>
</svg>
