<?xml version="1.0" encoding="UTF-8"?>
<!DOCTYPE svg PUBLIC "-//W3C//DTD SVG 1.1//EN" "http://www.w3.org/Graphics/SVG/1.1/DTD/svg11.dtd">
<svg version="1.1" id="Layer_1" xmlns="http://www.w3.org/2000/svg" xmlns:xlink="http://www.w3.org/1999/xlink" x="0px" y="0px" width="16px" height="16px" viewBox="0 0 16 16" enable-background="new 0 0 16 16" xml:space="preserve">
  <g id="main">
    <g id="icon">
      <path d="M0.5,13.5L8,13.5L8,3.522L13.5,7.894L13.5,3.5L0.5,3.5zz" fill="#FFFFFF" opacity="0.4"/>
      <path d="M0,14L8,14L8,13L1,13L1,4L8,4L8,3.522L8.602,4L13,4L13,7.496L14,8.291L14,3L0,3zz" fill="#6D6E71"/>
      <path d="M3,2L4,2L4,0L3,0zM10,2L11,2L11,0L10,0zz" fill="#6D6E71"/>
      <path d="M5,7L2,7L2,12L8,12L8,11L6,11L6,10L8,10L8,9L6,9L6,8L8,8L8,7L6,7L6,6L8,6L8,5L5,5zM12,6.701L12,5L9.86,5zM5,8L5,9L3,9L3,8zM5,10L5,11L3,11L3,10zz" fill="#7B7B7B"/>
      <path d="M0,4L8,4L8,3.522L8.602,4L14,4L14,0L12,0L12,2L9,2L9,0L5,0L5,2L2,2L2,0L0,0zz" fill="#9070B1"/>
      <path d="M5,10L8,10L8,9L6,9L6,8L8,8L8,7L5,7zz" fill="#CB525D"/>
      <path d="M6,9L8,9L8,8L6,8zz" fill="#CB525D" opacity="0.3"/>
    </g>
    <g id="overlay">
      <path d="M13.0188,12.0495l1.6288,3.2573L13.2668,16l-1.6507,-3.2673L9.2,14.7456v-8.737l6.8,5.4051L13.0188,12.0495z" fill="#6485C3"/>
    </g>
  </g>
</svg>
