<?xml version="1.0" encoding="UTF-8"?>
<!DOCTYPE svg PUBLIC "-//W3C//DTD SVG 1.1//EN" "http://www.w3.org/Graphics/SVG/1.1/DTD/svg11.dtd">
<svg version="1.1" id="Layer_1" xmlns="http://www.w3.org/2000/svg" xmlns:xlink="http://www.w3.org/1999/xlink" x="0px" y="0px" width="16px" height="16px" viewBox="0 0 16 16" enable-background="new 0 0 16 16" xml:space="preserve">
  <g id="main">
    <g id="icon">
      <path d="M3.111,2.579L2.793,2.793L2.579,3.111L2.5,3.5L2.5,4.5L2.579,4.889L2.793,5.207L3.111,5.421L3.5,5.5L3.5,11.5L3.541,11.9L3.657,12.28L3.842,12.62L4.086,12.91L4.382,13.16L4.721,13.34L5.097,13.46L5.5,13.5L11.5,13.5L11.9,13.46L12.28,13.34L12.62,13.16L12.91,12.91L13.16,12.62L13.34,12.28L13.46,11.9L13.5,11.5L13.5,9.988L13.14,9.949L12.71,9.803L12.32,9.573L12,9.271L11.68,9.573L11.29,9.803L10.86,9.949L10.4,10L9.111,10L8.686,9.958L8.29,9.837L7.932,9.645L7.619,9.391L7.361,9.084L7.166,8.731L7.043,8.341L7,7.923L7,3.839L7.045,3.414L7.176,3.01L7.387,2.641L7.512,2.5L3.5,2.5zz" fill="#F5F5F5"/>
      <path d="M3.198,2.03L2.917,2.118L2.662,2.256L2.44,2.44L2.256,2.662L2.118,2.917L2.03,3.198L2,3.5L2,4.5L2.03,4.802L2.118,5.083L2.256,5.338L2.44,5.56L2.662,5.744L2.917,5.882L3.198,5.97L3.5,6L7,6L7,5L3.5,5L3.305,4.961L3.147,4.853L3.039,4.695L3,4.5L3,3.5L3.039,3.305L3.147,3.147L3.305,3.039L3.5,3L7.182,3L7.387,2.641L7.673,2.319L8.021,2L3.5,2zz" fill="#404040"/>
      <path d="M3,11.5L3.051,12L3.197,12.47L3.428,12.9L3.733,13.27L4.103,13.57L4.528,13.8L4.997,13.95L5.5,14L11.5,14L12,13.95L12.47,13.8L12.9,13.57L13.27,13.27L13.57,12.9L13.8,12.47L13.95,12L14,11.5L14,10L13.61,10L13.14,9.949L13,9.902L13,11.5L12.97,11.8L12.88,12.08L12.74,12.34L12.56,12.56L12.34,12.74L12.08,12.88L11.8,12.97L11.5,13L5.5,13L5.198,12.97L4.917,12.88L4.662,12.74L4.44,12.56L4.256,12.34L4.118,12.08L4.03,11.8L4,11.5L4,6L7,6L7,5L3,5zz" fill="#404040"/>
      <path d="M6.305,8.039L6.146,8.146L6.039,8.305L6,8.5L6.039,8.695L6.146,8.854L6.305,8.961L6.5,9L7.315,9L7.166,8.731L7.043,8.341L7.008,8L6.5,8zz" fill="#404040"/>
    </g>
    <g id="overlay">
      <path d="M13.6049,8.5438c-0.354,0,-0.642,-0.2784,-0.642,-0.6205V6.0581c0,-0.3435,-0.288,-0.623,-0.642,-0.623h-0.642c-0.354,0,-0.642,0.2795,-0.642,0.623v1.8652c0,0.3422,-0.288,0.6205,-0.642,0.6205h-1.284c-0.354,0,-0.642,-0.2784,-0.642,-0.6205V3.8389c0,-0.1696,0.0731,-0.3338,0.2005,-0.4505L11.779,0.5413c0.0599,-0.0549,0.1384,-0.0851,0.221,-0.0851s0.1611,0.0302,0.221,0.0851l3.1094,2.8472c0.1274,0.1166,0.2005,0.2808,0.2005,0.4505v4.0844c0,0.3422,-0.288,0.6205,-0.642,0.6205H13.6049z" id="b" fill="#FFFFFF"/>
      <path d="M13.6049,9c-0.6127,0,-1.1111,-0.483,-1.1111,-1.0767V6.0581c0,-0.092,-0.0775,-0.1668,-0.1728,-0.1668h-0.642c-0.0953,0,-0.1728,0.0748,-0.1728,0.1668v1.8653c0,0.5937,-0.4985,1.0767,-1.1111,1.0767h-1.284C8.4985,9,8,8.517,8,7.9233V3.8389c0,-0.2949,0.1268,-0.58,0.348,-0.7826l3.1094,-2.8471C11.6046,0.0743,11.7974,0,12,0s0.3954,0.0743,0.5426,0.2092l3.1094,2.8472c0.2212,0.2025,0.348,0.4877,0.348,0.7825v4.0845C16,8.517,15.5015,9,14.8889,9H13.6049zM12.321,4.9814c0.6127,0,1.1111,0.483,1.1111,1.0766v1.8653c0,0.092,0.0775,0.1668,0.1728,0.1668h1.284c0.0953,0,0.1728,-0.0748,0.1728,-0.1668V3.8389c0,-0.0456,-0.0196,-0.0897,-0.0539,-0.121L12,0.9637L8.9921,3.7179c-0.0342,0.0314,-0.0539,0.0754,-0.0539,0.121v4.0845c0,0.092,0.0775,0.1668,0.1728,0.1668h1.284c0.0953,0,0.1728,-0.0748,0.1728,-0.1668V6.0581c0,-0.5936,0.4985,-1.0766,1.1111,-1.0766H12.321z" fill="#0E7490"/>
    </g>
  </g>
</svg>
