<?xml version="1.0" encoding="UTF-8"?>
<!DOCTYPE svg PUBLIC "-//W3C//DTD SVG 1.1//EN" "http://www.w3.org/Graphics/SVG/1.1/DTD/svg11.dtd">
<svg version="1.1" id="Layer_1" xmlns="http://www.w3.org/2000/svg" xmlns:xlink="http://www.w3.org/1999/xlink" x="0px" y="0px" width="16px" height="16px" viewBox="0 0 16 16" enable-background="new 0 0 16 16" xml:space="preserve">
  <g id="main">
    <g id="icon">
      <path d="M3.111,2.579L2.793,2.793L2.579,3.111L2.5,3.5L2.5,4.5L2.579,4.889L2.793,5.207L3.111,5.421L3.5,5.5L3.5,11.5L3.541,11.9L3.657,12.28L3.842,12.62L4.086,12.91L4.382,13.16L4.721,13.34L5.097,13.46L5.5,13.5L6.378,13.5L6.368,13.48L6.167,12.85L6.043,12.19L6,11.5L6.029,10.94L6.112,10.39L6.248,9.866L6.433,9.361L6.665,8.88L6.941,8.427L7.257,8.004L7.613,7.613L8.004,7.257L8.427,6.941L8.88,6.665L9.361,6.433L9.866,6.248L10.39,6.112L10.94,6.029L11.5,6L12.19,6.043L12.85,6.167L13.48,6.368L13.5,6.378L13.5,5.5L13.89,5.421L14.21,5.207L14.42,4.889L14.5,4.5L14.5,3.5L14.42,3.111L14.21,2.793L13.89,2.579L13.5,2.5L3.5,2.5zz" fill="#F5F5F5"/>
      <path d="M3.198,2.03L2.917,2.118L2.662,2.256L2.44,2.44L2.256,2.662L2.118,2.917L2.03,3.198L2,3.5L2,4.5L2.03,4.802L2.118,5.083L2.256,5.338L2.44,5.56L2.662,5.744L2.917,5.882L3.198,5.97L3.5,6L11.5,6L13.5,6L13.8,5.97L14.08,5.882L14.34,5.744L14.56,5.56L14.74,5.338L14.88,5.083L14.97,4.802L15,4.5L15,3.5L14.97,3.198L14.88,2.917L14.74,2.662L14.56,2.44L14.34,2.256L14.08,2.118L13.8,2.03L13.5,2L3.5,2zM13.5,3L13.69,3.039L13.85,3.147L13.96,3.305L14,3.5L14,4.5L13.96,4.695L13.85,4.853L13.69,4.961L13.5,5L3.5,5L3.305,4.961L3.147,4.853L3.039,4.695L3,4.5L3,3.5L3.039,3.305L3.147,3.147L3.305,3.039L3.5,3zz" fill="#404040"/>
      <path d="M3,11.5L3.051,12L3.197,12.47L3.428,12.9L3.733,13.27L4.103,13.57L4.528,13.8L4.997,13.95L5.5,14L6.607,14L6.368,13.48L6.216,13L5.5,13L5.198,12.97L4.917,12.88L4.662,12.74L4.44,12.56L4.256,12.34L4.118,12.08L4.03,11.8L4,11.5L4,6L11.5,6L13,6L13,6.216L13.48,6.368L14,6.607L14,5L3,5zz" fill="#404040"/>
      <path d="M6.305,8.039L6.146,8.146L6.039,8.305L6,8.5L6.039,8.695L6.146,8.854L6.305,8.961L6.5,9L6.607,9L6.665,8.88L6.941,8.427L7.257,8.004L7.261,8L6.5,8zz" fill="#404040"/>
    </g>
    <g id="overlay">
      <path d="M15.5361,11.5c0,2.2291,-1.807,4.0361,-4.0361,4.0361S7.4639,13.7291,7.4639,11.5S9.2709,7.4639,11.5,7.4639S15.5361,9.2709,15.5361,11.5z" id="b" fill="#FFFFFF"/>
      <path d="M11.5,16c-2.4813,0,-4.5,-2.0187,-4.5,-4.5s2.0187,-4.5,4.5,-4.5s4.5,2.0187,4.5,4.5S13.9813,16,11.5,16zM11.5,7.9648c-1.9493,0,-3.5352,1.5859,-3.5352,3.5352S9.5507,15.0352,11.5,15.0352s3.5352,-1.5859,3.5352,-3.5352S13.4493,7.9648,11.5,7.9648z" id="c3" fill="#BE123C"/>
      <path d="M13.0545,13.5421c-0.1303,0,-0.2528,-0.0507,-0.3449,-0.1427L11.5,12.1898l-1.2096,1.2096c-0.092,0.092,-0.2145,0.1427,-0.3449,0.1427c-0.1661,0,-0.3199,-0.084,-0.4112,-0.2247c-0.1235,-0.1903,-0.0926,-0.4488,0.0734,-0.6148L10.8102,11.5l-1.2026,-1.2026c-0.166,-0.1659,-0.1969,-0.4245,-0.0734,-0.6148c0.0913,-0.1407,0.245,-0.2247,0.4112,-0.2247c0.1304,0,0.2528,0.0507,0.3449,0.1427L11.5,10.8102l1.2026,-1.2026c0.0946,-0.0947,0.2248,-0.149,0.3572,-0.149c0.0923,0,0.1814,0.0262,0.2576,0.0757c0.1256,0.0815,0.2065,0.2127,0.222,0.3599c0.0155,0.1473,-0.0355,0.2917,-0.14,0.3962L12.1898,11.5l1.2026,1.2026c0.166,0.1659,0.1969,0.4245,0.0734,0.6148C13.3744,13.4581,13.2207,13.5421,13.0545,13.5421z" id="c3" fill="#BE123C"/>
    </g>
  </g>
</svg>
