<?xml version="1.0" encoding="UTF-8"?>
<!DOCTYPE svg PUBLIC "-//W3C//DTD SVG 1.1//EN" "http://www.w3.org/Graphics/SVG/1.1/DTD/svg11.dtd">
<svg version="1.1" id="Layer_1" xmlns="http://www.w3.org/2000/svg" xmlns:xlink="http://www.w3.org/1999/xlink" x="0px" y="0px" width="16px" height="16px" viewBox="0 0 16 16" enable-background="new 0 0 16 16" xml:space="preserve">
  <g id="main">
    <g id="icon">
      <path d="M3.111,2.579L2.793,2.793L2.579,3.111L2.5,3.5L2.5,4.5L2.579,4.889L2.793,5.207L3.111,5.421L3.5,5.5L3.5,11.5L3.541,11.9L3.657,12.28L3.842,12.62L4.086,12.91L4.382,13.16L4.721,13.34L5.097,13.46L5.5,13.5L11.5,13.5L11.9,13.46L12.28,13.34L12.62,13.16L12.91,12.91L13.16,12.62L13.34,12.28L13.46,11.9L13.5,11.5L13.5,9.646L12.91,9.835L12.27,9.958L11.6,10L11.05,9.971L10.51,9.888L9.996,9.752L9.5,9.567L9.028,9.335L8.583,9.059L8.167,8.743L7.783,8.387L7.123,7.573L6.853,7.12L6.625,6.639L6.443,6.134L6.31,5.607L6.228,5.062L6.2,4.5L6.242,3.814L6.364,3.153L6.562,2.522L6.571,2.5L3.5,2.5zz" fill="#F5F5F5"/>
      <path d="M3.198,2.03L2.917,2.118L2.662,2.256L2.44,2.44L2.256,2.662L2.118,2.917L2.03,3.198L2,3.5L2,4.5L2.03,4.802L2.118,5.083L2.256,5.338L2.44,5.56L2.662,5.744L2.917,5.882L3.198,5.97L3.5,6L6.409,6L6.31,5.607L6.228,5.062L6.225,5L3.5,5L3.305,4.961L3.147,4.853L3.039,4.695L3,4.5L3,3.5L3.039,3.305L3.147,3.147L3.305,3.039L3.5,3L6.412,3L6.562,2.522L6.796,2L3.5,2zz" fill="#404040"/>
      <path d="M3,11.5L3.051,12L3.197,12.47L3.428,12.9L3.733,13.27L4.103,13.57L4.528,13.8L4.997,13.95L5.5,14L11.5,14L12,13.95L12.47,13.8L12.9,13.57L13.27,13.27L13.57,12.9L13.8,12.47L13.95,12L14,11.5L14,9.419L13.53,9.636L13,9.807L13,11.5L12.97,11.8L12.88,12.08L12.74,12.34L12.56,12.56L12.34,12.74L12.08,12.88L11.8,12.97L11.5,13L5.5,13L5.198,12.97L4.917,12.88L4.662,12.74L4.44,12.56L4.256,12.34L4.118,12.08L4.03,11.8L4,11.5L4,6L6.409,6L6.31,5.607L6.228,5.062L6.225,5L3,5zz" fill="#404040"/>
      <path d="M6.305,8.039L6.146,8.146L6.039,8.305L6,8.5L6.039,8.695L6.146,8.854L6.305,8.961L6.5,9L8.505,9L8.167,8.743L7.783,8.387L7.47,8L6.5,8zz" fill="#404040"/>
    </g>
    <g id="overlay">
      <path d="M15.5344,4.5c0,2.2223,-1.7615,4.0238,-3.9344,4.0238S7.6656,6.7223,7.6656,4.5S9.4271,0.4762,11.6,0.4762S15.5344,2.2777,15.5344,4.5z" id="b" fill="#FFFFFF"/>
      <path d="M11.6,0C9.1739,0,7.2,2.0187,7.2,4.5c0,2.4813,1.9739,4.5,4.4,4.5s4.4,-2.0187,4.4,-4.5C16,2.0187,14.0261,0,11.6,0zM14.4466,2.4762h-1.0915c-0.1055,-0.4539,-0.246,-0.8752,-0.4191,-1.2498C13.5482,1.4887,14.0714,1.9259,14.4466,2.4762zM15.0688,4.5c0,0.3733,-0.057,0.7332,-0.1621,1.0714H13.518c0.0394,-0.3468,0.0609,-0.705,0.0609,-1.0714s-0.0215,-0.7247,-0.0609,-1.0715h1.3887C15.0118,3.7668,15.0688,4.1267,15.0688,4.5zM11.6,8.0476c-0.0274,0,-0.0545,-0.0015,-0.0818,-0.0021c-0.3035,-0.3642,-0.553,-0.8959,-0.7256,-1.5217h1.615c-0.1727,0.6258,-0.4221,1.1575,-0.7256,1.5217C11.6545,8.0462,11.6274,8.0476,11.6,8.0476zM10.6,5.5714c-0.0464,-0.3461,-0.0716,-0.7061,-0.0716,-1.0714s0.0252,-0.7253,0.0716,-1.0715h2c0.0464,0.3461,0.0716,0.7061,0.0716,1.0715s-0.0252,0.7253,-0.0716,1.0714H10.6zM8.1312,4.5c0,-0.3733,0.057,-0.7332,0.1621,-1.0715H9.682c-0.0394,0.3468,-0.0609,0.705,-0.0609,1.0715s0.0215,0.7247,0.0609,1.0714H8.2933C8.1883,5.2332,8.1312,4.8733,8.1312,4.5zM11.6,0.9524c0.0274,0,0.0545,0.0015,0.0818,0.0021c0.3035,0.3642,0.553,0.8959,0.7257,1.5217h-1.615c0.1727,-0.6258,0.4221,-1.1575,0.7257,-1.5217C11.5455,0.9538,11.5726,0.9524,11.6,0.9524zM10.264,1.2264c-0.1731,0.3746,-0.3136,0.7959,-0.4191,1.2498H8.7534C9.1286,1.9259,9.6518,1.4887,10.264,1.2264zM8.7534,6.5238h1.0915c0.1055,0.4539,0.246,0.8752,0.4191,1.2498C9.6518,7.5113,9.1286,7.0741,8.7534,6.5238zM12.936,7.7736c0.1731,-0.3746,0.3136,-0.7959,0.4191,-1.2498h1.0915C14.0714,7.0741,13.5482,7.5113,12.936,7.7736z" fill="#0E7490"/>
    </g>
  </g>
</svg>
