<?xml version="1.0" encoding="UTF-8"?>
<!DOCTYPE svg PUBLIC "-//W3C//DTD SVG 1.1//EN" "http://www.w3.org/Graphics/SVG/1.1/DTD/svg11.dtd">
<svg version="1.1" id="Layer_1" xmlns="http://www.w3.org/2000/svg" xmlns:xlink="http://www.w3.org/1999/xlink" x="0px" y="0px" width="16px" height="16px" viewBox="0 0 16 16" enable-background="new 0 0 16 16" xml:space="preserve">
  <g id="main">
    <g id="icon">
      <path d="M3.111,2.579L2.793,2.793L2.579,3.111L2.5,3.5L2.5,4.5L2.579,4.889L2.793,5.207L3.111,5.421L3.5,5.5L3.5,11.5L3.541,11.9L3.657,12.28L3.842,12.62L4.086,12.91L4.382,13.16L4.721,13.34L5.097,13.46L5.5,13.5L11.5,13.5L11.9,13.46L12.28,13.34L12.62,13.16L12.91,12.91L13.16,12.62L13.34,12.28L13.46,11.9L13.5,11.5L13.5,8.453L13.33,8.613L12.87,8.855L12.35,8.938L11.82,8.848L11.34,8.592L11.24,8.507L7.588,5.291L7.337,5.023L7.152,4.711L7.037,4.367L6.997,4.001L7.037,3.636L7.152,3.292L7.337,2.98L7.588,2.712L7.829,2.5L3.5,2.5zz" fill="#F5F5F5"/>
      <path d="M3.198,2.03L2.917,2.118L2.662,2.256L2.44,2.44L2.256,2.662L2.118,2.917L2.03,3.198L2,3.5L2,4.5L2.03,4.802L2.118,5.083L2.256,5.338L2.44,5.56L2.662,5.744L2.917,5.882L3.198,5.97L3.5,6L8.393,6L7.588,5.291L7.337,5.023L7.324,5L3.5,5L3.305,4.961L3.147,4.853L3.039,4.695L3,4.5L3,3.5L3.039,3.305L3.147,3.147L3.305,3.039L3.5,3L7.325,3L7.337,2.98L7.588,2.712L8,2.349L8,2L3.5,2zz" fill="#404040"/>
      <path d="M3,11.5L3.051,12L3.197,12.47L3.428,12.9L3.733,13.27L4.103,13.57L4.528,13.8L4.997,13.95L5.5,14L11.5,14L12,13.95L12.47,13.8L12.9,13.57L13.27,13.27L13.57,12.9L13.8,12.47L13.95,12L14,11.5L14,8L13.83,8L13.62,8.338L13.33,8.613L13,8.785L13,11.5L12.97,11.8L12.88,12.08L12.74,12.34L12.56,12.56L12.34,12.74L12.08,12.88L11.8,12.97L11.5,13L5.5,13L5.198,12.97L4.917,12.88L4.662,12.74L4.44,12.56L4.256,12.34L4.118,12.08L4.03,11.8L4,11.5L4,6L8.393,6L7.588,5.291L7.337,5.023L7.324,5L3,5zz" fill="#404040"/>
      <path d="M6.305,8.039L6.146,8.146L6.039,8.305L6,8.5L6.039,8.695L6.146,8.854L6.305,8.961L6.5,9L10.5,9L10.69,8.961L10.85,8.854L10.96,8.695L11,8.5L10.96,8.305L10.89,8.198L10.75,8.079L10.69,8.039L10.5,8L6.5,8zz" fill="#404040"/>
    </g>
    <g id="overlay">
      <path d="M8.5449,4.2291l3.6822,3.3215c0.1113,0.0881,0.273,0.0068,0.273,-0.1372v-1.812l2.4278,-0.0004c0.3159,0,0.5722,-0.5228,0.5722,-0.5721l0.0004,-1.9551c0.0001,-0.3161,-0.2562,-0.5724,-0.5723,-0.5724L12.5,2.5017V0.6893c0,-0.144,-0.1616,-0.2253,-0.273,-0.1372L8.5449,3.8736C8.4312,3.9635,8.4312,4.1392,8.5449,4.2291z" id="b" fill="#FFFFFF"/>
      <path d="M7.9973,4.0014c0,-0.2067,0.0898,-0.4011,0.2467,-0.5345l3.6682,-3.2315c0.0124,-0.012,0.0256,-0.0233,0.0393,-0.0339c0.2293,-0.1774,0.5455,-0.1848,0.7888,-0.0059C12.9104,0.3207,13,0.528,13,0.7392v1.2622h1.9c0.2463,0,0.5088,0.0716,0.7013,0.2252c0.2557,0.204,0.3987,0.503,0.3987,0.824l-0.0003,1.9014c-0.0002,0.5785,-0.4703,1.0493,-1.048,1.0494H13v1.2621c0,0.2112,-0.0897,0.4186,-0.2598,0.5437c-0.2433,0.1789,-0.5595,0.1715,-0.7889,-0.006c-0.0138,-0.0107,-0.0267,-0.0219,-0.0391,-0.0338L8.2439,4.5359C8.0871,4.4024,7.9973,4.2081,7.9973,4.0014zM9.0405,4.0513L12,6.5412v-0.9508c0,-0.2697,0.2346,-0.5891,0.5,-0.5891h2.4c0.0476,0,0.1,-0.039,0.1,-0.0866l0.0004,-1.8266c0,-0.0235,-0.0087,-0.0448,-0.025,-0.0614c-0.0164,-0.0167,-0.0522,-0.0254,-0.0754,-0.0254h-2.4c-0.0941,0,-0.1898,-0.0198,-0.2692,-0.0704c-0.1473,-0.0939,-0.2308,-0.2496,-0.2308,-0.4183v-0.9512L9.0405,4.0513z" id="c3" fill="#0E7490"/>
    </g>
  </g>
</svg>
