<?xml version="1.0" encoding="UTF-8"?>
<!DOCTYPE svg PUBLIC "-//W3C//DTD SVG 1.1//EN" "http://www.w3.org/Graphics/SVG/1.1/DTD/svg11.dtd">
<svg version="1.1" id="Layer_1" xmlns="http://www.w3.org/2000/svg" xmlns:xlink="http://www.w3.org/1999/xlink" x="0px" y="0px" width="16px" height="16px" viewBox="0 0 16 16" enable-background="new 0 0 16 16" xml:space="preserve">
  <g id="icon">
    <path d="M13.5,2.5H3.5c-0.5523,0,-1,0.4477,-1,1v1c0,0.5523,0.4477,1,1,1v6c0,1.1046,0.8954,2,2,2h6c1.1046,0,2,-0.8954,2,-2V5.5c0.5523,0,1,-0.4477,1,-1V3.5C14.5,2.9477,14.0523,2.5,13.5,2.5z" id="b" fill="#F5F5F5"/>
    <path d="M13.5,6H3.5c-0.8271,0,-1.5,-0.6729,-1.5,-1.5V3.5c0,-0.8271,0.6729,-1.5,1.5,-1.5h10c0.8271,0,1.5,0.6729,1.5,1.5v1C15,5.3271,14.3271,6,13.5,6zM3.5,3c-0.2757,0,-0.5,0.2243,-0.5,0.5v1c0,0.2757,0.2243,0.5,0.5,0.5h10c0.2757,0,0.5,-0.2243,0.5,-0.5V3.5c0,-0.2757,-0.2243,-0.5,-0.5,-0.5H3.5z" id="c2" fill="#404040"/>
    <path d="M11.5,14H5.5c-1.3785,0,-2.5,-1.1215,-2.5,-2.5V5h11v6.5C14,12.8785,12.8785,14,11.5,14zM4,6v5.5c0,0.8271,0.6729,1.5,1.5,1.5h6c0.8271,0,1.5,-0.6729,1.5,-1.5V6H4z" id="c1" fill="#404040"/>
    <path d="M10.5,9H6.5c-0.2761,0,-0.5,-0.2239,-0.5,-0.5v0c0,-0.2761,0.2239,-0.5,0.5,-0.5h4c0.2761,0,0.5,0.2239,0.5,0.5v0C11,8.7761,10.7761,9,10.5,9z" id="c1" fill="#404040"/>
  </g>
</svg>
