<?xml version="1.0" encoding="UTF-8"?>
<!DOCTYPE svg PUBLIC "-//W3C//DTD SVG 1.1//EN" "http://www.w3.org/Graphics/SVG/1.1/DTD/svg11.dtd">
<svg version="1.1" id="Layer_1" xmlns="http://www.w3.org/2000/svg" xmlns:xlink="http://www.w3.org/1999/xlink" x="0px" y="0px" width="16px" height="16px" viewBox="0 0 16 16" enable-background="new 0 0 16 16" xml:space="preserve">
  <g id="main">
    <g id="icon">
      <path d="M2.7,4.8L2.7,13.52L2.762,13.82L2.929,14.07L3.178,14.24L3.483,14.3L7.4,14.3L7.433,13.76L7.155,13.73L6.891,13.64L6.648,13.51L6.431,13.33L6.132,12.9L6.006,12.4L6.057,11.89L6.289,11.41L6.3,11.4L6.33,11.36L6.401,11.28L11.04,6.64L11.12,6.657L11.6,6.375L12.12,6.169L12.3,6.128L12.3,2.483L12.24,2.178L12.07,1.929L11.82,1.762L11.52,1.7L5.75,1.7zz" fill="#E5E5E5"/>
      <path d="M6.12,1.029L5.84,1.114L5.582,1.252L5.354,1.439L2.439,4.354L2.252,4.582L2.114,4.84L2.029,5.12L2,5.414L2,13L2.041,13.4L2.157,13.78L2.342,14.12L2.586,14.41L2.882,14.66L3.221,14.84L3.597,14.96L4,15L7.508,15L7.484,14.94L7.396,14.35L7.419,14L4,14L3.611,13.92L3.293,13.71L3.079,13.39L3,13L3,6L5.5,6L5.802,5.97L6.084,5.882L6.339,5.744L6.561,5.561L6.744,5.339L6.882,5.084L6.97,4.802L7,4.5L7,2L11,2L11.39,2.079L11.71,2.293L11.92,2.611L12,3L12,6.218L12.12,6.169L12.67,6.043L13,6.018L13,3L12.96,2.597L12.84,2.221L12.66,1.882L12.41,1.586L12.12,1.342L11.78,1.157L11.4,1.041L11,1L6.414,1zM6,4.5L5.961,4.695L5.854,4.854L5.695,4.961L5.5,5L3.207,5L6,2.207zz" fill="#404040"/>
    </g>
    <g id="overlay">
      <path d="M10.1534,16c-0.4716,0,-0.9149,-0.1834,-1.2484,-0.5165c-0.6098,-0.609,-0.6864,-1.5886,-0.1801,-2.2831c0.0135,-0.0247,0.0294,-0.0483,0.0472,-0.0704l0.0283,-0.0318l0.0428,-0.0434l0.1624,-0.17l0.0035,0.0036l3.1321,-3.1363c0.0892,-0.0893,0.2079,-0.1385,0.3342,-0.1385c0.1019,0,0.1989,0.0319,0.2805,0.0922l0.0083,0.0066l0.0407,0.035l0.0038,0.0038c0.1644,0.1637,0.1844,0.4277,0.0464,0.6139l-0.0067,0.0084l-0.0351,0.0406l-3.3028,3.307c-0.2647,0.328,-0.2395,0.7987,0.0598,1.0977c0.1557,0.1554,0.3626,0.2411,0.5827,0.2411c0.1947,0,0.3832,-0.0688,0.5313,-0.1938l3.8388,-3.8333c0.7059,-0.7059,0.7055,-1.8543,-0.0009,-2.5599c-0.3423,-0.3419,-0.7973,-0.5301,-1.2814,-0.5301c-0.4497,0,-0.8808,0.1654,-1.2137,0.4658l-0.0661,0.0629l-0.007,0.0076l-4.149,4.1442c-0.0892,0.0891,-0.2077,0.1381,-0.3338,0.1381s-0.2446,-0.049,-0.3338,-0.1381c-0.1642,-0.164,-0.1838,-0.4279,-0.0456,-0.6139l0.0067,-0.0084l0.0351,-0.0406l4.2177,-4.2136l0.0021,0.0006C11.8663,7.2648,12.5332,7,13.241,7c0.7361,0,1.4282,0.2863,1.9487,0.8063c1.0483,1.0471,1.0838,2.7204,0.0806,3.8093l-0.0836,0.0876l-3.836,3.8308l-0.0212,0.0175C11.0101,15.8393,10.5907,16,10.1534,16z" fill="#404040"/>
    </g>
  </g>
</svg>
