<?xml version="1.0" encoding="UTF-8"?>
<!DOCTYPE svg PUBLIC "-//W3C//DTD SVG 1.1//EN" "http://www.w3.org/Graphics/SVG/1.1/DTD/svg11.dtd">
<svg version="1.1" id="Layer_1" xmlns="http://www.w3.org/2000/svg" xmlns:xlink="http://www.w3.org/1999/xlink" x="0px" y="0px" width="16px" height="16px" viewBox="0 0 16 16" enable-background="new 0 0 16 16" xml:space="preserve">
  <g id="icon">
    <path d="M4.6228,13.5C3.4523,13.5,2.5,12.5477,2.5,11.3772V4.6228C2.5,3.4523,3.4523,2.5,4.6228,2.5h6.7544C12.5477,2.5,13.5,3.4523,13.5,4.6228v3.5428c0,0.567,-0.2208,1.1001,-0.6217,1.5011l-3.2116,3.2117C9.2657,13.2792,8.7326,13.5,8.1656,13.5H4.6228z" id="b" fill="#E5E5E5"/>
    <path d="M4.5,2c-1.3807,0,-2.5,1.1193,-2.5,2.5v7c0,1.3807,1.1193,2.5,2.5,2.5h3.6716c0.663,0,1.2989,-0.2634,1.7678,-0.7322l3.3285,-3.3285C13.7366,9.4705,14,8.8346,14,8.1716V4.5c0,-1.3807,-1.1193,-2.5,-2.5,-2.5H4.5zM3,4.5c0,-0.8284,0.6716,-1.5,1.5,-1.5h7c0.8284,0,1.5,0.6716,1.5,1.5v3.5h-2.5c-1.3807,0,-2.5,1.1193,-2.5,2.5v2.5H4.5c-0.8284,0,-1.5,-0.6716,-1.5,-1.5V4.5zM9,12.7505V10.5c0,-0.8284,0.6716,-1.5,1.5,-1.5h2.2505c-0.055,0.0829,-0.1184,0.1608,-0.1898,0.2322l-3.3285,3.3285C9.1608,12.6321,9.0829,12.6955,9,12.7505z" id="c1" fill="#404040"/>
    <path d="M10.5,6H5.5c-0.2761,0,-0.5,-0.2239,-0.5,-0.5v0c0,-0.2761,0.2239,-0.5,0.5,-0.5h5c0.2761,0,0.5,0.2239,0.5,0.5v0C11,5.7761,10.7761,6,10.5,6zM8,7.5L8,7.5c0,-0.2761,-0.2239,-0.5,-0.5,-0.5H5.5c-0.2761,0,-0.5,0.2239,-0.5,0.5v0c0,0.2761,0.2239,0.5,0.5,0.5h2C7.7761,8,8,7.7761,8,7.5zM7,9.5L7,9.5c0,-0.2761,-0.2239,-0.5,-0.5,-0.5H5.5c-0.2761,0,-0.5,0.2239,-0.5,0.5v0c0,0.2761,0.2239,0.5,0.5,0.5h1C6.7761,10,7,9.7761,7,9.5z" id="c2" fill="#404040"/>
  </g>
</svg>
