<?xml version="1.0" encoding="UTF-8"?>
<!DOCTYPE svg PUBLIC "-//W3C//DTD SVG 1.1//EN" "http://www.w3.org/Graphics/SVG/1.1/DTD/svg11.dtd">
<svg version="1.1" id="Layer_1" xmlns="http://www.w3.org/2000/svg" xmlns:xlink="http://www.w3.org/1999/xlink" x="0px" y="0px" width="16px" height="16px" viewBox="0 0 16 16" enable-background="new 0 0 16 16" xml:space="preserve">
  <g id="icon">
    <path d="M8,14.5004c-0.302,0,-0.5959,-0.1128,-0.8277,-0.3177C5.7675,12.941,2.5,9.7553,2.5,6.9997c0,-3.0327,2.4673,-5.5,5.5,-5.5s5.5,2.4673,5.5,5.5c0,2.7556,-3.2675,5.9413,-4.6723,7.1831C8.5959,14.3876,8.302,14.5004,8,14.5004z" id="b" fill="#E5E5E5"/>
    <path d="M9.5,6.9996c0,-0.8284,-0.6716,-1.5,-1.5,-1.5s-1.5,0.6716,-1.5,1.5s0.6716,1.5,1.5,1.5S9.5,7.8281,9.5,6.9996zM14,6.9996c0,2.8739,-3.0972,6.0162,-4.8411,7.5577c-0.6684,0.5908,-1.6494,0.5908,-2.3177,0C5.0972,13.0158,2,9.8735,2,6.9996c0,-3.3137,2.6863,-6,6,-6C11.3137,0.9996,14,3.6859,14,6.9996zM13,6.9996c0,-2.7614,-2.2386,-5,-5,-5c-2.7614,0,-5,2.2386,-5,5c0,1.1085,0.6146,2.3954,1.5697,3.6827c0.9339,1.2588,2.0872,2.3775,2.9337,3.1258c0.2901,0.2565,0.703,0.2565,0.9931,0c0.8465,-0.7483,1.9997,-1.867,2.9337,-3.1258C12.3854,9.395,13,8.1081,13,6.9996z" id="c1" fill="#404040"/>
  </g>
</svg>
