<?xml version="1.0" encoding="UTF-8"?>
<!DOCTYPE svg PUBLIC "-//W3C//DTD SVG 1.1//EN" "http://www.w3.org/Graphics/SVG/1.1/DTD/svg11.dtd">
<svg version="1.1" id="Layer_1" xmlns="http://www.w3.org/2000/svg" xmlns:xlink="http://www.w3.org/1999/xlink" x="0px" y="0px" width="16px" height="16px" viewBox="0 0 16 16" enable-background="new 0 0 16 16" xml:space="preserve">
  <g id="main">
    <g id="icon">
      <path d="M4.157,2.542L3.767,2.663L3.415,2.854L3.108,3.108L2.854,3.415L2.663,3.767L2.542,4.157L2.5,4.575L2.5,12.42L2.542,12.84L2.663,13.23L2.854,13.59L3.108,13.89L3.415,14.15L3.767,14.34L4.157,14.46L4.575,14.5L6.8,14.5L6.8,7.869L6.837,7.504L6.943,7.164L7.112,6.855L7.334,6.587L7.604,6.365L7.913,6.197L8.255,6.092L8.622,6.055L9.078,6.113L9.509,6.287L14.6,9.126L14.6,4.575L14.56,4.157L14.44,3.767L14.25,3.415L13.99,3.108L13.69,2.854L13.33,2.663L12.94,2.542L12.52,2.5L4.575,2.5zz" fill="#E5E5E5"/>
      <path d="M3.996,2.051L3.527,2.196L3.102,2.427L2.732,2.732L2.427,3.102L2.196,3.527L2.051,3.996L2,4.5L2,12.5L2.051,13L2.196,13.47L2.427,13.9L2.732,14.27L3.102,14.57L3.527,14.8L3.996,14.95L4.5,15L6.8,15L6.8,14L4.5,14L4.198,13.97L3.916,13.88L3.661,13.74L3.439,13.56L3.256,13.34L3.118,13.08L3.03,12.8L3,12.5L3,6L14,6L14,8.792L15,9.349L15,4.5L14.95,3.996L14.8,3.527L14.57,3.102L14.27,2.732L13.9,2.427L13.47,2.196L13,2.051L12.5,2L4.5,2zM12.5,3L12.8,3.03L13.08,3.118L13.34,3.256L13.56,3.439L13.74,3.661L13.88,3.916L13.97,4.198L14,4.5L14,5L3,5L3,4.5L3.03,4.198L3.118,3.916L3.256,3.661L3.439,3.439L3.661,3.256L3.916,3.118L4.198,3.03L4.5,3zM12.72,14.98L13,14.95L13.47,14.8L13.9,14.57L14.27,14.27L14.5,13.98zz" fill="#404040"/>
      <path d="M5.305,1.039L5.146,1.146L5.039,1.305L5,1.5L5,3.5L5.039,3.695L5.146,3.854L5.305,3.961L5.5,4L5.695,3.961L5.854,3.854L5.961,3.695L6,3.5L6,1.5L5.961,1.305L5.854,1.146L5.695,1.039L5.5,1zM11.31,1.039L11.15,1.146L11.04,1.305L11,1.5L11,3.5L11.04,3.695L11.15,3.854L11.31,3.961L11.5,4L11.69,3.961L11.85,3.854L11.96,3.695L12,3.5L12,1.5L11.96,1.305L11.85,1.146L11.69,1.039L11.5,1zz" fill="#404040"/>
      <path d="M4.611,7.079L4.293,7.293L4.079,7.611L4,8L4.079,8.389L4.293,8.707L4.611,8.921L5,9L5.389,8.921L5.707,8.707L5.921,8.389L6,8L5.921,7.611L5.707,7.293L5.389,7.079L5,7zz" fill="#404040"/>
    </g>
    <g id="overlay">
      <path d="M8.6216,16c-0.3951,0,-0.8216,-0.3115,-0.8216,-0.8147V7.8692c0,-0.5032,0.4265,-0.8147,0.8216,-0.8147c0.1394,0,0.2741,0.0357,0.4004,0.1062l6.5601,3.6582c0.2617,0.1459,0.4179,0.4108,0.4179,0.7085c0,0.2977,-0.1563,0.5625,-0.418,0.7084L9.022,15.8939C8.8957,15.9643,8.761,16,8.6216,16z" id="c1" fill="#404040"/>
    </g>
  </g>
</svg>
