<?xml version="1.0" encoding="UTF-8"?>
<!DOCTYPE svg PUBLIC "-//W3C//DTD SVG 1.1//EN" "http://www.w3.org/Graphics/SVG/1.1/DTD/svg11.dtd">
<svg version="1.1" id="Layer_1" xmlns="http://www.w3.org/2000/svg" xmlns:xlink="http://www.w3.org/1999/xlink" x="0px" y="0px" width="16px" height="16px" viewBox="0 0 16 16" enable-background="new 0 0 16 16" xml:space="preserve">
  <g id="icon">
    <path d="M9.1,3.5H6.9c-0.5523,0,-1,-0.4477,-1,-1v0c0,-0.5523,0.4477,-1,1,-1h2.2c0.5523,0,1,0.4477,1,1v0C10.1,3.0523,9.6523,3.5,9.1,3.5z" id="b" fill="#F5F5F5"/>
    <rect x="3.6" y="4.8" width="8.9" height="8.4" id="b" fill="#F5F5F5"/>
    <path d="M12.3,2h-1.6875C10.4059,1.4184,9.8516,1,9.2,1H6.8c-0.6516,0,-1.2059,0.4184,-1.4125,1H3.7c-0.9374,0,-1.7,0.7626,-1.7,1.7v9.6c0,0.9374,0.7626,1.7,1.7,1.7h8.6c0.9374,0,1.7,-0.7626,1.7,-1.7V3.7C14,2.7626,13.2374,2,12.3,2zM6.8,2h2.4c0.2757,0,0.5,0.2243,0.5,0.5s-0.2243,0.5,-0.5,0.5H6.8c-0.2757,0,-0.5,-0.2243,-0.5,-0.5S6.5243,2,6.8,2zM7.753,10.2995l-1.9637,1.9479c-0.1947,0.1931,-0.5085,0.1934,-0.7035,0.0007l-0.9623,-0.9508c-0.1964,-0.1941,-0.1983,-0.5106,-0.0042,-0.7071h0c0.1941,-0.1964,0.5107,-0.1983,0.7071,-0.0042l0.6102,0.6029l1.6123,-1.5993c0.1961,-0.1945,0.5126,-0.1932,0.7071,0.0029C7.9503,9.7884,7.949,10.105,7.753,10.2995zM7.753,6.2995L5.7893,8.2473c-0.1947,0.1931,-0.5085,0.1934,-0.7035,0.0007l-0.9623,-0.9508c-0.1964,-0.1941,-0.1983,-0.5106,-0.0042,-0.7071h0c0.1941,-0.1964,0.5107,-0.1983,0.7071,-0.0042l0.6102,0.6029l1.6123,-1.5993c0.1961,-0.1945,0.5126,-0.1932,0.7071,0.0029C7.9503,5.7884,7.949,6.105,7.753,6.2995zM11.9988,11.5c0,0.2761,-0.2238,0.5,-0.5,0.5h-2.5c-0.2761,0,-0.5,-0.2239,-0.5,-0.5v0c0,-0.2761,0.2239,-0.5,0.5,-0.5h2.5C11.775,11,11.9988,11.2238,11.9988,11.5L11.9988,11.5zM11.9988,7.5c0,0.2761,-0.2238,0.5,-0.5,0.5h-2.5c-0.2761,0,-0.5,-0.2239,-0.5,-0.5v0c0,-0.2761,0.2239,-0.5,0.5,-0.5h2.5C11.775,7,11.9988,7.2238,11.9988,7.5L11.9988,7.5z" id="c1" fill="#0891b2"/>
  </g>
</svg>
