<?xml version="1.0" encoding="UTF-8"?>
<!DOCTYPE svg PUBLIC "-//W3C//DTD SVG 1.1//EN" "http://www.w3.org/Graphics/SVG/1.1/DTD/svg11.dtd">
<svg version="1.1" id="Layer_1" xmlns="http://www.w3.org/2000/svg" xmlns:xlink="http://www.w3.org/1999/xlink" x="0px" y="0px" width="24px" height="24px" viewBox="0 0 24 24" enable-background="new 0 0 24 24" xml:space="preserve">
  <g id="icon">
    <path d="M13.65,5.25h-3.3c-0.8284,0,-1.5,-0.6716,-1.5,-1.5v0c0,-0.8284,0.6716,-1.5,1.5,-1.5h3.3c0.8284,0,1.5,0.6716,1.5,1.5v0C15.15,4.5784,14.4784,5.25,13.65,5.25z" id="b" fill="#F5F5F5"/>
    <rect x="5.4" y="7.2" width="13.35" height="12.1" id="b" fill="#F5F5F5"/>
    <path d="M18.45,3h-2.5313c-0.3099,-0.8725,-1.1413,-1.5,-2.1187,-1.5h-3.6c-0.9774,0,-1.8089,0.6275,-2.1187,1.5H5.55C4.1439,3,3,4.1439,3,5.55v13.9c0,1.4061,1.1439,2.55,2.55,2.55h12.9c1.4061,0,2.55,-1.1439,2.55,-2.55v-13.9C21,4.1439,19.8561,3,18.45,3zM10.2,3h3.6c0.4135,0,0.75,0.3365,0.75,0.75S14.2135,4.5,13.8,4.5h-3.6c-0.4135,0,-0.75,-0.3365,-0.75,-0.75S9.7865,3,10.2,3zM11.6295,14.9492L8.6839,17.871c-0.292,0.2896,-0.7627,0.2901,-1.0553,0.001l-1.4434,-1.4262c-0.2946,-0.2911,-0.2975,-0.766,-0.0064,-1.0606h0c0.2911,-0.2946,0.766,-0.2975,1.0606,-0.0064l0.9152,0.9044l2.4185,-2.3989c0.2941,-0.2917,0.7689,-0.2898,1.0606,0.0043C11.9255,14.1826,11.9236,14.6575,11.6295,14.9492zM11.6295,8.9492L8.6839,11.871c-0.292,0.2896,-0.7627,0.2901,-1.0553,0.001l-1.4434,-1.4262c-0.2946,-0.2911,-0.2975,-0.766,-0.0064,-1.0606h0c0.2911,-0.2946,0.766,-0.2975,1.0606,-0.0064l0.9152,0.9044l2.4185,-2.3989c0.2941,-0.2917,0.7689,-0.2898,1.0606,0.0043C11.9255,8.1826,11.9236,8.6575,11.6295,8.9492zM17.9983,16.75c0,0.4142,-0.3358,0.75,-0.75,0.75h-3.75c-0.4142,0,-0.75,-0.3358,-0.75,-0.75v0c0,-0.4142,0.3358,-0.75,0.75,-0.75h3.75C17.6625,16,17.9983,16.3358,17.9983,16.75L17.9983,16.75zM17.9983,10.75c0,0.4142,-0.3358,0.75,-0.75,0.75h-3.75c-0.4142,0,-0.75,-0.3358,-0.75,-0.75v0c0,-0.4142,0.3358,-0.75,0.75,-0.75h3.75C17.6625,10,17.9983,10.3358,17.9983,10.75L17.9983,10.75z" id="c1" fill="#0891b2"/>
  </g>
</svg>
