<?xml version="1.0" encoding="UTF-8"?>
<!DOCTYPE svg PUBLIC "-//W3C//DTD SVG 1.1//EN" "http://www.w3.org/Graphics/SVG/1.1/DTD/svg11.dtd">
<svg version="1.1" id="Layer_1" xmlns="http://www.w3.org/2000/svg" xmlns:xlink="http://www.w3.org/1999/xlink" x="0px" y="0px" width="24px" height="24px" viewBox="0 0 24 24" enable-background="new 0 0 24 24" xml:space="preserve">
  <g id="icon">
    <path d="M18.45,3.75H15.3c0,-0.8284,-0.6716,-1.5,-1.5,-1.5h-3.6c-0.8284,0,-1.5,0.6716,-1.5,1.5H5.55c-0.9941,0,-1.8,0.8059,-1.8,1.8v13.9c0,0.9941,0.8059,1.8,1.8,1.8h12.9c0.9941,0,1.8,-0.8059,1.8,-1.8v-13.9C20.25,4.5559,19.4441,3.75,18.45,3.75z" id="b" fill="#F5F5F5"/>
    <path d="M18.45,3h-2.5313c-0.3099,-0.8725,-1.1413,-1.5,-2.1187,-1.5h-3.6c-0.9774,0,-1.8089,0.6275,-2.1187,1.5H5.55C4.1439,3,3,4.1439,3,5.55v13.9c0,1.4061,1.1439,2.55,2.55,2.55h12.9c1.4061,0,2.55,-1.1439,2.55,-2.55v-13.9C21,4.1439,19.8561,3,18.45,3zM10.2,3h3.6c0.4135,0,0.75,0.3365,0.75,0.75S14.2135,4.5,13.8,4.5h-3.6c-0.4135,0,-0.75,-0.3365,-0.75,-0.75S9.7865,3,10.2,3zM19.5,19.45c0,0.579,-0.471,1.05,-1.05,1.05h-12.9c-0.579,0,-1.05,-0.471,-1.05,-1.05v-13.9C4.5,4.971,4.971,4.5,5.55,4.5h2.5313C8.3911,5.3725,9.2226,6,10.2,6h3.6c0.9774,0,1.8089,-0.6275,2.1187,-1.5H18.45c0.579,0,1.05,0.471,1.05,1.05V19.45z" id="c1" fill="#0E7490"/>
    <path d="M7.6286,11.872l-1.4434,-1.4262c-0.2946,-0.2911,-0.2975,-0.766,-0.0064,-1.0606l0,0c0.2911,-0.2946,0.766,-0.2975,1.0606,-0.0064l0.9152,0.9044l2.4185,-2.3989c0.2941,-0.2917,0.7689,-0.2898,1.0606,0.0043l0,0c0.2917,0.2941,0.2898,0.7689,-0.0043,1.0606L8.6839,11.871C8.3919,12.1606,7.9212,12.1611,7.6286,11.872zM11.6338,13.8886L11.6338,13.8886c-0.2917,-0.2941,-0.7666,-0.296,-1.0606,-0.0043l-2.4185,2.3989l-0.9152,-0.9044c-0.2946,-0.2911,-0.7695,-0.2883,-1.0606,0.0064l0,0c-0.2911,0.2946,-0.2883,0.7695,0.0064,1.0606l1.4434,1.4262c0.2925,0.2891,0.7633,0.2886,1.0553,-0.001l2.9456,-2.9218C11.9236,14.6575,11.9255,14.1826,11.6338,13.8886z" id="c2" fill="#0E7490"/>
    <path d="M17.2483,11.5h-3.75c-0.4142,0,-0.75,-0.3358,-0.75,-0.75v0c0,-0.4142,0.3358,-0.75,0.75,-0.75h3.75c0.4142,0,0.75,0.3358,0.75,0.75v0C17.9983,11.1642,17.6625,11.5,17.2483,11.5zM17.2483,16h-3.75c-0.4142,0,-0.75,0.3358,-0.75,0.75v0c0,0.4142,0.3358,0.75,0.75,0.75h3.75c0.4142,0,0.75,-0.3358,0.75,-0.75v0C17.9983,16.3358,17.6625,16,17.2483,16z" id="c1" fill="#0E7490"/>
  </g>
</svg>
