<?xml version="1.0" encoding="utf-8"?>
<!-- Created with: Axialis IconVectors - www.axialis.com -->
<svg version="1.1" xmlns="http://www.w3.org/2000/svg" xmlns:xlink="http://www.w3.org/1999/xlink" id="Layer_1" x="0px" y="0px" width="16" height="16" viewBox="0 0 16 16" xml:space="preserve">
  <g id="icon">
    <path id="b" fill="#F5F5F5" d="M7.85,2.28L3.19,7.8C2.81,8.26,3.14,8.95,3.74,8.95L6.44,8.95L3.19,12.8C2.81,13.26,3.14,13.95,3.74,13.95L13.34,13.95C13.94,13.95,14.27,13.26,13.89,12.8L10.64,8.95L13.34,8.95C13.94,8.95,14.27,8.26,13.89,7.8L9.23,2.28C8.87,1.85,8.21,1.85,7.85,2.28z"/>
    <path id="c1" fill="#BE123C" d="M7.47,1.96L2.81,7.48C2.51,7.85,2.44 8.34, 2.64 8.76 C2.85,9.19,3.26 9.45, 3.73 9.45 L5.36,9.45L2.81,12.48C2.51,12.85,2.44 13.34, 2.64 13.76 C2.85,14.19,3.26 14.45, 3.73 14.45 L13.34,14.45C13.81,14.45,14.23 14.19, 14.43 13.76 C14.51,13.6,14.55 13.42, 14.55 13.25 C14.55,12.97,14.45 12.7, 14.27 12.48 L11.71,9.45L13.34,9.45C13.81,9.45,14.23 9.19, 14.43 8.76 C14.51,8.6,14.55 8.42, 14.55 8.25 C14.55,7.97,14.45 7.7, 14.27 7.48 L9.61,1.96C9.34,1.64,8.95 1.46, 8.54 1.46 C8.12,1.46,7.73 1.65, 7.47 1.96 zM13.5,13.12C13.57,13.21,13.55 13.29, 13.53 13.34 C13.51,13.38,13.46 13.45, 13.34 13.45 L3.73,13.45C3.62,13.45,3.57 13.38, 3.55 13.34 C3.54,13.31,3.53 13.28, 3.53 13.24 C3.53,13.21,3.54 13.16, 3.57 13.12 L6.67,9.45L10.4,9.45L13.5,13.12zM8.84,2.6C8.84,2.61,8.84 2.61, 8.84 2.61 L13.5,8.12C13.57,8.21,13.55 8.29, 13.53 8.34 C13.51,8.38,13.46 8.45, 13.34 8.45 L3.73,8.45C3.62,8.45,3.57 8.38, 3.55 8.34 C3.54,8.31,3.53 8.28, 3.53 8.24 C3.53,8.21,3.54 8.16, 3.57 8.12 L8.24,2.6C8.34,2.48,8.47 2.46, 8.54 2.46 C8.61,2.46,8.74 2.48, 8.84 2.6 z"/>
  </g>
</svg>
