<?xml version="1.0" encoding="UTF-8"?>
<!DOCTYPE svg PUBLIC "-//W3C//DTD SVG 1.1//EN" "http://www.w3.org/Graphics/SVG/1.1/DTD/svg11.dtd">
<svg version="1.1" id="Layer_1" xmlns="http://www.w3.org/2000/svg" xmlns:xlink="http://www.w3.org/1999/xlink" x="0px" y="0px" width="16px" height="16px" viewBox="0 0 16 16" enable-background="new 0 0 16 16" xml:space="preserve">
  <g id="icon">
    <path d="M12.3,2.5h-1.6c0,-0.5523,-0.4477,-1,-1,-1H6.3c-0.5523,0,-1,0.4477,-1,1H3.7c-0.6627,0,-1.2,0.5373,-1.2,1.2v9.6c0,0.6627,0.5373,1.2,1.2,1.2h8.6c0.6627,0,1.2,-0.5373,1.2,-1.2V3.7C13.5,3.0373,12.9627,2.5,12.3,2.5z" id="b" fill="#F5F5F5"/>
    <path d="M12.3,2h-1.1875c-0.2066,-0.5816,-0.7609,-1,-1.4125,-1H6.3c-0.6516,0,-1.2059,0.4184,-1.4125,1H3.7c-0.9374,0,-1.7,0.7626,-1.7,1.7v9.6c0,0.9374,0.7626,1.7,1.7,1.7h8.6c0.9374,0,1.7,-0.7626,1.7,-1.7V3.7C14,2.7626,13.2374,2,12.3,2zM6.3,2h3.4c0.2757,0,0.5,0.2243,0.5,0.5s-0.2243,0.5,-0.5,0.5H6.3c-0.2757,0,-0.5,-0.2243,-0.5,-0.5S6.0243,2,6.3,2zM13,13.3c0,0.386,-0.314,0.7,-0.7,0.7H3.7c-0.386,0,-0.7,-0.314,-0.7,-0.7V3.7c0,-0.386,0.314,-0.7,0.7,-0.7h1.1875C5.0941,3.5816,5.6484,4,6.3,4h3.4c0.6516,0,1.2059,-0.4184,1.4125,-1H12.3c0.386,0,0.7,0.314,0.7,0.7V13.3z" id="c1" fill="#404040"/>
    <path d="M7.325,9.9075l3.1288,-3.1287c0.205,-0.205,0.5374,-0.205,0.7424,0c0.1864,0.1864,0.2034,0.4781,0.0508,0.6836l-0.0508,0.0589l-3.5,3.5c-0.1863,0.1864,-0.478,0.2034,-0.6836,0.0508l-0.0589,-0.0508l-1.75,-1.75c-0.205,-0.205,-0.205,-0.5374,0,-0.7424c0.1864,-0.1864,0.4781,-0.2034,0.6836,-0.0508l0.0589,0.0508L7.325,9.9075l3.1288,-3.1287L7.325,9.9075z" id="c2" fill="#404040"/>
  </g>
</svg>
