<?xml version="1.0" encoding="UTF-8"?>
<!DOCTYPE svg PUBLIC "-//W3C//DTD SVG 1.1//EN" "http://www.w3.org/Graphics/SVG/1.1/DTD/svg11.dtd">
<svg version="1.1" id="Layer_1" xmlns="http://www.w3.org/2000/svg" xmlns:xlink="http://www.w3.org/1999/xlink" x="0px" y="0px" width="16px" height="16px" viewBox="0 0 16 16" enable-background="new 0 0 16 16" xml:space="preserve">
  <g id="main">
    <g id="icon">
      <path d="M5.911,1.579L5.593,1.793L5.379,2.111L5.3,2.5L3.7,2.5L3.233,2.594L2.852,2.852L2.594,3.233L2.5,3.7L2.5,13.3L2.594,13.77L2.852,14.15L3.233,14.41L3.7,14.5L8,14.5L8,14.17L8.06,13.61L8.236,13.07L8.52,12.57L8.903,12.13L9.866,11.24L8.886,10.32L8.506,9.888L8.229,9.398L8.058,8.864L8,8.3L8,7.876L8.05,7.398L8.194,6.952L8.421,6.549L8.723,6.197L9.088,5.906L9.506,5.687L9.969,5.548L10.46,5.5L13.5,5.5L13.5,3.7L13.41,3.233L13.15,2.852L12.77,2.594L12.3,2.5L10.7,2.5L10.62,2.111L10.41,1.793L10.09,1.579L9.7,1.5L6.3,1.5zz" fill="#F5F5F5"/>
      <path d="M5.833,1.074L5.427,1.282L5.104,1.598L4.888,2L3.7,2L3.358,2.035L3.039,2.134L2.75,2.291L2.498,2.498L2.291,2.75L2.134,3.039L2.035,3.358L2,3.7L2,13.3L2.035,13.64L2.134,13.96L2.291,14.25L2.498,14.5L2.75,14.71L3.039,14.87L3.358,14.97L3.7,15L8.031,15L8,14.62L8,14.17L8.018,14L3.7,14L3.428,13.94L3.205,13.79L3.055,13.57L3,13.3L3,3.7L3.055,3.428L3.205,3.205L3.428,3.055L3.7,3L4.888,3L5.104,3.402L5.427,3.718L5.833,3.926L6.3,4L9.7,4L10.17,3.926L10.57,3.718L10.9,3.402L11.11,3L12.3,3L12.57,3.055L12.79,3.205L12.94,3.428L13,3.7L13,5.5L14,5.5L14,3.7L13.97,3.358L13.87,3.039L13.71,2.75L13.5,2.498L13.25,2.291L12.96,2.134L12.64,2.035L12.3,2L11.11,2L10.9,1.598L10.57,1.282L10.17,1.074L9.7,1L6.3,1zM9.7,2L9.895,2.039L10.05,2.147L10.16,2.305L10.2,2.5L10.16,2.695L10.05,2.853L9.895,2.961L9.7,3L6.3,3L6.105,2.961L5.947,2.853L5.839,2.695L5.8,2.5L5.839,2.305L5.947,2.147L6.105,2.039L6.3,2zz" fill="#404040"/>
      <path d="M5.36,8.421L5.204,8.529L5.088,8.703L5.05,8.9L5.088,9.098L5.204,9.271L6.954,11.02L7.013,11.07L7.18,11.15L7.362,11.17L7.54,11.13L7.696,11.02L8.657,10.06L8.506,9.888L8.229,9.398L8.133,9.099L7.325,9.907L5.946,8.529L5.887,8.478L5.72,8.396L5.538,8.376zz" fill="#404040"/>
    </g>
    <g id="overlay">
      <path d="M10.4648,16C9.6571,16,9,15.3826,9,14.6237v-0.4511c0,-0.4873,0.2121,-0.9628,0.582,-1.3046l1.7514,-1.6181l-1.763,-1.6564C9.2026,9.248,9,8.7885,9,8.2998v-0.4235C9,7.1174,9.6571,6.5,10.4648,6.5h4.0703C15.3429,6.5,16,7.1174,16,7.8763v0.4143c0,0.4868,-0.2012,0.945,-0.5665,1.2901L13.6667,11.25l1.7592,1.6436c0.3648,0.3409,0.5741,0.8138,0.5741,1.2973v0.4328c0,0.7589,-0.6571,1.3763,-1.4648,1.3763H10.4648z" fill="#404040"/>
    </g>
  </g>
</svg>
